<?xml version="1.0" encoding="UTF-8"?>
<!DOCTYPE svg PUBLIC "-//W3C//DTD SVG 1.1//EN" "http://www.w3.org/Graphics/SVG/1.1/DTD/svg11.dtd">
<!-- Creator: CorelDRAW 2018 (64-Bit) -->
<svg xmlns="http://www.w3.org/2000/svg" xml:space="preserve" width="10.2mm" height="10.2mm" version="1.1" style="shape-rendering:geometricPrecision; text-rendering:geometricPrecision; image-rendering:optimizeQuality; fill-rule:evenodd; clip-rule:evenodd"
viewBox="0 0 33.53 33.53"
 xmlns:xlink="http://www.w3.org/1999/xlink">
 <defs>
  <style type="text/css">
   <![CDATA[
    .fil0 {fill:#806040}
   ]]>
  </style>
 </defs>
 <g id="футер">
  <metadata id="CorelCorpID_0Corel-Layer"/>
  <path class="fil0" d="M6.91 0l19.71 0c3.8,0 6.91,3.11 6.91,6.91l0 19.71c0,3.8 -3.11,6.91 -6.91,6.91l-4.45 0c-0,-0.93 -0,-7.14 0.03,-12.71l5.4 0 0 -5.68 -5.35 0c0.02,-1.21 0.04,-2.19 0.06,-2.8 0.01,-0.18 0.04,-0.33 0.08,-0.45 0.03,-0.08 0.07,-0.14 0.11,-0.19 0.06,-0.07 0.11,-0.11 0.14,-0.12 0.2,-0.07 0.56,-0.11 1.05,-0.14 0.88,-0.06 2.06,-0.04 2.99,-0.03 0.82,0.01 0.45,0.02 1.01,0.02l0 -5.68c-1.1,0 -0.86,0 -0.94,0 -1.09,-0.01 -2.46,-0.03 -3.41,0.03 -0.96,0.06 -1.78,0.18 -2.6,0.48 -0.98,0.35 -1.8,0.9 -2.54,1.76 -0.47,0.55 -0.85,1.19 -1.13,1.94 -0.23,0.64 -0.38,1.36 -0.41,2.16 -0.03,0.64 -0.05,1.7 -0.07,3.02l-3.97 0 0 5.68 3.92 0c-0.03,5.59 -0.03,11.79 -0.03,12.71l-9.6 0c-3.8,0 -6.91,-3.11 -6.91,-6.91l0 -19.71c0,-3.8 3.11,-6.91 6.91,-6.91z"/>
 </g>
</svg>
