<?xml version="1.0" encoding="UTF-8"?>
<!DOCTYPE svg PUBLIC "-//W3C//DTD SVG 1.1//EN" "http://www.w3.org/Graphics/SVG/1.1/DTD/svg11.dtd">
<!-- Creator: CorelDRAW 2018 (64-Bit) -->
<svg xmlns="http://www.w3.org/2000/svg" xml:space="preserve" width="10.2mm" height="10.2mm" version="1.1" style="shape-rendering:geometricPrecision; text-rendering:geometricPrecision; image-rendering:optimizeQuality; fill-rule:evenodd; clip-rule:evenodd"
viewBox="0 0 36.92 36.92"
 xmlns:xlink="http://www.w3.org/1999/xlink">
 <defs>
  <style type="text/css">
   <![CDATA[
    .fil0 {fill:#806040}
   ]]>
  </style>
 </defs>
 <g id="футер">
  <metadata id="CorelCorpID_0Corel-Layer"/>
  <path class="fil0" d="M7.61 0l21.7 0c4.19,0 7.61,3.42 7.61,7.61l0 21.7c0,4.19 -3.42,7.61 -7.61,7.61l-21.7 0c-4.19,0 -7.61,-3.42 -7.61,-7.61l0 -21.7c0,-4.19 3.42,-7.61 7.61,-7.61zm10.85 9.74c2.41,0 4.59,0.98 6.16,2.55 1.58,1.58 2.55,3.76 2.55,6.16 0,2.41 -0.98,4.59 -2.55,6.16 -1.58,1.58 -3.76,2.55 -6.16,2.55 -2.41,0 -4.59,-0.98 -6.16,-2.55 -1.58,-1.58 -2.55,-3.76 -2.55,-6.16 0,-2.41 0.98,-4.59 2.55,-6.16 1.58,-1.58 3.76,-2.55 6.16,-2.55zm4.53 4.18c-1.16,-1.16 -2.76,-1.88 -4.53,-1.88 -1.77,0 -3.37,0.72 -4.53,1.88 -1.16,1.16 -1.88,2.76 -1.88,4.53 0,1.77 0.72,3.37 1.88,4.53 1.16,1.16 2.76,1.88 4.53,1.88 1.77,0 3.37,-0.72 4.53,-1.88 1.16,-1.16 1.88,-2.76 1.88,-4.53 0,-1.77 -0.72,-3.37 -1.88,-4.53zm-12.55 -10.26l16.03 0c1.86,0 3.56,0.76 4.79,1.99 1.23,1.23 1.99,2.92 1.99,4.79l0 16.03c0,1.86 -0.76,3.56 -1.99,4.79 -1.23,1.23 -2.92,1.99 -4.79,1.99l-16.03 0c-1.86,0 -3.56,-0.76 -4.79,-1.99 -1.23,-1.23 -1.99,-2.92 -1.99,-4.79l0 -16.03c0,-1.86 0.76,-3.56 1.99,-4.79 1.23,-1.23 2.92,-1.99 4.79,-1.99zm16.03 2.31l-16.03 0c-1.23,0 -2.34,0.5 -3.15,1.31 -0.81,0.81 -1.31,1.93 -1.31,3.15l0 16.03c0,1.23 0.5,2.34 1.31,3.15 0.81,0.81 1.93,1.31 3.15,1.31l16.03 0c1.23,0 2.34,-0.5 3.15,-1.31 0.81,-0.81 1.31,-1.93 1.31,-3.15l0 -16.03c0,-1.23 -0.5,-2.34 -1.31,-3.15 -0.81,-0.81 -1.93,-1.31 -3.15,-1.31zm0.23 1.9c0.94,0 1.7,0.76 1.7,1.7 0,0.94 -0.76,1.7 -1.7,1.7 -0.94,0 -1.7,-0.76 -1.7,-1.7 0,-0.94 0.76,-1.7 1.7,-1.7z"/>
 </g>
</svg>
