<?xml version="1.0" encoding="UTF-8"?>
<!DOCTYPE svg PUBLIC "-//W3C//DTD SVG 1.1//EN" "http://www.w3.org/Graphics/SVG/1.1/DTD/svg11.dtd">
<!-- Creator: CorelDRAW 2018 (64-Bit) -->
<svg xmlns="http://www.w3.org/2000/svg" xml:space="preserve" width="10.2mm" height="10.2mm" version="1.1" style="shape-rendering:geometricPrecision; text-rendering:geometricPrecision; image-rendering:optimizeQuality; fill-rule:evenodd; clip-rule:evenodd"
viewBox="0 0 41.07 41.07"
 xmlns:xlink="http://www.w3.org/1999/xlink">
 <defs>
  <style type="text/css">
   <![CDATA[
    .fil0 {fill:#806040}
   ]]>
  </style>
 </defs>
 <g id="футер">
  <metadata id="CorelCorpID_0Corel-Layer"/>
  <path class="fil0" d="M8.47 0l24.14 0c4.66,0 8.47,3.81 8.47,8.47l0 24.14c0,4.66 -3.81,8.47 -8.47,8.47l-24.14 0c-4.66,0 -8.47,-3.81 -8.47,-8.47l0 -24.14c0,-4.66 3.81,-8.47 8.47,-8.47zm23.99 14.45c0.01,0.32 0.01,0.64 0.01,0.94 0,9.58 -7.76,17.34 -17.34,17.34 -3.53,0 -6.81,-1.05 -9.55,-2.86 0,0 4.76,0.75 8.91,-2.48 -3.46,-0.23 -5.1,-2.83 -5.54,-4.24 0.27,0.09 2.11,0.14 2.45,-0.14 -1.15,-0.43 -4.82,-2.16 -4.64,-6.17 0,0 1.66,1.04 2.62,0.72 -2.09,-1.31 -3.49,-5.16 -1.7,-8.13 1.99,2.86 7.34,6.37 12.64,6.37 -0.09,-0.42 -0.14,-0.86 -0.14,-1.31 0,-3.39 2.75,-6.14 6.14,-6.14 1.78,0 3.38,0.75 4.5,1.96 0,0 3.1,-0.93 3.9,-1.5 -0.25,0.9 -1.77,2.92 -2.44,3.34 0.45,-0.06 2.44,-0.54 3.23,-0.91 -0.69,1.3 -3.04,3.22 -3.04,3.22z"/>
 </g>
</svg>
