<?xml version="1.0" encoding="UTF-8"?>
<!DOCTYPE svg PUBLIC "-//W3C//DTD SVG 1.1//EN" "http://www.w3.org/Graphics/SVG/1.1/DTD/svg11.dtd">
<!-- Creator: CorelDRAW 2018 (64-Bit) -->
<svg xmlns="http://www.w3.org/2000/svg" xml:space="preserve" width="10.2mm" height="10.2mm" version="1.1" style="shape-rendering:geometricPrecision; text-rendering:geometricPrecision; image-rendering:optimizeQuality; fill-rule:evenodd; clip-rule:evenodd"
viewBox="0 0 46.27 46.27"
 xmlns:xlink="http://www.w3.org/1999/xlink">
 <defs>
  <style type="text/css">
   <![CDATA[
    .fil0 {fill:#806040}
   ]]>
  </style>
 </defs>
 <g id="футер">
  <metadata id="CorelCorpID_0Corel-Layer"/>
  <path class="fil0" d="M9.54 0l27.19 0c5.25,0 9.54,4.29 9.54,9.54l0 27.19c0,5.25 -4.29,9.54 -9.54,9.54l-27.19 0c-5.25,0 -9.54,-4.29 -9.54,-9.54l0 -27.19c0,-5.25 4.29,-9.54 9.54,-9.54zm-3.71 12.16l4.54 0c0,0 0.9,0.02 1.29,0.9 0.39,0.88 1.83,4.86 2.73,6.32 0.9,1.46 2.35,4.37 3.93,5.05 0.43,0.19 0.7,0.05 0.86,-0.27 0.34,-0.66 0.19,-5.9 0.16,-6.95 0,0 0.03,-1.21 -0.46,-2.22 -0.45,-0.91 -1.25,-1.38 -1.14,-2.03 0.15,-0.86 0.88,-0.78 1.42,-0.79 0.33,-0 5.92,0 5.92,0 0,0 1.1,-0.08 1.16,0.98 0.06,1.05 0,8.61 0,8.61 0.11,1.57 1.12,1.14 2.06,0.27 1.03,-0.94 2,-2.41 2.21,-2.69 0.74,-0.98 1.85,-3.39 2.81,-5.17 0.66,-1.23 0.73,-2.04 2.41,-2.04l3.73 0c0,0 1.63,-0.09 1.42,1.17 -0.08,0.44 -0.53,1.6 -1.23,2.87 -1.36,2.51 -2.92,4.6 -4.37,6.84 -0.32,0.5 -0.44,1.06 -0.09,1.52 0.33,0.43 1.75,1.84 3.06,3.26 1.03,1.13 1.98,2.3 2.3,2.78 0.73,1.08 1.45,2.34 0.86,3.09 -0.21,0.27 -0.5,0.43 -1.08,0.43l-4.24 0c0,0 -0.68,0.03 -1.28,-0.35 -0.45,-0.28 -0.96,-0.9 -1.62,-1.62 -1.06,-1.17 -2.38,-2.62 -3.4,-3.38 -0.73,-0.54 -1.48,-1.21 -2.76,-1.19 -0.89,0.01 -0.73,1.11 -0.73,1.88 0,0.7 0.11,3.13 -0.08,3.66 -0.09,0.26 -0.26,0.48 -0.57,0.66 -0.8,0.45 -3.03,0.4 -3.9,0.29 -2.04,-0.24 -4.76,-1.19 -8.15,-4.36 -3.55,-3.32 -7.8,-10.61 -8.86,-15.53 -0.19,-0.89 -0.23,-1.89 1.08,-2.01z"/>
 </g>
</svg>
