<?xml version="1.0" encoding="UTF-8"?>
<!DOCTYPE svg PUBLIC "-//W3C//DTD SVG 1.1//EN" "http://www.w3.org/Graphics/SVG/1.1/DTD/svg11.dtd">
<!-- Creator: CorelDRAW 2018 (64-Bit) -->
<svg xmlns="http://www.w3.org/2000/svg" xml:space="preserve" width="345.09mm" height="2.1353mm" version="1.1" style="shape-rendering:geometricPrecision; text-rendering:geometricPrecision; image-rendering:optimizeQuality; fill-rule:evenodd; clip-rule:evenodd"
viewBox="0 0 34483.06 213.37"
 xmlns:xlink="http://www.w3.org/1999/xlink">
 <defs>
  <style type="text/css">
   <![CDATA[
    .str0 {stroke:#806040;stroke-width:15.19;stroke-linecap:round;stroke-linejoin:round;stroke-miterlimit:2.61313}
    .fil1 {fill:none}
    .fil0 {fill:none;fill-rule:nonzero}
   ]]>
  </style>
 </defs>
 <g id="разделит_x0020_полоса">
  <metadata id="CorelCorpID_0Corel-Layer"/>
  <g id="_1692641454800">
   <g>
    <path class="fil0 str0" d="M31288.75 118.1c-4093.48,-4.16 -8185.71,-24.57 -12279.02,-38.32 -4397.77,-28.36 -8785.99,-66.65 -13184.31,-19.52 -272.74,0.92 -546.65,6.73 -819.51,9.91 1.51,-1.71 3.01,-3.43 4.53,-5.15 271.64,-3.14 543.29,-6.44 814.93,-9.86 4398.37,-47.08 8786.59,-8.83 13184.4,19.53 4094.47,23.89 8188.09,33.86 12282.61,38.32 -1.21,1.69 -2.41,3.4 -3.62,5.09z"/>
    <path class="fil0 str0" d="M7751.87 11.85c3754.25,-16.41 7504.11,17.95 11257.99,44.49 3709.07,24.05 7417.48,36.99 11126.6,44.3 -3709.27,-3.38 -7417.54,-22.04 -11126.66,-33.46 -3483.42,-10.72 -6964.34,-52.9 -10448.36,-37.99 3482.52,-9.82 6965.88,26.92 10448.28,53.87 3949.47,27.21 7898.94,44.95 11848.5,51.77 -3949.87,-3.84 -7898.73,-12.55 -11848.6,-33.9 -2249.48,-13.64 -4498.97,-31.21 -6748.47,-38.52 2249.58,6.94 4498.96,23.11 6748.49,35.48 3260.59,16.69 6520.66,24.56 9781.28,27.4 -3260.75,1.62 -6520.72,-9.99 -9781.36,-15.12 -2148.31,-3.38 -4296.94,-22.38 -6445.41,-26.52 2148.51,8.61 4296.88,25.09 6445.35,38.1 5155.75,28.49 10310.18,34.51 15465.97,37.2 -5155.99,4.17 -10310.19,-5.67 -15466.09,-15.48 -4397.3,-20.9 -8785.08,-52.1 -13182.81,2.22 -1081.53,14.86 -2163.02,27.97 -3244.6,38.74 1064.67,-31.68 2129.35,-62.84 3193.95,-96.76 -786.25,25.53 -1572.54,49.55 -2358.84,73.4 786.48,-9.28 1572.96,-19.69 2359.41,-31.14 -256.6,1.66 -513.18,3.23 -769.78,4.68 273.19,-3.25 546.39,-6.65 819.58,-10.17 4397.92,-48.84 8785.74,-12.26 13183.12,14.28 4112.76,22.38 8224.62,30.57 12337.41,33.42 -670.45,5.43 -1340.9,10.83 -2011.34,16.13 200.32,-2.14 400.64,-4.3 600.96,-6.45 -414.77,-0.77 -829.54,-1.59 -1244.3,-2.49 115.31,3.49 230.64,6.96 345.96,10.43 -3343.14,-19.75 -6685.63,-55.68 -10028.54,-79.74 -2198.65,-15.83 -4397.86,-51.54 -6596.79,-69.25 2199.04,18.23 4397.83,45.02 6596.8,68.49 2916.06,29.24 5831.83,52.45 8747.98,70.9 -2916.22,-14.27 -5832.01,-42.1 -8748.05,-59.48 -1560.73,-9.3 -3122.24,-31.19 -4683.08,-44.93 1561.04,14.16 3122.04,30.8 4683.08,45.48 2638.69,23.51 5277.17,41.91 7915.93,56.22 114.1,-3.24 228.19,-6.49 342.29,-9.73 -2752.86,-16.93 -5505.43,-46.89 -8258.1,-65.86 -2502.15,-17.25 -5004.43,-57.57 -7506.93,-73.32 -67.49,6.12 -134.98,12.24 -202.47,18.38 -1825.67,-4.16 -3649.1,0.2 -5474.7,20.36 -1829.55,21.53 -3665.78,46.83 -5495.28,41.21 1829.3,7.22 3665.9,-17.65 5495.31,-38.41 1707.36,-17.96 3412.85,-22.13 5120.27,-18.39 2688.19,2.66 5375.78,22.23 8063.87,36.79 2313.23,11.75 4626.27,19.14 6939.53,23.14 -2313.32,-0.15 -4626.37,-9.66 -6939.59,-12.49 -2841.19,-3.48 -5681.78,-29.27 -8523.27,-23.77 2841.38,2.68 5681.9,25.68 8523.16,43.32 4995.55,28.18 9989.83,35.31 14985.41,38.57 -4995.78,4.37 -9989.85,-5.6 -14985.54,-14.79 -4397.3,-20.57 -8785.08,-51.47 -13182.82,3.17 -1023.51,14.14 -2046.99,26.68 -3070.55,37.19 1023.56,-10.59 2047.04,-23.15 3070.55,-37.36 4397.71,-54.95 8785.53,-24.36 13182.82,-4.08 4265.85,17.37 8530.7,18.93 12796.55,15.71 -4266.01,2.27 -8530.65,-10.76 -12796.53,-19.43 -4397.33,-21.6 -8785.17,-53.4 -13182.94,0.28 -884.5,12.06 -1768.98,22.93 -2653.52,32.38 884.54,-9.18 1769.02,-19.87 2653.53,-31.67 4397.78,-52.24 8785.59,-18.93 13182.9,4.17 3792.81,17.87 7584.86,23.56 11377.69,23.93 -3792.97,-0.01 -7584.86,-15.01 -11377.69,-23.81 -4397.32,-23.05 -8785.11,-56.29 -13182.9,-4.04 -592.4,2.5 -1187.1,15.42 -1779.78,22.19 427.11,-17.3 854.22,-34.65 1281.32,-52.41 -595.78,19.25 -1191.57,37.78 -1787.39,56.18"/>
    <path class="fil0 str0" d="M11705.03 49.23c-1960.73,-6.1 -3918.84,-3.01 -5879.52,18.23 -1081.45,12.73 -2162.84,23.87 -3244.33,32.3 1081.52,-6.46 2162.92,-15.83 3244.4,-26.72 1859.35,-16.25 3716.47,-16.18 5575.84,-7.33 -1859.37,-6.51 -3716.4,-4.28 -5575.74,14.25 -1081.47,12 -2162.88,22.36 -3244.41,29.98 1081.51,-9.16 2162.9,-20.89 3244.35,-34.3 1842.46,-21.4 3682.66,-26.78 5525.19,-23.56"/>
    <path class="fil0 str0" d="M32578.41 106.32c-4523.47,5.93 -9045.44,-2.74 -13568.77,-9.02 -173.93,-0.24 -347.85,-0.55 -521.77,-0.92l521.76 2.15c4523.3,15.99 9045.49,13.91 13568.78,7.79zm-14090.54 -9.94c-1958.3,-4.16 -3915.66,-15.76 -5873.13,-20.65 1957.44,2.74 3914.72,12.42 5873.13,20.65zm-5873.13 -20.65c-1906.44,-4.78 -3812.97,-3.19 -5720.66,17.82 134.57,-0.72 269.13,-1.36 403.7,-1.91 1773.07,-15.17 3545.07,-18.39 5316.96,-15.91z"/>
    <path class="fil0 str0" d="M21818.6 151.21c-204.82,-0.51 -409.62,-1.18 -614.44,-1.92 204.81,0.67 409.62,1.31 614.44,1.92zm-614.44 -1.92c-551.12,-1.99 -1102.25,-4.52 -1653.36,-6.14 551.13,2.28 1102.23,4.33 1653.36,6.14zm-1653.36 -6.14c-180.47,-0.53 -360.94,-0.96 -541.41,-1.24 -4397.27,-19.21 -8785.09,-48.75 -13182.77,7.25 -1929.93,26.72 -3890.32,68.86 -5819.02,53.23 5.82,-2.79 11.65,-5.51 17.52,-8.18 1923.77,15.29 3876.55,-25.15 5801.43,-51.23 4397.75,-54.31 8785.55,-23.06 13182.86,-2.15l541.4 2.32z"/>
   </g>
  </g>
  <path class="fil1" d="M34475.75 131.76c-5515.87,0 -10135.26,-0.43 -15466.14,-28.85 -4256.88,-22.69 -8779.93,-67.24 -13183.73,-9.17 -2462.85,32.48 -5180.81,57.6 -5821.54,45.92"/>
 </g>
</svg>
