<?xml version="1.0" encoding="UTF-8"?>
<!DOCTYPE svg PUBLIC "-//W3C//DTD SVG 1.1//EN" "http://www.w3.org/Graphics/SVG/1.1/DTD/svg11.dtd">
<!-- Creator: CorelDRAW 2018 (64-Bit) -->
<svg xmlns="http://www.w3.org/2000/svg" xml:space="preserve" width="5.7826mm" height="5.7676mm" version="1.1" style="shape-rendering:geometricPrecision; text-rendering:geometricPrecision; image-rendering:optimizeQuality; fill-rule:evenodd; clip-rule:evenodd"
viewBox="0 0 32.35 32.26"
 xmlns:xlink="http://www.w3.org/1999/xlink">
 <defs>
  <style type="text/css">
   <![CDATA[
    .fil0 {fill:#98D2F0}
    .fil1 {fill:#98D2F0;fill-rule:nonzero}
   ]]>
  </style>
 </defs>
 <g id="Layer_x0020_1">
  <metadata id="CorelCorpID_0Corel-Layer"/>
  <g id="_2669306883984">
   <path class="fil0" d="M15.31 1.38l0.35 3.86c0.03,0.34 0.24,0.62 0.55,0.74l3.77 1.45c0.3,0.11 0.49,0.36 0.55,0.68 0.05,0.32 -0.06,0.62 -0.3,0.82l-2.67 2.25c-0.29,0.25 -0.39,0.64 -0.25,1l1.31 3.42c0.12,0.31 0.07,0.63 -0.14,0.89 -0.21,0.25 -0.51,0.36 -0.83,0.3l-3.76 -0.79c-0.35,-0.07 -0.7,0.07 -0.89,0.38l-1.95 3.03c-0.17,0.26 -0.43,0.4 -0.74,0.4 -0.3,-0.01 -0.56,-0.16 -0.72,-0.43l-2.07 -3.51c-0.17,-0.29 -0.46,-0.44 -0.79,-0.42l-4 0.23c-0.3,0.02 -0.57,-0.11 -0.75,-0.37 -0.18,-0.25 -0.21,-0.56 -0.1,-0.85l1.35 -3.36c0.14,-0.34 0.06,-0.71 -0.2,-0.97l-2.76 -2.73c-0.23,-0.23 -0.32,-0.55 -0.23,-0.87 0.09,-0.32 0.32,-0.55 0.64,-0.62l3.5 -0.82c0.37,-0.09 0.63,-0.39 0.67,-0.78l0.31 -3.52c0.03,-0.32 0.21,-0.58 0.5,-0.72 0.29,-0.14 0.6,-0.11 0.86,0.08l3.3 2.36c0.28,0.2 0.62,0.22 0.91,0.05l3.32 -1.88c0.26,-0.15 0.55,-0.15 0.82,-0.01 0.27,0.14 0.43,0.39 0.46,0.7z"/>
   <g>
    <path class="fil1" d="M7.23 29.41l0 2.12 -1.54 0 0 -2.12 0.77 -0.73 0.77 0.73zm-1.54 0l0 -0.73 0.77 0 -0.77 0.73zm1.15 -1.09l1.54 0 0 0 -0 0.09 -0.01 0.09 -0.01 0.09 -0.02 0.09 -0.02 0.09 -0.03 0.09 -0.03 0.09 -0.03 0.08 -0.04 0.08 -0.04 0.08 -0.05 0.08 -0.05 0.08 -0.05 0.07 -0.06 0.07 -0.06 0.07 -0.06 0.06 -0.07 0.06 -0.07 0.06 -0.07 0.05 -0.08 0.05 -0.08 0.05 -0.08 0.05 -0.08 0.04 -0.08 0.04 -0.09 0.03 -0.09 0.03 -0.09 0.02 -0.09 0.02 -0.09 0.02 -0.1 0.01 -0.1 0.01 -0.1 0 0 -1.46 0.02 -0 0.02 -0 0.02 -0 0.02 -0 0.02 -0 0.02 -0 0.02 -0.01 0.02 -0.01 0.02 -0.01 0.02 -0.01 0.01 -0.01 0.02 -0.01 0.02 -0.01 0.01 -0.01 0.01 -0.01 0.01 -0.01 0.02 -0.02 0.01 -0.01 0.01 -0.01 0.01 -0.02 0.01 -0.01 0.01 -0.01 0.01 -0.02 0.01 -0.02 0.01 -0.02 0.01 -0.02 0 -0.02 0.01 -0.02 0 -0.02 0 -0.02 0 -0.02 0 -0.02 0 0zm-1.15 -1.09l1.54 0 -0.77 -0.73 0.1 0 0.09 0.01 0.1 0.01 0.09 0.02 0.09 0.02 0.09 0.03 0.09 0.03 0.09 0.03 0.09 0.04 0.08 0.04 0.08 0.04 0.08 0.05 0.08 0.05 0.07 0.05 0.07 0.06 0.07 0.06 0.06 0.06 0.06 0.07 0.06 0.07 0.05 0.07 0.05 0.07 0.05 0.08 0.04 0.07 0.04 0.08 0.03 0.08 0.03 0.08 0.03 0.09 0.02 0.09 0.02 0.09 0.01 0.09 0.01 0.09 0 0.09 -1.54 0 -0 -0.02 -0 -0.02 -0 -0.02 -0 -0.02 -0 -0.02 -0 -0.01 -0.01 -0.02 -0.01 -0.02 -0.01 -0.01 -0.01 -0.02 -0.01 -0.01 -0.01 -0.01 -0.01 -0.02 -0.01 -0.01 -0.01 -0.01 -0.02 -0.02 -0.01 -0.01 -0.01 -0.01 -0.02 -0.01 -0.01 -0.01 -0.01 -0.01 -0.02 -0.01 -0.02 -0.01 -0.02 -0.01 -0.01 -0.01 -0.02 -0.01 -0.02 -0.01 -0.02 -0 -0.02 -0 -0.01 -0 -0.02 -0 -0.02 -0 -0.77 -0.73zm0.77 0.73l-0.77 0 0 -0.73 0.77 0.73zm0.77 -2.91l0 2.18 -1.54 0 0 -2.18 0.77 -0.73 0.77 0.73zm-1.54 0l0 -0.73 0.77 0 -0.77 0.73zm1.15 -1.09l1.54 0 0 0 -0 0.09 -0.01 0.09 -0.01 0.09 -0.02 0.09 -0.02 0.09 -0.03 0.09 -0.03 0.08 -0.03 0.08 -0.04 0.08 -0.04 0.07 -0.05 0.08 -0.05 0.07 -0.05 0.07 -0.06 0.07 -0.06 0.07 -0.06 0.06 -0.07 0.06 -0.07 0.06 -0.07 0.05 -0.08 0.05 -0.08 0.05 -0.08 0.04 -0.08 0.04 -0.09 0.04 -0.09 0.03 -0.09 0.03 -0.09 0.03 -0.09 0.02 -0.09 0.02 -0.1 0.01 -0.09 0.01 -0.1 0 0 -1.46 0.02 -0 0.02 -0 0.01 -0 0.02 -0 0.02 -0 0.02 -0.01 0.02 -0.01 0.01 -0.01 0.02 -0.01 0.02 -0.01 0.02 -0.01 0.01 -0.01 0.01 -0.01 0.02 -0.01 0.01 -0.01 0.01 -0.01 0.02 -0.02 0.01 -0.01 0.01 -0.01 0.01 -0.02 0.01 -0.01 0.01 -0.01 0.01 -0.02 0.01 -0.01 0.01 -0.02 0.01 -0.02 0 -0.01 0 -0.02 0 -0.02 0 -0.02 0 -0.02 0 -0.02 0 0zm-1.15 -1.09l1.54 0 -0.77 -0.73 0.1 0 0.09 0.01 0.1 0.01 0.09 0.02 0.09 0.02 0.09 0.03 0.09 0.03 0.09 0.03 0.09 0.04 0.08 0.04 0.08 0.04 0.08 0.05 0.08 0.05 0.07 0.05 0.07 0.06 0.07 0.06 0.06 0.06 0.06 0.07 0.06 0.07 0.05 0.07 0.05 0.07 0.05 0.08 0.04 0.08 0.04 0.08 0.03 0.08 0.03 0.09 0.03 0.09 0.02 0.09 0.02 0.09 0.01 0.09 0.01 0.09 0 0.09 -1.54 0 -0 -0.02 -0 -0.02 -0 -0.02 -0 -0.02 -0.01 -0.02 -0 -0.02 -0.01 -0.02 -0.01 -0.02 -0.01 -0.02 -0.01 -0.02 -0.01 -0.01 -0.01 -0.02 -0.01 -0.01 -0.01 -0.01 -0.01 -0.01 -0.01 -0.01 -0.01 -0.01 -0.01 -0.01 -0.02 -0.01 -0.01 -0.01 -0.01 -0.01 -0.02 -0.01 -0.02 -0.01 -0.02 -0.01 -0.01 -0.01 -0.02 -0.01 -0.02 -0.01 -0.02 -0 -0.02 -0 -0.01 -0 -0.02 -0 -0.02 -0 -0.77 -0.73zm0.77 0.73l-0.77 0 0 -0.73 0.77 0.73zm0.77 -2.92l0 2.18 -1.54 0 0 -2.18 0.77 -0.73 0.77 0.73zm-1.54 0l0 -0.73 0.77 0 -0.77 0.73zm1.15 -1.09l1.54 0 0 0 -0 0.09 -0.01 0.09 -0.01 0.09 -0.02 0.09 -0.02 0.09 -0.03 0.09 -0.03 0.08 -0.03 0.08 -0.04 0.08 -0.04 0.07 -0.05 0.08 -0.05 0.07 -0.05 0.07 -0.06 0.07 -0.06 0.06 -0.06 0.06 -0.07 0.06 -0.07 0.06 -0.07 0.06 -0.08 0.05 -0.08 0.05 -0.08 0.05 -0.08 0.04 -0.08 0.04 -0.09 0.03 -0.09 0.03 -0.09 0.03 -0.09 0.02 -0.09 0.02 -0.1 0.01 -0.09 0.01 -0.1 0 0 -1.46 0.02 -0 0.02 -0 0.01 -0 0.02 -0 0.02 -0 0.02 -0.01 0.02 -0.01 0.01 -0.01 0.02 -0.01 0.02 -0.01 0.01 -0.01 0.02 -0.01 0.02 -0.01 0.01 -0.01 0.02 -0.01 0.01 -0.01 0.01 -0.01 0.01 -0.02 0.01 -0.01 0.01 -0.01 0.01 -0.01 0.01 -0.01 0.01 -0.02 0.01 -0.01 0.01 -0.02 0.01 -0.02 0 -0.01 0 -0.02 0 -0.02 0 -0.02 0 -0.02 0 -0.02 0 0zm-1.15 -1.09l1.54 0 -0.77 -0.73 0.1 0 0.09 0.01 0.1 0.01 0.09 0.02 0.09 0.02 0.09 0.03 0.09 0.03 0.09 0.03 0.09 0.04 0.08 0.04 0.08 0.04 0.08 0.05 0.08 0.05 0.07 0.05 0.07 0.06 0.07 0.06 0.06 0.06 0.06 0.07 0.06 0.07 0.05 0.07 0.05 0.07 0.05 0.08 0.04 0.07 0.04 0.08 0.03 0.08 0.03 0.08 0.03 0.09 0.02 0.09 0.02 0.09 0.01 0.09 0.01 0.09 0 0.09 -1.54 0 -0 -0.02 -0 -0.02 -0 -0.02 -0 -0.02 -0 -0.02 -0 -0.01 -0.01 -0.02 -0.01 -0.02 -0.01 -0.01 -0.01 -0.02 -0.01 -0.01 -0.01 -0.01 -0.01 -0.02 -0.01 -0.01 -0.01 -0.01 -0.02 -0.02 -0.01 -0.01 -0.01 -0.01 -0.02 -0.01 -0.01 -0.01 -0.01 -0.01 -0.02 -0.01 -0.02 -0.01 -0.02 -0.01 -0.01 -0.01 -0.02 -0.01 -0.02 -0.01 -0.02 -0 -0.02 -0 -0.01 -0 -0.02 -0 -0.02 -0 -0.77 -0.73zm0.77 0.73l-0.77 0 0 -0.73 0.77 0.73zm0.77 -2.91l0 2.18 -1.54 0 0 -2.18 0.77 -0.73 0.77 0.73zm-1.54 0l0 -0.73 0.77 0 -0.77 0.73zm1.15 -1.09l1.54 0 0 0 -0 0.09 -0.01 0.09 -0.01 0.09 -0.02 0.09 -0.02 0.09 -0.03 0.09 -0.03 0.08 -0.03 0.08 -0.04 0.08 -0.04 0.07 -0.05 0.08 -0.05 0.07 -0.05 0.07 -0.06 0.07 -0.06 0.07 -0.06 0.06 -0.07 0.06 -0.07 0.06 -0.07 0.05 -0.08 0.05 -0.08 0.05 -0.08 0.04 -0.08 0.04 -0.09 0.04 -0.09 0.03 -0.09 0.03 -0.09 0.03 -0.09 0.02 -0.09 0.02 -0.1 0.01 -0.09 0.01 -0.1 0 0 -1.46 0.02 -0 0.02 -0 0.01 -0 0.02 -0 0.02 -0 0.02 -0.01 0.02 -0.01 0.01 -0.01 0.02 -0.01 0.02 -0.01 0.02 -0.01 0.01 -0.01 0.01 -0.01 0.02 -0.01 0.01 -0.01 0.01 -0.01 0.02 -0.02 0.01 -0.01 0.01 -0.01 0.01 -0.02 0.01 -0.01 0.01 -0.01 0.01 -0.02 0.01 -0.01 0.01 -0.02 0.01 -0.02 0 -0.01 0 -0.02 0 -0.02 0 -0.02 0 -0.02 0 -0.02 0 0zm-1.15 -1.09l1.54 0 -0.77 -0.73 0.1 0 0.09 0.01 0.1 0.01 0.09 0.02 0.09 0.02 0.09 0.03 0.09 0.03 0.09 0.03 0.09 0.04 0.08 0.04 0.08 0.04 0.08 0.05 0.08 0.05 0.07 0.05 0.07 0.06 0.07 0.06 0.06 0.06 0.06 0.07 0.06 0.07 0.05 0.07 0.05 0.07 0.05 0.08 0.04 0.08 0.04 0.08 0.03 0.08 0.03 0.09 0.03 0.09 0.02 0.09 0.02 0.09 0.01 0.09 0.01 0.09 0 0.09 -1.54 0 -0 -0.02 -0 -0.02 -0 -0.02 -0 -0.02 -0.01 -0.02 -0 -0.02 -0.01 -0.02 -0.01 -0.02 -0.01 -0.02 -0.01 -0.02 -0.01 -0.01 -0.01 -0.02 -0.01 -0.01 -0.01 -0.01 -0.01 -0.01 -0.01 -0.01 -0.01 -0.01 -0.01 -0.01 -0.02 -0.01 -0.01 -0.01 -0.01 -0.01 -0.02 -0.01 -0.02 -0.01 -0.02 -0.01 -0.01 -0.01 -0.02 -0.01 -0.02 -0.01 -0.02 -0 -0.02 -0 -0.01 -0 -0.02 -0 -0.02 -0 -0.77 -0.73zm0.77 0.73l-0.77 0 0 -0.73 0.77 0.73zm0.77 -2.91l0 2.18 -1.54 0 0 -2.18 0.77 -0.73 0.77 0.73zm-1.54 0l0 -0.73 0.77 0 -0.77 0.73zm1.15 -1.09l1.54 0 0 0 -0 0.09 -0.01 0.09 -0.01 0.09 -0.02 0.09 -0.02 0.09 -0.03 0.09 -0.03 0.08 -0.03 0.08 -0.04 0.08 -0.04 0.07 -0.05 0.08 -0.05 0.07 -0.05 0.07 -0.06 0.07 -0.06 0.07 -0.06 0.06 -0.07 0.06 -0.07 0.06 -0.07 0.05 -0.08 0.05 -0.08 0.05 -0.08 0.04 -0.08 0.04 -0.09 0.04 -0.09 0.03 -0.09 0.03 -0.09 0.03 -0.09 0.02 -0.09 0.02 -0.1 0.01 -0.09 0.01 -0.1 0 0 -1.46 0.02 -0 0.02 -0 0.01 -0 0.02 -0 0.02 -0 0.02 -0.01 0.02 -0.01 0.01 -0.01 0.02 -0.01 0.02 -0.01 0.02 -0.01 0.01 -0.01 0.01 -0.01 0.02 -0.01 0.01 -0.01 0.01 -0.01 0.02 -0.02 0.01 -0.01 0.01 -0.01 0.01 -0.02 0.01 -0.01 0.01 -0.01 0.01 -0.02 0.01 -0.01 0.01 -0.02 0.01 -0.02 0 -0.01 0 -0.02 0 -0.02 0 -0.02 0 -0.02 0 -0.02 0 0zm-1.15 -1.09l1.54 0 -0.77 -0.73 0.1 0 0.09 0.01 0.1 0.01 0.09 0.02 0.09 0.02 0.09 0.03 0.09 0.03 0.09 0.03 0.08 0.04 0.08 0.04 0.08 0.05 0.08 0.05 0.08 0.05 0.07 0.06 0.07 0.06 0.07 0.06 0.06 0.06 0.06 0.06 0.06 0.07 0.05 0.07 0.05 0.07 0.05 0.08 0.04 0.07 0.04 0.08 0.03 0.08 0.03 0.08 0.03 0.09 0.02 0.09 0.02 0.09 0.01 0.09 0.01 0.09 0 0.09 -1.54 0 -0 -0.02 -0 -0.02 -0 -0.02 -0 -0.02 -0 -0.02 -0 -0.01 -0.01 -0.02 -0.01 -0.02 -0.01 -0.01 -0.01 -0.02 -0.01 -0.01 -0.01 -0.01 -0.01 -0.01 -0.01 -0.01 -0.01 -0.02 -0.01 -0.01 -0.01 -0.01 -0.02 -0.01 -0.01 -0.01 -0.02 -0.01 -0.02 -0.01 -0.01 -0.01 -0.02 -0.01 -0.02 -0.01 -0.01 -0.01 -0.02 -0.01 -0.02 -0.01 -0.02 -0 -0.02 -0 -0.01 -0 -0.02 -0 -0.02 -0 -0.77 -0.73zm0.77 0.73l-0.77 0 0 -0.73 0.77 0.73zm0.77 -2.92l0 2.18 -1.54 0 0 -2.18 0.77 -0.73 0.77 0.73zm-1.54 0l0 -0.73 0.77 0 -0.77 0.73zm1.15 -1.09l1.54 0 0 0 -0 0.09 -0.01 0.09 -0.01 0.09 -0.02 0.09 -0.02 0.09 -0.03 0.09 -0.03 0.08 -0.03 0.08 -0.04 0.08 -0.04 0.07 -0.05 0.08 -0.05 0.07 -0.05 0.07 -0.06 0.07 -0.06 0.06 -0.06 0.06 -0.07 0.06 -0.07 0.06 -0.07 0.06 -0.08 0.05 -0.08 0.05 -0.08 0.05 -0.08 0.04 -0.08 0.04 -0.09 0.03 -0.09 0.03 -0.09 0.03 -0.09 0.02 -0.09 0.02 -0.1 0.01 -0.09 0.01 -0.1 0 0 -1.46 0.02 -0 0.02 -0 0.01 -0 0.02 -0 0.02 -0 0.02 -0.01 0.02 -0.01 0.01 -0.01 0.02 -0.01 0.02 -0.01 0.01 -0.01 0.02 -0.01 0.02 -0.01 0.01 -0.01 0.02 -0.01 0.01 -0.01 0.01 -0.01 0.01 -0.02 0.01 -0.01 0.01 -0.01 0.01 -0.01 0.01 -0.01 0.01 -0.02 0.01 -0.01 0.01 -0.02 0.01 -0.02 0 -0.01 0 -0.02 0 -0.02 0 -0.02 0 -0.02 0 -0.02 0 0zm-1.15 -1.09l1.54 -0.01 -0.77 -0.73 0.1 0 0.09 0.01 0.1 0.01 0.09 0.02 0.09 0.02 0.09 0.03 0.09 0.03 0.09 0.03 0.09 0.04 0.08 0.04 0.08 0.04 0.08 0.05 0.08 0.05 0.07 0.05 0.07 0.06 0.07 0.06 0.06 0.06 0.06 0.07 0.06 0.07 0.05 0.07 0.05 0.07 0.05 0.08 0.04 0.07 0.04 0.08 0.03 0.08 0.03 0.08 0.03 0.09 0.02 0.09 0.02 0.09 0.01 0.09 0.01 0.09 0 0.09 -1.54 0 -0 -0.02 -0 -0.02 -0 -0.02 -0 -0.02 -0 -0.02 -0 -0.01 -0.01 -0.02 -0.01 -0.02 -0.01 -0.01 -0.01 -0.02 -0.01 -0.01 -0.01 -0.01 -0.01 -0.02 -0.01 -0.01 -0.01 -0.01 -0.02 -0.02 -0.01 -0.01 -0.01 -0.01 -0.02 -0.01 -0.01 -0.01 -0.01 -0.01 -0.02 -0.01 -0.02 -0.01 -0.02 -0.01 -0.01 -0.01 -0.02 -0.01 -0.02 -0.01 -0.02 -0 -0.02 -0 -0.01 -0 -0.02 -0 -0.02 -0 -0.77 -0.73zm0.77 0.73l-0.77 0 -0 -0.73 0.77 0.73zm0.76 -2.76l0.01 2.03 -1.54 0.01 -0.01 -2.03 0.77 -0.73 0.77 0.73zm-1.54 0.01l-0 -0.73 0.77 0 -0.77 0.73zm2.84 0.73l-2.07 0 0 -1.46 2.07 0 0.77 0.73 -0.77 0.73zm0 -1.46l0.77 0 0 0.73 -0.77 -0.73zm1.15 1.09l0 1.46 0 0 -0.1 -0 -0.09 -0.01 -0.1 -0.01 -0.09 -0.02 -0.09 -0.02 -0.09 -0.03 -0.09 -0.03 -0.09 -0.03 -0.09 -0.04 -0.08 -0.04 -0.08 -0.04 -0.08 -0.05 -0.08 -0.05 -0.07 -0.05 -0.07 -0.06 -0.07 -0.06 -0.06 -0.06 -0.06 -0.07 -0.06 -0.07 -0.05 -0.07 -0.05 -0.07 -0.05 -0.08 -0.04 -0.08 -0.04 -0.08 -0.03 -0.08 -0.03 -0.09 -0.03 -0.09 -0.02 -0.09 -0.02 -0.09 -0.01 -0.09 -0.01 -0.09 -0 -0.09 1.54 0 0 0.02 0 0.02 0 0.02 0 0.02 0.01 0.02 0 0.02 0.01 0.02 0.01 0.02 0.01 0.02 0.01 0.02 0.01 0.01 0.01 0.02 0.01 0.01 0.01 0.01 0.01 0.01 0.01 0.01 0.01 0.01 0.01 0.01 0.02 0.01 0.01 0.01 0.01 0.01 0.02 0.01 0.02 0.01 0.02 0.01 0.02 0.01 0.02 0.01 0.02 0.01 0.02 0 0.02 0 0.01 0 0.02 0 0.02 0 0 0zm1.15 -1.09l0 1.46 0.77 -0.73 -0 0.09 -0.01 0.09 -0.01 0.09 -0.02 0.09 -0.02 0.09 -0.03 0.09 -0.03 0.09 -0.03 0.08 -0.04 0.08 -0.04 0.08 -0.05 0.08 -0.05 0.07 -0.05 0.07 -0.06 0.07 -0.06 0.07 -0.06 0.06 -0.07 0.06 -0.07 0.06 -0.07 0.05 -0.08 0.05 -0.08 0.05 -0.08 0.04 -0.08 0.04 -0.09 0.04 -0.09 0.03 -0.09 0.03 -0.09 0.03 -0.09 0.02 -0.09 0.02 -0.1 0.01 -0.09 0.01 -0.1 0 0 -1.46 0.02 -0 0.02 -0 0.01 -0 0.02 -0 0.02 -0 0.02 -0.01 0.02 -0.01 0.02 -0.01 0.02 -0.01 0.02 -0.01 0.02 -0.01 0.01 -0.01 0.01 -0.01 0.02 -0.01 0.01 -0.01 0.01 -0.01 0.01 -0.01 0.01 -0.01 0.01 -0.01 0.01 -0.01 0.01 -0.02 0.01 -0.01 0.01 -0.02 0.01 -0.02 0.01 -0.02 0.01 -0.02 0 -0.02 0.01 -0.02 0 -0.02 0 -0.02 0 -0.02 0 -0.02 0.77 -0.73zm-0.77 0.73l0 -0.73 0.77 0 -0.77 0.73zm3.07 0.73l-2.3 0 0 -1.46 2.3 0 0.77 0.73 -0.77 0.73zm0 -1.46l0.77 0 0 0.73 -0.77 -0.73zm1.15 1.09l0 1.46 0 0 -0.1 -0 -0.09 -0.01 -0.1 -0.01 -0.09 -0.02 -0.09 -0.02 -0.09 -0.03 -0.09 -0.03 -0.09 -0.03 -0.09 -0.04 -0.08 -0.04 -0.08 -0.04 -0.08 -0.05 -0.08 -0.05 -0.07 -0.05 -0.07 -0.06 -0.07 -0.06 -0.06 -0.06 -0.06 -0.07 -0.06 -0.07 -0.05 -0.07 -0.05 -0.07 -0.05 -0.08 -0.04 -0.08 -0.04 -0.08 -0.03 -0.08 -0.03 -0.09 -0.03 -0.09 -0.02 -0.09 -0.02 -0.09 -0.01 -0.09 -0.01 -0.09 -0 -0.09 1.54 0 0 0.02 0 0.02 0 0.02 0 0.02 0.01 0.02 0 0.02 0.01 0.02 0.01 0.02 0.01 0.02 0.01 0.02 0.01 0.01 0.01 0.02 0.01 0.01 0.01 0.01 0.01 0.01 0.01 0.01 0.01 0.01 0.01 0.01 0.02 0.01 0.01 0.01 0.01 0.01 0.02 0.01 0.02 0.01 0.02 0.01 0.02 0.01 0.02 0.01 0.02 0.01 0.02 0 0.02 0 0.01 0 0.02 0 0.02 0 0 0zm1.15 -1.09l0 1.46 0.77 -0.73 -0 0.09 -0.01 0.09 -0.01 0.09 -0.02 0.09 -0.02 0.09 -0.03 0.09 -0.03 0.09 -0.03 0.08 -0.04 0.08 -0.04 0.08 -0.05 0.08 -0.05 0.07 -0.05 0.07 -0.06 0.07 -0.06 0.07 -0.06 0.06 -0.07 0.06 -0.07 0.06 -0.07 0.05 -0.08 0.05 -0.08 0.05 -0.08 0.04 -0.08 0.04 -0.09 0.04 -0.09 0.03 -0.09 0.03 -0.09 0.03 -0.09 0.02 -0.09 0.02 -0.1 0.01 -0.09 0.01 -0.1 0 0 -1.46 0.02 -0 0.02 -0 0.01 -0 0.02 -0 0.02 -0 0.02 -0.01 0.02 -0.01 0.01 -0.01 0.02 -0.01 0.02 -0.01 0.02 -0.01 0.01 -0.01 0.01 -0.01 0.02 -0.01 0.01 -0.01 0.01 -0.01 0.01 -0.01 0.01 -0.01 0.01 -0.01 0.01 -0.01 0.01 -0.02 0.01 -0.01 0.01 -0.02 0.01 -0.02 0.01 -0.02 0.01 -0.02 0 -0.02 0.01 -0.02 0 -0.02 0 -0.02 0 -0.02 0 -0.02 0.77 -0.73zm-0.77 0.73l0 -0.73 0.77 0 -0.77 0.73zm3.07 0.73l-2.3 0 0 -1.46 2.3 0 0.77 0.73 -0.77 0.73zm0 -1.46l0.77 0 0 0.73 -0.77 -0.73zm1.15 1.09l0 1.46 0 0 -0.1 -0 -0.09 -0.01 -0.1 -0.01 -0.09 -0.02 -0.09 -0.02 -0.09 -0.03 -0.09 -0.03 -0.09 -0.03 -0.09 -0.04 -0.08 -0.04 -0.07 -0.04 -0.08 -0.05 -0.08 -0.05 -0.07 -0.05 -0.07 -0.06 -0.07 -0.06 -0.07 -0.06 -0.06 -0.07 -0.05 -0.07 -0.05 -0.07 -0.05 -0.07 -0.05 -0.07 -0.04 -0.08 -0.04 -0.09 -0.03 -0.08 -0.03 -0.09 -0.03 -0.09 -0.02 -0.09 -0.02 -0.09 -0.01 -0.09 -0.01 -0.09 -0 -0.09 1.54 0 0 0.02 0 0.02 0 0.02 0 0.02 0.01 0.02 0 0.02 0.01 0.02 0.01 0.02 0.01 0.01 0.01 0.01 0.01 0.02 0.01 0.02 0.01 0.01 0.01 0.02 0.01 0.01 0.01 0.01 0.02 0.01 0.01 0.01 0.02 0.01 0.01 0.01 0.01 0.01 0.02 0.01 0.02 0.01 0.01 0.01 0.02 0.01 0.02 0.01 0.02 0 0.02 0 0.02 0 0.01 0 0.02 0 0.02 0 0 0zm1.15 -1.09l0 1.46 0.77 -0.73 -0 0.09 -0.01 0.09 -0.01 0.09 -0.02 0.09 -0.02 0.09 -0.03 0.09 -0.03 0.09 -0.03 0.08 -0.04 0.08 -0.04 0.08 -0.05 0.08 -0.05 0.07 -0.05 0.07 -0.06 0.07 -0.06 0.07 -0.06 0.06 -0.07 0.06 -0.07 0.06 -0.07 0.05 -0.08 0.05 -0.08 0.05 -0.08 0.04 -0.08 0.04 -0.09 0.04 -0.09 0.03 -0.09 0.03 -0.09 0.03 -0.09 0.02 -0.09 0.02 -0.1 0.01 -0.09 0.01 -0.1 0 0 -1.46 0.02 -0 0.02 -0 0.01 -0 0.02 -0 0.02 -0 0.02 -0.01 0.02 -0.01 0.02 -0.01 0.02 -0.01 0.02 -0.01 0.02 -0.01 0.01 -0.01 0.01 -0.01 0.02 -0.01 0.01 -0.01 0.01 -0.01 0.01 -0.01 0.01 -0.01 0.01 -0.01 0.01 -0.01 0.01 -0.02 0.01 -0.01 0.01 -0.02 0.01 -0.02 0.01 -0.02 0.01 -0.02 0 -0.02 0.01 -0.02 0 -0.02 0 -0.02 0 -0.02 0 -0.02 0.77 -0.73zm-0.77 0.73l0 -0.73 0.77 0 -0.77 0.73zm3.07 0.73l-2.3 0 0 -1.46 2.3 0 0.77 0.73 -0.77 0.73zm0 -1.46l0.77 0 0 0.73 -0.77 -0.73zm1.15 1.09l0 1.46 0 0 -0.1 -0 -0.09 -0.01 -0.1 -0.01 -0.09 -0.02 -0.09 -0.02 -0.09 -0.03 -0.09 -0.03 -0.09 -0.03 -0.09 -0.04 -0.08 -0.04 -0.08 -0.04 -0.08 -0.05 -0.08 -0.05 -0.07 -0.05 -0.07 -0.06 -0.07 -0.06 -0.06 -0.06 -0.06 -0.07 -0.06 -0.07 -0.05 -0.07 -0.05 -0.07 -0.05 -0.08 -0.04 -0.08 -0.04 -0.08 -0.03 -0.08 -0.03 -0.09 -0.03 -0.09 -0.02 -0.09 -0.02 -0.09 -0.01 -0.09 -0.01 -0.09 -0 -0.09 1.54 0 0 0.02 0 0.02 0 0.02 0 0.02 0.01 0.02 0 0.02 0.01 0.02 0.01 0.02 0.01 0.02 0.01 0.02 0.01 0.01 0.01 0.02 0.01 0.01 0.01 0.01 0.01 0.01 0.01 0.01 0.01 0.01 0.01 0.01 0.02 0.01 0.01 0.01 0.01 0.01 0.02 0.01 0.02 0.01 0.02 0.01 0.01 0.01 0.02 0.01 0.02 0.01 0.02 0 0.02 0 0.01 0 0.02 0 0.02 0 0 0zm1.15 -1.09l0 1.46 0.77 -0.73 -0 0.09 -0.01 0.09 -0.01 0.09 -0.02 0.09 -0.02 0.09 -0.03 0.09 -0.03 0.09 -0.03 0.08 -0.04 0.08 -0.04 0.08 -0.05 0.07 -0.05 0.07 -0.05 0.07 -0.06 0.07 -0.06 0.07 -0.06 0.06 -0.07 0.06 -0.07 0.06 -0.07 0.05 -0.08 0.05 -0.08 0.05 -0.07 0.04 -0.08 0.04 -0.09 0.04 -0.09 0.03 -0.09 0.03 -0.09 0.02 -0.09 0.02 -0.09 0.02 -0.1 0.01 -0.09 0.01 -0.1 0 0 -1.46 0.02 -0 0.02 -0 0.01 -0 0.02 -0 0.02 -0 0.02 -0.01 0.02 -0.01 0.01 -0.01 0.01 -0.01 0.02 -0.01 0.02 -0.01 0.01 -0.01 0.01 -0.01 0.02 -0.01 0.01 -0.01 0.01 -0.01 0.01 -0.01 0.01 -0.01 0.01 -0.01 0.01 -0.01 0.01 -0.02 0.01 -0.02 0.01 -0.01 0.01 -0.02 0.01 -0.02 0 -0.01 0 -0.02 0.01 -0.02 0 -0.02 0 -0.02 0 -0.02 0 -0.02 0.77 -0.73zm-0.77 0.73l0 -0.73 0.77 0 -0.77 0.73zm3.07 0.73l-2.3 0 0 -1.46 2.3 0 0.77 0.73 -0.77 0.73zm0 -1.46l0.77 0 0 0.73 -0.77 -0.73zm1.15 1.09l0 1.46 0 0 -0.1 -0 -0.09 -0.01 -0.1 -0.01 -0.09 -0.02 -0.09 -0.02 -0.09 -0.03 -0.09 -0.03 -0.09 -0.03 -0.09 -0.04 -0.08 -0.04 -0.08 -0.04 -0.08 -0.05 -0.08 -0.05 -0.07 -0.05 -0.07 -0.06 -0.07 -0.06 -0.06 -0.06 -0.06 -0.07 -0.06 -0.07 -0.05 -0.07 -0.05 -0.07 -0.05 -0.08 -0.04 -0.08 -0.04 -0.08 -0.03 -0.08 -0.03 -0.09 -0.03 -0.09 -0.02 -0.09 -0.02 -0.09 -0.01 -0.09 -0.01 -0.09 -0 -0.09 1.54 0 0 0.02 0 0.02 0 0.02 0 0.02 0.01 0.02 0 0.02 0.01 0.02 0.01 0.02 0.01 0.02 0.01 0.02 0.01 0.01 0.01 0.02 0.01 0.01 0.01 0.01 0.01 0.01 0.01 0.01 0.01 0.01 0.01 0.01 0.02 0.01 0.01 0.01 0.01 0.01 0.02 0.01 0.02 0.01 0.02 0.01 0.02 0.01 0.02 0.01 0.02 0.01 0.02 0 0.02 0 0.01 0 0.02 0 0.02 0 0 0zm1.14 -1.09l0.01 1.46 0.76 -0.73 -0 0.09 -0.01 0.09 -0.01 0.09 -0.02 0.09 -0.02 0.09 -0.03 0.09 -0.03 0.09 -0.03 0.08 -0.04 0.09 -0.04 0.08 -0.05 0.07 -0.05 0.07 -0.05 0.07 -0.05 0.07 -0.06 0.07 -0.07 0.06 -0.07 0.06 -0.07 0.06 -0.07 0.05 -0.08 0.05 -0.08 0.05 -0.07 0.04 -0.08 0.04 -0.09 0.04 -0.09 0.03 -0.09 0.03 -0.09 0.03 -0.09 0.02 -0.09 0.02 -0.1 0.01 -0.09 0.01 -0.1 0 0 -1.46 0.02 -0 0.02 -0 0.01 -0 0.02 -0 0.02 -0 0.02 -0 0.02 -0.01 0.02 -0.01 0.01 -0.01 0.02 -0.01 0.02 -0.01 0.01 -0.01 0.01 -0.01 0.02 -0.01 0.01 -0.01 0.02 -0.01 0.01 -0.01 0.01 -0.01 0.01 -0.02 0.01 -0.01 0.01 -0.02 0.01 -0.02 0.01 -0.01 0.01 -0.01 0.01 -0.02 0.01 -0.02 0 -0.02 0.01 -0.02 0 -0.02 0 -0.02 0 -0.02 0 -0.02 0.76 -0.73zm-0.76 0.73l0 -0.73 0.76 -0 -0.76 0.73zm3.14 0.72l-2.36 0.01 -0.01 -1.46 2.36 -0.01 0.77 0.73 -0.76 0.73zm-0.01 -1.46l0.77 -0 0 0.74 -0.77 -0.73zm-0.76 2.67l0 -1.94 1.54 0 0 1.94 -0.77 0.73 -0.77 -0.73zm1.54 0l0 0.73 -0.77 0 0.77 -0.73zm-1.15 1.09l-1.54 0 0 0 0 -0.09 0.01 -0.09 0.01 -0.09 0.02 -0.09 0.02 -0.09 0.03 -0.09 0.03 -0.08 0.03 -0.08 0.04 -0.08 0.04 -0.07 0.05 -0.08 0.05 -0.07 0.05 -0.07 0.06 -0.07 0.06 -0.07 0.06 -0.06 0.07 -0.06 0.07 -0.06 0.07 -0.05 0.08 -0.05 0.08 -0.05 0.08 -0.04 0.08 -0.04 0.09 -0.04 0.09 -0.03 0.09 -0.03 0.09 -0.03 0.09 -0.02 0.09 -0.02 0.1 -0.01 0.09 -0.01 0.1 -0 0 1.46 -0.02 0 -0.02 0 -0.01 0 -0.02 0 -0.02 0 -0.02 0.01 -0.02 0.01 -0.01 0.01 -0.02 0.01 -0.02 0.01 -0.02 0.01 -0.01 0.01 -0.01 0.01 -0.02 0.01 -0.01 0.01 -0.01 0.01 -0.02 0.02 -0.01 0.01 -0.01 0.01 -0.01 0.02 -0.01 0.01 -0.01 0.01 -0.01 0.02 -0.01 0.01 -0.01 0.02 -0.01 0.02 -0 0.01 -0 0.02 -0 0.02 -0 0.02 -0 0.02 -0 0.02 0 0zm1.15 1.09l-1.54 0 0.77 0.73 -0.1 -0 -0.09 -0.01 -0.1 -0.01 -0.09 -0.02 -0.09 -0.02 -0.09 -0.03 -0.09 -0.03 -0.09 -0.03 -0.09 -0.04 -0.08 -0.04 -0.08 -0.04 -0.08 -0.05 -0.08 -0.05 -0.07 -0.05 -0.07 -0.06 -0.07 -0.06 -0.06 -0.06 -0.06 -0.07 -0.06 -0.07 -0.05 -0.07 -0.05 -0.07 -0.05 -0.08 -0.04 -0.08 -0.04 -0.08 -0.03 -0.08 -0.03 -0.09 -0.03 -0.09 -0.02 -0.09 -0.02 -0.09 -0.01 -0.09 -0.01 -0.09 -0 -0.09 1.54 0 0 0.02 0 0.02 0 0.02 0 0.02 0.01 0.02 0 0.02 0.01 0.02 0.01 0.02 0.01 0.02 0.01 0.02 0.01 0.01 0.01 0.02 0.01 0.01 0.01 0.01 0.01 0.01 0.01 0.01 0.01 0.01 0.01 0.01 0.02 0.01 0.01 0.01 0.01 0.01 0.02 0.01 0.02 0.01 0.02 0.01 0.01 0.01 0.02 0.01 0.02 0.01 0.02 0 0.02 0 0.01 0 0.02 0 0.02 0 0.77 0.73zm-0.77 -0.73l0.77 0 0 0.73 -0.77 -0.73zm-0.77 2.91l0 -2.18 1.54 0 0 2.18 -0.77 0.73 -0.77 -0.73zm1.54 0l0 0.73 -0.77 0 0.77 -0.73zm-1.15 1.09l-1.54 0 0 0 0 -0.09 0.01 -0.09 0.01 -0.09 0.02 -0.09 0.02 -0.09 0.03 -0.09 0.03 -0.08 0.03 -0.08 0.04 -0.08 0.04 -0.07 0.05 -0.08 0.05 -0.07 0.05 -0.07 0.06 -0.07 0.06 -0.07 0.06 -0.06 0.07 -0.06 0.07 -0.06 0.07 -0.05 0.08 -0.05 0.08 -0.05 0.08 -0.04 0.08 -0.04 0.09 -0.04 0.09 -0.03 0.09 -0.03 0.09 -0.03 0.09 -0.02 0.09 -0.02 0.1 -0.01 0.09 -0.01 0.1 -0 0 1.46 -0.02 0 -0.02 0 -0.01 0 -0.02 0 -0.02 0 -0.02 0.01 -0.02 0.01 -0.01 0.01 -0.02 0.01 -0.02 0.01 -0.02 0.01 -0.01 0.01 -0.01 0.01 -0.02 0.01 -0.01 0.01 -0.01 0.01 -0.02 0.02 -0.01 0.01 -0.01 0.01 -0.01 0.02 -0.01 0.01 -0.01 0.01 -0.01 0.02 -0.01 0.01 -0.01 0.02 -0.01 0.02 -0 0.01 -0 0.02 -0 0.02 -0 0.02 -0 0.02 -0 0.02 0 0zm1.15 1.09l-1.54 0 0.77 0.73 -0.1 -0 -0.09 -0.01 -0.1 -0.01 -0.09 -0.02 -0.09 -0.02 -0.09 -0.03 -0.09 -0.03 -0.09 -0.03 -0.08 -0.04 -0.08 -0.04 -0.08 -0.05 -0.08 -0.05 -0.08 -0.05 -0.07 -0.06 -0.07 -0.06 -0.07 -0.06 -0.06 -0.06 -0.06 -0.06 -0.06 -0.07 -0.05 -0.07 -0.05 -0.07 -0.05 -0.08 -0.04 -0.07 -0.04 -0.08 -0.03 -0.08 -0.03 -0.08 -0.03 -0.09 -0.02 -0.09 -0.02 -0.09 -0.01 -0.09 -0.01 -0.09 -0 -0.09 1.54 0 0 0.02 0 0.02 0 0.02 0 0.02 0 0.02 0 0.01 0.01 0.02 0.01 0.02 0.01 0.01 0.01 0.02 0.01 0.01 0.01 0.01 0.01 0.01 0.01 0.01 0.01 0.02 0.01 0.01 0.01 0.01 0.02 0.01 0.01 0.01 0.02 0.01 0.02 0.01 0.01 0.01 0.02 0.01 0.02 0.01 0.01 0.01 0.02 0.01 0.02 0.01 0.02 0 0.02 0 0.01 0 0.02 0 0.02 0 0.77 0.73zm-0.77 -0.73l0.77 0 0 0.73 -0.77 -0.73zm-0.77 2.92l0 -2.18 1.54 0 0 2.18 -0.77 0.73 -0.77 -0.73zm1.54 0l0 0.73 -0.77 0 0.77 -0.73zm-1.15 1.09l-1.54 0 0 0 0 -0.09 0.01 -0.09 0.01 -0.09 0.02 -0.09 0.02 -0.09 0.03 -0.09 0.03 -0.09 0.03 -0.08 0.04 -0.08 0.04 -0.08 0.05 -0.08 0.05 -0.07 0.05 -0.07 0.06 -0.07 0.06 -0.07 0.06 -0.06 0.07 -0.06 0.07 -0.06 0.07 -0.05 0.08 -0.05 0.08 -0.05 0.08 -0.04 0.08 -0.04 0.09 -0.04 0.09 -0.03 0.09 -0.03 0.09 -0.03 0.09 -0.02 0.09 -0.02 0.1 -0.01 0.09 -0.01 0.1 -0 0 1.46 -0.02 0 -0.02 0 -0.01 0 -0.02 0 -0.02 0 -0.02 0.01 -0.02 0.01 -0.01 0.01 -0.02 0.01 -0.02 0.01 -0.02 0.01 -0.01 0.01 -0.01 0.01 -0.02 0.01 -0.01 0.01 -0.01 0.01 -0.01 0.01 -0.01 0.01 -0.01 0.01 -0.01 0.01 -0.01 0.02 -0.01 0.01 -0.01 0.02 -0.01 0.02 -0.01 0.02 -0.01 0.02 -0 0.02 -0.01 0.02 -0 0.02 -0 0.02 -0 0.02 -0 0.02 0 0zm1.15 1.09l-1.54 0 0.77 0.73 -0.1 -0 -0.09 -0.01 -0.1 -0.01 -0.09 -0.02 -0.09 -0.02 -0.09 -0.03 -0.09 -0.03 -0.09 -0.03 -0.09 -0.04 -0.08 -0.04 -0.08 -0.04 -0.08 -0.05 -0.08 -0.05 -0.07 -0.05 -0.07 -0.06 -0.07 -0.06 -0.06 -0.06 -0.06 -0.07 -0.06 -0.07 -0.05 -0.07 -0.05 -0.07 -0.05 -0.08 -0.04 -0.07 -0.04 -0.08 -0.03 -0.08 -0.03 -0.08 -0.03 -0.09 -0.02 -0.09 -0.02 -0.09 -0.01 -0.09 -0.01 -0.09 -0 -0.09 1.54 0 0 0.02 0 0.02 0 0.02 0 0.02 0 0.02 0 0.01 0.01 0.02 0.01 0.02 0.01 0.01 0.01 0.02 0.01 0.01 0.01 0.01 0.01 0.02 0.01 0.01 0.01 0.01 0.02 0.02 0.01 0.01 0.01 0.01 0.02 0.01 0.01 0.01 0.01 0.01 0.02 0.01 0.02 0.01 0.02 0.01 0.01 0.01 0.02 0.01 0.02 0.01 0.02 0 0.02 0 0.01 0 0.02 0 0.02 0 0.77 0.73zm-0.77 -0.73l0.77 0 0 0.73 -0.77 -0.73zm-0.77 2.91l0 -2.18 1.54 0 0 2.18 -0.77 0.73 -0.77 -0.73zm1.54 0l0 0.73 -0.77 0 0.77 -0.73zm-1.15 1.09l-1.54 0 0 0 0 -0.09 0.01 -0.09 0.01 -0.09 0.02 -0.09 0.02 -0.09 0.03 -0.09 0.03 -0.08 0.03 -0.08 0.04 -0.08 0.04 -0.07 0.05 -0.08 0.05 -0.07 0.05 -0.07 0.06 -0.07 0.06 -0.07 0.06 -0.06 0.07 -0.06 0.07 -0.06 0.07 -0.05 0.08 -0.05 0.08 -0.05 0.08 -0.04 0.08 -0.04 0.09 -0.04 0.09 -0.03 0.09 -0.03 0.09 -0.03 0.09 -0.02 0.09 -0.02 0.1 -0.01 0.09 -0.01 0.1 -0 0 1.46 -0.02 0 -0.02 0 -0.01 0 -0.02 0 -0.02 0 -0.02 0.01 -0.02 0.01 -0.01 0.01 -0.02 0.01 -0.02 0.01 -0.02 0.01 -0.01 0.01 -0.01 0.01 -0.02 0.01 -0.01 0.01 -0.01 0.01 -0.02 0.02 -0.01 0.01 -0.01 0.01 -0.01 0.02 -0.01 0.01 -0.01 0.01 -0.01 0.02 -0.01 0.01 -0.01 0.02 -0.01 0.02 -0 0.01 -0 0.02 -0 0.02 -0 0.02 -0 0.02 -0 0.02 0 0zm1.15 1.09l-1.54 0 0.77 0.73 -0.1 -0 -0.1 -0.01 -0.1 -0.01 -0.09 -0.02 -0.09 -0.02 -0.09 -0.02 -0.09 -0.03 -0.09 -0.03 -0.08 -0.04 -0.08 -0.04 -0.08 -0.05 -0.08 -0.05 -0.08 -0.05 -0.07 -0.05 -0.07 -0.06 -0.07 -0.06 -0.06 -0.06 -0.06 -0.07 -0.06 -0.07 -0.05 -0.07 -0.05 -0.08 -0.05 -0.08 -0.04 -0.08 -0.04 -0.08 -0.03 -0.08 -0.03 -0.09 -0.03 -0.09 -0.02 -0.09 -0.02 -0.09 -0.01 -0.09 -0.01 -0.09 -0 -0.09 1.54 0 0 0.02 0 0.02 0 0.02 0 0.02 0.01 0.02 0 0.02 0.01 0.02 0.01 0.02 0.01 0.02 0.01 0.02 0.01 0.01 0.01 0.01 0.01 0.02 0.01 0.01 0.01 0.01 0.02 0.02 0.01 0.01 0.01 0.01 0.01 0.01 0.02 0.01 0.02 0.01 0.01 0.01 0.02 0.01 0.02 0.01 0.02 0.01 0.02 0.01 0.02 0 0.02 0 0.02 0 0.02 0 0.02 0 0.02 0 0.77 0.73zm-0.77 -0.73l0.77 0 0 0.73 -0.77 -0.73zm-0.77 2.91l0 -2.18 1.54 0 0 2.18 -0.77 0.73 -0.77 -0.73zm1.54 0l0 0.73 -0.77 0 0.77 -0.73zm-1.15 1.09l-1.54 0 0 0 0 -0.09 0.01 -0.09 0.01 -0.09 0.02 -0.09 0.02 -0.09 0.03 -0.09 0.03 -0.08 0.03 -0.08 0.04 -0.08 0.04 -0.07 0.05 -0.08 0.05 -0.07 0.05 -0.07 0.06 -0.07 0.06 -0.07 0.06 -0.06 0.07 -0.06 0.07 -0.06 0.07 -0.05 0.08 -0.05 0.08 -0.05 0.08 -0.04 0.08 -0.04 0.09 -0.04 0.09 -0.03 0.09 -0.03 0.09 -0.03 0.09 -0.02 0.09 -0.02 0.1 -0.01 0.09 -0.01 0.1 -0 0 1.46 -0.02 0 -0.02 0 -0.01 0 -0.02 0 -0.02 0 -0.02 0.01 -0.02 0.01 -0.01 0.01 -0.02 0.01 -0.02 0.01 -0.02 0.01 -0.01 0.01 -0.01 0.01 -0.02 0.01 -0.01 0.01 -0.01 0.01 -0.02 0.02 -0.01 0.01 -0.01 0.01 -0.01 0.02 -0.01 0.01 -0.01 0.01 -0.01 0.02 -0.01 0.01 -0.01 0.02 -0.01 0.02 -0 0.01 -0 0.02 -0 0.02 -0 0.02 -0 0.02 -0 0.02 0 0zm1.15 1.09l-1.54 0 0.77 0.73 -0.1 -0 -0.09 -0.01 -0.1 -0.01 -0.09 -0.02 -0.09 -0.02 -0.09 -0.03 -0.09 -0.03 -0.09 -0.03 -0.09 -0.04 -0.08 -0.04 -0.08 -0.04 -0.08 -0.05 -0.08 -0.05 -0.07 -0.05 -0.07 -0.06 -0.07 -0.06 -0.06 -0.06 -0.06 -0.07 -0.06 -0.07 -0.05 -0.07 -0.05 -0.07 -0.05 -0.08 -0.04 -0.08 -0.04 -0.08 -0.03 -0.08 -0.03 -0.09 -0.03 -0.09 -0.02 -0.09 -0.02 -0.09 -0.01 -0.09 -0.01 -0.09 -0 -0.09 1.54 0 0 0.02 0 0.02 0 0.02 0 0.02 0.01 0.02 0 0.02 0.01 0.02 0.01 0.02 0.01 0.02 0.01 0.02 0.01 0.01 0.01 0.02 0.01 0.01 0.01 0.01 0.01 0.01 0.01 0.01 0.01 0.01 0.01 0.01 0.02 0.01 0.01 0.01 0.01 0.01 0.02 0.01 0.02 0.01 0.02 0.01 0.01 0.01 0.02 0.01 0.02 0.01 0.02 0 0.02 0 0.01 0 0.02 0 0.02 0 0.77 0.73zm-0.77 -0.73l0.77 0 0 0.73 -0.77 -0.73zm-0.77 2.91l0 -2.18 1.54 0 0 2.18 -0.77 0.73 -0.77 -0.73zm1.54 0l0 0.73 -0.77 0 0.77 -0.73zm-1.15 1.09l-1.54 0 0 0 0 -0.09 0.01 -0.09 0.01 -0.09 0.02 -0.09 0.02 -0.09 0.03 -0.09 0.03 -0.08 0.03 -0.08 0.04 -0.08 0.04 -0.07 0.05 -0.08 0.05 -0.07 0.05 -0.07 0.06 -0.07 0.06 -0.07 0.06 -0.06 0.07 -0.06 0.07 -0.06 0.07 -0.05 0.08 -0.05 0.08 -0.05 0.08 -0.04 0.08 -0.04 0.09 -0.04 0.09 -0.03 0.09 -0.03 0.09 -0.03 0.09 -0.02 0.09 -0.02 0.1 -0.01 0.09 -0.01 0.1 -0 0 1.46 -0.02 0 -0.02 0 -0.01 0 -0.02 0 -0.02 0 -0.02 0.01 -0.02 0.01 -0.01 0.01 -0.02 0.01 -0.02 0.01 -0.02 0.01 -0.01 0.01 -0.01 0.01 -0.02 0.01 -0.01 0.01 -0.01 0.01 -0.02 0.02 -0.01 0.01 -0.01 0.01 -0.01 0.02 -0.01 0.01 -0.01 0.01 -0.01 0.02 -0.01 0.01 -0.01 0.02 -0.01 0.02 -0 0.01 -0 0.02 -0 0.02 -0 0.02 -0 0.02 -0 0.02 0 0zm1.15 1.09l-1.54 0.01 0.77 0.73 -0.1 -0 -0.09 -0.01 -0.1 -0.01 -0.09 -0.02 -0.09 -0.02 -0.09 -0.03 -0.09 -0.03 -0.09 -0.03 -0.08 -0.04 -0.08 -0.04 -0.08 -0.05 -0.08 -0.05 -0.08 -0.05 -0.07 -0.06 -0.07 -0.06 -0.07 -0.06 -0.06 -0.06 -0.06 -0.06 -0.06 -0.07 -0.05 -0.07 -0.05 -0.07 -0.05 -0.08 -0.04 -0.07 -0.04 -0.08 -0.03 -0.08 -0.03 -0.08 -0.03 -0.09 -0.02 -0.09 -0.02 -0.09 -0.01 -0.09 -0.01 -0.09 -0 -0.09 1.54 0 0 0.02 0 0.02 0 0.02 0 0.02 0 0.02 0 0.01 0.01 0.02 0.01 0.02 0.01 0.01 0.01 0.02 0.01 0.01 0.01 0.01 0.01 0.01 0.01 0.01 0.01 0.02 0.01 0.01 0.01 0.01 0.02 0.01 0.01 0.01 0.02 0.01 0.02 0.01 0.01 0.01 0.02 0.01 0.02 0.01 0.01 0.01 0.02 0.01 0.02 0.01 0.02 0 0.02 0 0.01 0 0.02 0 0.02 0 0.77 0.73zm-0.77 -0.73l0.77 0 0 0.73 -0.77 -0.73zm-0.76 2.95l-0.01 -2.21 1.54 -0.01 0.01 2.21 -0.77 0.74 -0.77 -0.73zm1.54 -0.01l0 0.73 -0.77 0 0.77 -0.74zm-3.1 -0.72l2.33 -0.01 0 1.46 -2.33 0.01 -0.77 -0.73 0.77 -0.73zm0 1.46l-0.77 0 0 -0.73 0.77 0.73zm-1.15 -1.09l0 -1.46 0 0 0.1 0 0.1 0.01 0.1 0.01 0.09 0.02 0.09 0.02 0.09 0.02 0.09 0.03 0.09 0.03 0.09 0.04 0.08 0.04 0.08 0.04 0.08 0.05 0.07 0.05 0.07 0.05 0.07 0.06 0.07 0.06 0.07 0.07 0.06 0.07 0.05 0.06 0.05 0.07 0.05 0.08 0.05 0.08 0.04 0.08 0.04 0.08 0.03 0.08 0.03 0.09 0.03 0.09 0.02 0.09 0.02 0.09 0.01 0.09 0.01 0.09 0 0.09 -1.54 0 -0 -0.02 -0 -0.02 -0 -0.02 -0 -0.02 -0.01 -0.02 -0 -0.02 -0 -0.01 -0.01 -0.02 -0.01 -0.02 -0.01 -0.01 -0.01 -0.02 -0.01 -0.01 -0.01 -0.01 -0.02 -0.02 -0.01 -0.01 -0.01 -0.01 -0.01 -0.01 -0.01 -0.01 -0.01 -0.01 -0.01 -0.01 -0.02 -0.01 -0.02 -0.01 -0.02 -0.01 -0.02 -0.01 -0.02 -0.01 -0.02 -0.01 -0.02 -0 -0.02 -0 -0.02 -0 -0.02 -0 -0.02 -0 -0.02 -0 0 0zm-1.15 1.09l0 -1.46 -0.77 0.73 0 -0.09 0.01 -0.09 0.01 -0.09 0.02 -0.09 0.02 -0.09 0.03 -0.09 0.03 -0.09 0.03 -0.08 0.04 -0.08 0.04 -0.08 0.05 -0.08 0.05 -0.08 0.05 -0.07 0.06 -0.07 0.06 -0.07 0.06 -0.06 0.07 -0.06 0.07 -0.06 0.07 -0.05 0.08 -0.05 0.08 -0.05 0.08 -0.05 0.08 -0.04 0.08 -0.04 0.09 -0.03 0.09 -0.03 0.09 -0.02 0.09 -0.02 0.09 -0.02 0.1 -0.01 0.1 -0.01 0.1 -0 0 1.46 -0.02 0 -0.02 0 -0.02 0 -0.02 0 -0.02 0 -0.02 0 -0.02 0.01 -0.02 0.01 -0.02 0.01 -0.02 0.01 -0.01 0.01 -0.02 0.01 -0.02 0.01 -0.01 0.01 -0.01 0.01 -0.01 0.01 -0.02 0.02 -0.01 0.01 -0.01 0.01 -0.01 0.02 -0.01 0.01 -0.01 0.01 -0.01 0.02 -0.01 0.02 -0.01 0.02 -0.01 0.02 -0 0.02 -0.01 0.02 -0 0.02 -0 0.02 -0 0.02 -0 0.02 -0.77 0.73zm0.77 -0.73l0 0.73 -0.77 0 0.77 -0.73zm-3.07 -0.73l2.3 0 0 1.46 -2.3 0 -0.77 -0.73 0.77 -0.73zm0 1.46l-0.77 0 0 -0.73 0.77 0.73zm-1.15 -1.09l0 -1.46 0 0 0.1 0 0.1 0.01 0.1 0.01 0.09 0.02 0.09 0.02 0.09 0.02 0.09 0.03 0.09 0.03 0.08 0.04 0.08 0.04 0.08 0.05 0.08 0.05 0.08 0.05 0.07 0.05 0.07 0.06 0.07 0.06 0.06 0.06 0.06 0.07 0.06 0.07 0.05 0.07 0.05 0.08 0.05 0.08 0.04 0.08 0.04 0.08 0.03 0.08 0.03 0.09 0.03 0.09 0.02 0.09 0.02 0.09 0.01 0.09 0.01 0.09 0 0.09 -1.54 0 -0 -0.02 -0 -0.02 -0 -0.02 -0 -0.02 -0.01 -0.02 -0 -0.02 -0.01 -0.02 -0.01 -0.02 -0.01 -0.02 -0.01 -0.02 -0.01 -0.01 -0.01 -0.01 -0.01 -0.02 -0.01 -0.01 -0.01 -0.01 -0.02 -0.02 -0.01 -0.01 -0.01 -0.01 -0.01 -0.01 -0.02 -0.01 -0.02 -0.01 -0.01 -0.01 -0.02 -0.01 -0.02 -0.01 -0.02 -0.01 -0.02 -0.01 -0.02 -0 -0.02 -0 -0.02 -0 -0.02 -0 -0.02 -0 -0.02 -0 0 0zm-1.15 1.09l0 -1.46 -0.77 0.73 0 -0.09 0.01 -0.09 0.01 -0.09 0.02 -0.09 0.02 -0.09 0.03 -0.09 0.03 -0.09 0.03 -0.08 0.04 -0.09 0.04 -0.08 0.05 -0.08 0.05 -0.08 0.05 -0.07 0.05 -0.07 0.06 -0.07 0.07 -0.07 0.07 -0.06 0.07 -0.06 0.07 -0.05 0.07 -0.05 0.08 -0.05 0.08 -0.04 0.08 -0.04 0.09 -0.04 0.09 -0.03 0.09 -0.03 0.09 -0.03 0.09 -0.02 0.09 -0.02 0.1 -0.01 0.1 -0.01 0.1 -0 0 1.46 -0.02 0 -0.02 0 -0.02 0 -0.02 0 -0.02 0 -0.02 0 -0.02 0.01 -0.02 0.01 -0.02 0.01 -0.02 0.01 -0.02 0.01 -0.02 0.01 -0.01 0.01 -0.01 0.01 -0.01 0.01 -0.01 0.01 -0.01 0.01 -0.01 0.01 -0.01 0.02 -0.01 0.02 -0.01 0.01 -0.01 0.02 -0.01 0.02 -0.01 0.01 -0.01 0.02 -0.01 0.02 -0 0.02 -0.01 0.02 -0 0.02 -0 0.02 -0 0.02 -0 0.02 -0.77 0.73zm0.77 -0.73l0 0.73 -0.77 0 0.77 -0.73zm-3.07 -0.73l2.3 0 0 1.46 -2.3 0 -0.77 -0.73 0.77 -0.73zm0 1.46l-0.77 0 0 -0.73 0.77 0.73zm-1.15 -1.09l0 -1.46 0 0 0.1 0 0.1 0.01 0.1 0.01 0.09 0.02 0.09 0.02 0.09 0.03 0.09 0.03 0.09 0.03 0.09 0.04 0.08 0.04 0.08 0.04 0.08 0.05 0.07 0.05 0.07 0.05 0.07 0.06 0.07 0.06 0.07 0.07 0.06 0.07 0.05 0.07 0.05 0.07 0.05 0.08 0.05 0.08 0.04 0.08 0.04 0.09 0.03 0.08 0.03 0.09 0.03 0.09 0.02 0.09 0.02 0.09 0.01 0.09 0.01 0.09 0 0.09 -1.54 0 -0 -0.02 -0 -0.02 -0 -0.02 -0 -0.02 -0.01 -0.02 -0 -0.02 -0.01 -0.02 -0.01 -0.02 -0.01 -0.01 -0.01 -0.02 -0.01 -0.02 -0.01 -0.01 -0.01 -0.02 -0.01 -0.02 -0.01 -0.01 -0.01 -0.01 -0.01 -0.01 -0.01 -0.01 -0.01 -0.01 -0.01 -0.01 -0.02 -0.01 -0.02 -0.01 -0.02 -0.01 -0.02 -0.01 -0.02 -0.01 -0.02 -0.01 -0.02 -0 -0.02 -0 -0.02 -0 -0.02 -0 -0.02 -0 -0.02 -0 0 0zm-1.15 1.09l0 -1.46 -0.77 0.73 0 -0.09 0.01 -0.09 0.01 -0.09 0.02 -0.09 0.02 -0.09 0.03 -0.09 0.03 -0.09 0.03 -0.08 0.04 -0.08 0.04 -0.08 0.05 -0.08 0.05 -0.08 0.05 -0.07 0.06 -0.07 0.06 -0.07 0.06 -0.06 0.07 -0.06 0.07 -0.06 0.07 -0.05 0.08 -0.05 0.08 -0.05 0.08 -0.05 0.08 -0.04 0.08 -0.04 0.09 -0.03 0.09 -0.03 0.09 -0.02 0.09 -0.02 0.09 -0.02 0.1 -0.01 0.1 -0.01 0.1 -0 0 1.46 -0.02 0 -0.02 0 -0.02 0 -0.02 0 -0.02 0 -0.02 0 -0.02 0.01 -0.02 0.01 -0.02 0.01 -0.02 0.01 -0.01 0.01 -0.02 0.01 -0.02 0.01 -0.01 0.01 -0.01 0.01 -0.01 0.01 -0.02 0.02 -0.01 0.01 -0.01 0.01 -0.01 0.02 -0.01 0.01 -0.01 0.01 -0.01 0.02 -0.01 0.02 -0.01 0.02 -0.01 0.02 -0 0.02 -0.01 0.02 -0 0.02 -0 0.02 -0 0.02 -0 0.02 -0.77 0.73zm0.77 -0.73l0 0.73 -0.77 0 0.77 -0.73zm-3.07 -0.73l2.3 0 0 1.46 -2.3 0 -0.77 -0.73 0.77 -0.73zm0 1.46l-0.77 0 0 -0.73 0.77 0.73zm-1.15 -1.09l0 -1.46 0 0 0.1 0 0.1 0.01 0.1 0.01 0.09 0.02 0.09 0.02 0.09 0.02 0.09 0.03 0.09 0.03 0.08 0.04 0.08 0.04 0.08 0.05 0.08 0.05 0.08 0.05 0.07 0.05 0.07 0.06 0.07 0.06 0.06 0.06 0.06 0.07 0.06 0.07 0.05 0.07 0.05 0.08 0.05 0.08 0.04 0.08 0.04 0.08 0.03 0.08 0.03 0.09 0.03 0.09 0.02 0.09 0.02 0.09 0.01 0.09 0.01 0.09 0 0.09 -1.54 0 -0 -0.02 -0 -0.02 -0 -0.02 -0 -0.02 -0.01 -0.02 -0 -0.02 -0.01 -0.02 -0.01 -0.02 -0.01 -0.02 -0.01 -0.02 -0.01 -0.01 -0.01 -0.01 -0.01 -0.02 -0.01 -0.01 -0.01 -0.01 -0.02 -0.02 -0.01 -0.01 -0.01 -0.01 -0.01 -0.01 -0.02 -0.01 -0.02 -0.01 -0.01 -0.01 -0.02 -0.01 -0.02 -0.01 -0.02 -0.01 -0.02 -0.01 -0.02 -0 -0.02 -0 -0.02 -0 -0.02 -0 -0.02 -0 -0.02 -0 0 0zm-1.15 1.09l0 -1.46 -0.77 0.73 0 -0.09 0.01 -0.09 0.01 -0.09 0.02 -0.09 0.02 -0.09 0.03 -0.09 0.03 -0.09 0.03 -0.08 0.04 -0.08 0.04 -0.08 0.05 -0.08 0.05 -0.08 0.05 -0.07 0.06 -0.07 0.06 -0.07 0.06 -0.06 0.07 -0.06 0.07 -0.06 0.07 -0.05 0.08 -0.05 0.08 -0.05 0.08 -0.05 0.08 -0.04 0.08 -0.04 0.09 -0.03 0.09 -0.03 0.09 -0.02 0.09 -0.02 0.09 -0.02 0.1 -0.01 0.1 -0.01 0.1 -0 0 1.46 -0.02 0 -0.02 0 -0.02 0 -0.02 0 -0.02 0 -0.02 0 -0.02 0.01 -0.02 0.01 -0.02 0.01 -0.02 0.01 -0.01 0.01 -0.02 0.01 -0.02 0.01 -0.01 0.01 -0.01 0.01 -0.01 0.01 -0.02 0.02 -0.01 0.01 -0.01 0.01 -0.01 0.02 -0.01 0.01 -0.01 0.01 -0.01 0.02 -0.01 0.02 -0.01 0.02 -0.01 0.02 -0 0.02 -0.01 0.02 -0 0.02 -0 0.02 -0 0.02 -0 0.02 -0.77 0.73zm0.77 -0.73l0 0.73 -0.77 0 0.77 -0.73zm-3.07 -0.73l2.3 0 0 1.46 -2.3 0 -0.77 -0.73 0.77 -0.73zm0 1.46l-0.77 0 0 -0.73 0.77 0.73zm-1.15 -1.09l0 -1.46 0 0 0.1 0 0.1 0.01 0.1 0.01 0.09 0.02 0.09 0.02 0.09 0.02 0.09 0.03 0.09 0.03 0.08 0.04 0.08 0.04 0.08 0.05 0.08 0.05 0.08 0.05 0.07 0.05 0.07 0.06 0.07 0.06 0.06 0.06 0.06 0.07 0.06 0.07 0.05 0.07 0.05 0.08 0.05 0.08 0.04 0.08 0.04 0.08 0.03 0.08 0.03 0.09 0.03 0.09 0.02 0.09 0.02 0.09 0.01 0.09 0.01 0.09 0 0.09 -1.54 0 -0 -0.02 -0 -0.02 -0 -0.02 -0 -0.02 -0.01 -0.02 -0 -0.02 -0.01 -0.02 -0.01 -0.02 -0.01 -0.02 -0.01 -0.02 -0.01 -0.01 -0.01 -0.01 -0.01 -0.02 -0.01 -0.01 -0.01 -0.01 -0.02 -0.02 -0.01 -0.01 -0.01 -0.01 -0.01 -0.01 -0.02 -0.01 -0.02 -0.01 -0.01 -0.01 -0.02 -0.01 -0.02 -0.01 -0.02 -0.01 -0.02 -0.01 -0.02 -0 -0.02 -0 -0.02 -0 -0.02 -0 -0.02 -0 -0.02 -0 0 0zm-1.15 1.09l0 -1.46 -0.77 0.73 0 -0.09 0.01 -0.09 0.01 -0.09 0.02 -0.09 0.02 -0.09 0.03 -0.09 0.03 -0.09 0.03 -0.08 0.04 -0.08 0.04 -0.08 0.05 -0.08 0.05 -0.08 0.05 -0.07 0.06 -0.07 0.06 -0.07 0.06 -0.06 0.07 -0.06 0.07 -0.06 0.07 -0.05 0.08 -0.05 0.08 -0.05 0.08 -0.05 0.08 -0.04 0.08 -0.04 0.09 -0.03 0.09 -0.03 0.09 -0.02 0.09 -0.02 0.09 -0.02 0.1 -0.01 0.1 -0.01 0.1 -0 0 1.46 -0.02 0 -0.02 0 -0.02 0 -0.02 0 -0.02 0 -0.02 0 -0.02 0.01 -0.02 0.01 -0.02 0.01 -0.02 0.01 -0.01 0.01 -0.02 0.01 -0.02 0.01 -0.01 0.01 -0.01 0.01 -0.01 0.01 -0.02 0.02 -0.01 0.01 -0.01 0.01 -0.01 0.02 -0.01 0.01 -0.01 0.01 -0.01 0.02 -0.01 0.02 -0.01 0.02 -0.01 0.02 -0 0.02 -0.01 0.02 -0 0.02 -0 0.02 -0 0.02 -0 0.02 -0.77 0.73zm0.77 -0.73l0 0.73 -0.77 0 0.77 -0.73zm-2.88 -0.73l2.11 0 0 1.46 -2.11 0 -0.77 -0.73 0.77 -0.73zm0 1.46l-0.77 0 0 -0.73 0.77 0.73z"/>
   </g>
  </g>
 </g>
</svg>
