<?xml version="1.0" encoding="UTF-8"?>
<!DOCTYPE svg PUBLIC "-//W3C//DTD SVG 1.1//EN" "http://www.w3.org/Graphics/SVG/1.1/DTD/svg11.dtd">
<!-- Creator: CorelDRAW 2018 (64-Bit) -->
<svg xmlns="http://www.w3.org/2000/svg" xml:space="preserve" width="27.6147mm" height="16.1536mm" version="1.1" style="shape-rendering:geometricPrecision; text-rendering:geometricPrecision; image-rendering:optimizeQuality; fill-rule:evenodd; clip-rule:evenodd"
viewBox="0 0 392.27 229.46"
 xmlns:xlink="http://www.w3.org/1999/xlink">
 <defs>
  <style type="text/css">
   <![CDATA[
    .fil0 {fill:#6F97B3}
   ]]>
  </style>
 </defs>
 <g id="пояснения_x0020_к_x0020_карточкам">
  <metadata id="CorelCorpID_0Corel-Layer"/>
  <g id="материки">
   <path class="fil0" d="M-0 41.22c2.09,-0.86 10.95,-4.18 11.81,-5.17 0.86,-0.98 -5.05,-1.97 -2.71,-4.18 2.34,-2.22 6.4,-2.83 8.61,-3.81 2.21,-0.99 0.49,-1.23 0.25,-2.34 -0.25,-1.11 2.46,-3.32 4.8,-4.18 2.34,-0.86 11.44,-3.44 13.66,-3.94 2.21,-0.49 7.51,0.62 12.18,0.86 4.68,0.25 12.3,-0.49 16.12,0 3.81,0.49 11.94,2.21 14.03,1.97 2.09,-0.25 13.41,1.23 14.64,-0.25 1.23,-1.48 4.68,-4.92 6.65,-5.78 1.97,-0.86 1.35,-4.31 3.69,-3.32 2.34,0.98 -0.25,3.2 -2.09,4.92 -1.85,1.72 -4.06,5.05 -0.98,4.43 3.08,-0.62 5.66,-2.46 6.52,-0.98 0.86,1.48 -0.25,4.43 -2.46,5.17 -2.21,0.74 -0.25,1.85 -2.21,2.34 -1.97,0.49 -5.17,0.74 -8.12,1.6 -2.95,0.86 -9.11,2.83 -9.11,4.18 0,1.35 -1.23,5.29 1.72,5.54 2.95,0.25 6.28,3.94 6.89,6.77 0.62,2.83 2.95,1.23 3.69,-1.35 0.74,-2.58 4.18,-1.97 5.04,-5.17 0.86,-3.2 0.98,-7.63 3.32,-8.37 2.34,-0.74 5.66,0 5.41,1.48 -0.25,1.48 0.49,5.41 2.58,3.57 2.09,-1.85 5.41,-1.6 5.54,0.49 0.12,2.09 0.98,6.28 2.46,8 1.48,1.72 -1.85,4.67 -0.12,6.15 1.72,1.48 2.34,3.45 -0.12,3.94 -2.46,0.49 -7.26,1.35 -4.8,-0.62 2.46,-1.97 4.31,-4.92 3.44,-5.91 -0.86,-0.98 -3.2,0 -5.66,0.86 -2.46,0.86 -7.88,0.62 -7.51,2.22 0.37,1.6 0.74,0.12 2.09,1.72 1.35,1.6 -1.97,3.08 0.25,3.2 2.21,0.12 4.18,-0.37 3.82,0.62 -0.37,0.98 -1.72,2.71 -3.57,2.58 -1.85,-0.12 -4.67,-0.74 -6.27,0.25 -1.6,0.98 -3.94,3.81 -4.92,4.8 -0.98,0.98 -4.31,4.18 -5.54,4.92 -1.23,0.74 -2.95,2.34 -3.69,3.57 -0.74,1.23 -8.37,7.38 -8.98,8.61 -0.62,1.23 0.74,4.68 -0.25,7.01 -0.98,2.34 -1.72,4.8 -1.85,2.71 -0.12,-2.09 -0.12,-7.75 -1.97,-6.89 -1.85,0.86 -5.04,-0.25 -6.64,-0.25 -1.6,0 -0.98,0.86 -3.08,1.23 -2.09,0.37 -2.34,-2.21 -4.8,0.37 -2.46,2.58 -4.92,2.83 -4.8,5.04 0.12,2.21 -2.09,4.06 -1.97,5.41 0.12,1.35 0.49,5.17 1.85,5.41 1.35,0.25 0.12,2.83 2.95,1.97 2.83,-0.86 2.46,0 4.31,-2.83 1.85,-2.83 5.66,-3.57 5.41,-1.97 -0.25,1.6 -4.31,8.74 -2.83,9.84 1.48,1.11 1.85,-1.23 4.43,0.37 2.58,1.6 -0.61,4.68 0.62,6.52 1.23,1.85 3.08,5.41 5.29,5.29 2.21,-0.12 3.08,-0.74 3.57,1.23 0.49,1.97 0.98,-3.32 4.18,-4.68 3.2,-1.35 1.85,-1.72 4.68,-1.11 2.83,0.62 3.32,1.11 5.91,1.48 2.58,0.37 5.17,-1.11 6.77,1.23 1.6,2.34 7.14,6.89 8,7.14 0.86,0.25 4.68,1.85 5.17,3.44 0.49,1.6 4.18,7.38 5.78,8 1.6,0.62 13.91,5.54 14.83,6.09 0.92,0.55 2.83,4.37 2.46,5.29 -0.37,0.92 -1.05,5.11 -1.78,5.6 -0.74,0.49 -3.57,5.54 -3.45,6.71 0.12,1.17 -0.95,10.55 -1.38,11.11 -0.43,0.55 -1.41,3.75 -2.28,3.57 -0.86,-0.18 -3.63,1.05 -4.43,1.78 -0.8,0.74 -2.21,8.98 -4.18,10.58 -1.97,1.6 -2.59,4.92 -2.59,6.03 0,1.11 -3.2,2.09 -3.81,3.45 -0.62,1.35 -0.25,4.31 -1.23,4.8 -0.98,0.49 -1.35,1.35 -2.71,1.85 -1.35,0.49 -4.31,2.95 -3.94,4.55 0.37,1.6 -0.62,5.54 -0.62,5.54 0,0 -0.86,2.71 0.37,3.08 1.23,0.37 1.23,4.43 0.92,6.03 -0.31,1.6 0.86,3.69 1.41,4.43 0.55,0.74 1.42,2.34 0.98,2.4 -0.43,0.06 -6.83,-2.64 -7.14,-3.2 -0.31,-0.55 -4.25,-5.05 -4.18,-5.97 0.06,-0.92 -1.35,-5.6 -1.72,-6.28 -0.37,-0.68 -0.98,-3.02 -0.98,-3.51 0,-0.49 -0.98,-5.6 -1.11,-7.08 -0.12,-1.48 -2.21,-3.94 -1.41,-5.66 0.8,-1.72 1.11,-4.74 0.13,-7.81 -0.98,-3.08 0,-11.81 -0.62,-14.27 -0.62,-2.46 2.15,-6.71 -2.83,-10.71 -4.98,-4 -6.28,-5.41 -6.83,-6.77 -0.55,-1.35 -6.83,-12.18 -7.57,-14.03 -0.74,-1.85 1.48,-3.94 0.62,-5.91 -0.86,-1.97 0.86,-4.55 1.85,-4.8 0.98,-0.25 2.58,-3.44 2.34,-5.41 -0.25,-1.97 -1.11,-6.65 -2.22,-6.15 -1.11,0.49 -0.74,2.21 -2.71,0.74 -1.97,-1.48 -4.68,-3.32 -5.66,-4.92 -0.98,-1.6 -1.23,-4.8 -3.2,-5.17 -1.97,-0.37 -5.41,-1.85 -6.15,-2.46 -0.74,-0.61 -2.83,-3.69 -3.81,-2.71 -0.98,0.98 -5.41,0.25 -6.4,-0.98 -0.98,-1.23 -6.4,-5.66 -5.66,-8 0.74,-2.34 -3.2,-9.23 -3.94,-10.83 -0.74,-1.6 -4.8,-8 -4.68,-6.77 0.12,1.23 -0.93,4.26 -0.31,5.12 0.62,0.86 2.05,5.45 2.05,5.45l0.92 8.94 -1.03 -0.4 -1.81 -7.4c0,0 -2.73,-6.91 -2.73,-7.9 0,-0.98 -0.18,-7.01 -0.18,-7.01 0,0 -0.71,-0.86 -1.2,-2.09 -0.49,-1.23 -1.6,-9.84 -0.98,-11.2 0.62,-1.35 4.31,-7.75 5.05,-8.74 0.74,-0.98 2.21,-5.78 2.21,-5.78l-0.74 -9.23c0,0 -0.86,-5.04 -2.09,-6.15 -1.23,-1.11 -6.77,-2.09 -8.24,-1.85 -1.48,0.25 -4.18,2.09 -7.88,3.44 -3.69,1.35 -8,3.45 -9.11,3.82 -1.11,0.37 -7.87,2.71 -9.7,1.38z"/>
   <path class="fil0" d="M70.73 14.24c0,0 1.72,-1.11 3.82,-1.97 2.09,-0.86 3.44,-0.98 5.78,-0.49 2.34,0.49 4.31,2.46 5.54,2.71 1.23,0.25 0.74,0 2.46,-0.74 1.72,-0.74 3.57,-1.11 3.08,-0.12 -0.49,0.98 -0.86,2.58 -3.44,3.81 -2.58,1.23 -6.4,1.85 -7.88,1.6 -1.48,-0.25 -5.78,-0.37 -4.55,-1.48 1.23,-1.11 1.85,-3.32 1.85,-3.32 0,0 -3.44,2.58 -4.68,2.58 -1.23,0 -4.43,-0.12 -1.97,-2.58z"/>
   <path class="fil0" d="M107.89 4.4c-2.09,0.49 -6.15,1.23 -4.92,3.08 1.23,1.85 1.23,1.97 3.32,2.83 2.09,0.86 3.57,0 4.18,0.86 0.62,0.86 -0.62,0.62 -2.09,2.46 -1.48,1.85 -2.48,1.57 -1.85,3.69 0.64,2.12 3.82,1.6 4.8,2.22 0.98,0.62 3.44,1.48 1.11,2.71 -2.34,1.23 -6.4,1.97 -4.18,3.2 2.21,1.23 2.71,2.34 5.17,2.59 2.46,0.25 6.28,1.48 7.75,0.49 1.48,-0.98 2.09,-2.58 1.72,-3.69 -0.37,-1.11 -0.49,-1.23 1.11,-1.6 1.6,-0.37 2.83,-1.35 1.6,-2.95 -1.23,-1.6 -0.98,-1.23 -2.95,-2.95 -1.97,-1.72 -2.46,-1.6 -4.55,-3.2 -2.09,-1.6 -6.03,-1.23 -2.83,-3.2 3.2,-1.97 0.98,-1.35 4.55,-2.83 3.57,-1.48 2.95,-2.83 6.4,-3.94 3.45,-1.11 2.95,-0.98 6.03,-1.6 3.08,-0.62 9.84,0.86 4.18,-1.11 -5.66,-1.97 -3.2,-1.48 -9.23,-1.11 -6.03,0.37 -6.64,1.48 -10.46,1.85 -3.81,0.37 -5.54,-0.25 -6.4,0.49 -0.86,0.74 -2.46,1.72 -2.46,1.72z"/>
   <path class="fil0" d="M133.67 5.6c-0.9,0.06 -10.21,5.82 2.26,5.82 1.02,0 5.34,3.28 2.63,5.58 -0.06,0.05 -1.61,2.42 -2.23,3.02 -2.72,2.64 0.34,6.41 1.35,9.4 0.21,0.63 1.75,3.24 2.76,2.87 3.13,-1.15 7,-6.29 10.99,-8.22 5.01,-2.43 1.29,-3.62 9.57,-3.42 1.15,0.03 7.27,-6.84 9.54,-8.16 0.02,-0.01 2.93,-3.88 4.55,-5.1 3.63,-2.74 0.66,-5.17 -3.06,-5.31 -5.71,-0.22 -8.95,-2.56 -14.86,0.15 -7.14,3.28 -15.01,-2.47 -21.64,3.42 -0.78,0.69 -0.97,-0.1 -1.87,-0.04z"/>
   <path class="fil0" d="M179.7 40.82c-0.97,0.57 -6.06,4.66 -3.57,5.75 1.44,0.63 3.92,-2.09 5.59,-2.43 1.31,-0.27 3.33,-2.95 0.15,-2.95 -0.63,0 -2.52,-0.17 -2.17,-0.37z"/>
   <path class="fil0" d="M184.92 34.3c-2.53,0.59 -4.76,4.26 -1.11,6.54 0.55,0.34 2.33,2.43 0.72,3.54 -1.52,1.04 -6.4,6.97 -1.71,4.1 3.9,-2.38 7.78,0.63 7.41,-4.01 -0.11,-1.31 -3.69,-0.84 -3.46,-6.24 0.03,-0.61 -1.76,-3.95 -1.85,-3.93z"/>
   <path class="fil0" d="M234.76 23.48c-3.58,1.46 -5.67,2.23 -9.89,1.82 -2.65,-0.25 -1.19,-4.34 2.52,-2.92 0.64,0.24 3.11,1.78 3.2,-0.5 0.09,-2.36 -11.91,-6.41 -16.08,-3.02 -2.46,2 -4.17,-1.98 -6.21,0.78 -0.41,0.56 -3.67,3.18 -4.9,4.55 -0.24,0.27 -2.65,1.07 -5.35,3.19 -3.4,2.67 -6.11,6.87 -3.13,8.26 6.44,3.02 7.29,-8.13 7.46,1.5 0.04,2.12 -1.19,0.87 1.79,3.44 1.83,1.58 6.82,-4.75 4.93,-7.86 -1.75,-2.89 1.2,-3.86 2.53,-5.93 0.32,-0.49 2.75,-3.01 3.87,-2.46 4.53,2.19 -6.4,6.5 -1.28,8.09 2.94,0.91 6.18,-3.15 7.21,-0.71 0.91,2.17 -4.15,3.81 -5.38,4.45 -1.64,0.85 -1.1,2.59 -3.41,3.09 -2.63,0.57 -1.59,3.98 -6.82,2.95 -3.51,-0.69 -6.44,1.04 -9.33,2.89 -1.48,0.94 -7.44,5.85 -7.9,6.03 -1.15,0.45 -1.91,-1.48 -4.79,0.15 -1.68,0.96 5.18,4.55 -2.48,9.32 -1.66,1.04 -2.07,-1.63 -5.08,2.23 -1.13,1.45 -2.21,1.45 -0.59,3.74 0.3,0.42 -0.88,1.35 -0.83,1.94 0.86,3.9 -1.34,4.6 6.68,4.33 2.9,-0.1 6.63,-1.7 7.49,-4.73 0.63,-2.21 0.4,-1.07 0.58,-3.2 0.14,-1.65 3.84,-4.12 5.17,-5.01 1.41,-0.95 3.83,-0.8 4.94,0.47 1.47,1.67 4.71,4.22 6.54,5.54 1.48,1.06 -1.94,3.65 0.58,4.54 1.27,0.45 0.78,-3.66 2.34,-3.66 3.94,0 2.43,-2.64 -0.62,-3.93 -0.61,-0.25 -4.83,-3.85 -4.8,-4.89 0.08,-2.62 -0.41,-2.97 3.52,-1.17 0.7,0.32 7.81,8.11 7.8,8.38 -0.06,1.69 0.6,1.38 -0.35,3.48 -1.03,2.28 3.43,6.08 3.78,3.94 0.71,-4.34 -1.63,-5.45 -0.02,-7.78 1.07,-1.55 3.23,0.52 3.23,3.29 0,3.18 5.75,5.65 8.13,3.99 3.23,-2.25 4.4,1.52 3.24,4.18 -0.79,1.83 -2.14,5.03 -4.42,5.03 -4.7,0 -8.97,-0.99 -13.1,-3.1 -0.67,-0.34 -3.91,1.41 -2.49,2.59 2.26,1.87 -1.98,4.54 -6.13,-0.65 -3.9,-4.89 -2.25,-0.08 -6.05,-3.3 -2.34,-1.99 3.08,-2.53 -1.23,-5.59 -0.1,-0.07 -0.33,-0.03 -0.46,-0.03l-3.94 0c-5.16,0.96 -5.16,0.91 -9.25,3.04 -1.72,0.89 -1.21,-1.39 -4.59,0.12 -2.72,1.22 -3.9,-1.28 -6.29,4.23 -1.93,4.45 -5.36,6.04 -7.04,10.34 -2.3,5.89 -5.98,5.69 -3.14,12.78 0.7,1.74 0.17,2.87 -0.71,4.19 -1.02,1.56 -3.44,6.37 -1.64,8.14 1.67,1.65 0.83,3.74 2.3,5.52 2.93,3.54 6.55,3.45 10.06,6.3 3.03,2.47 2.23,2.31 7.08,0.32 4.65,-1.91 5.83,-5.28 11.16,0.68 4.24,4.75 3.28,-1.01 5.52,1.26 1.23,1.24 0.75,9.44 1.55,12.6 1.52,5.96 3.44,4.41 3.24,13.17 -0.08,3.39 0.06,1.42 -0.87,4.42 -0.35,1.12 -0.18,10.73 0.35,11.68 1.2,2.14 1.06,2.38 2.62,4.65 0.42,0.62 3.27,5.96 3.41,6.68 0.65,3.33 2.1,6.31 2.28,10.07 0.42,9 13.05,1.22 13.37,0.9 2.38,-2.38 4.68,-4.75 4.92,-8.25 0.22,-3.11 7.29,-4.65 5.29,-10.97 -1.07,-3.39 0.6,-5.24 2.93,-7.58 5.71,-5.73 5.67,-4.29 2.36,-12.75 -2.86,-7.31 0.87,-6.4 0.87,-11.16 0.94,-3.58 4.22,-5.16 6.4,-8.25 3.03,-4.3 4.37,-4.19 7.25,-10.06 1.64,-3.34 5.45,-6.44 0.84,-8.96 -2.1,-1.15 -4.74,6.7 -10.68,-0.14 -1.55,-1.78 0.45,-1.48 -3.17,-4.39 -3.07,-2.47 -2.27,-6.11 -4.21,-9.2 -2.36,-3.74 -2.9,-4.2 -6.17,-7.33 -0.42,-0.4 -0.88,-0.89 -0.84,-1.5 -0.88,-2.61 -1.2,-4.41 0.39,-6.75 0.03,-0.05 8.66,7.72 9.44,11.16 1.01,4.44 3.5,6.77 4.03,10.55 0.31,2.17 0.9,3.42 0.9,5.85 0,0.71 0.79,1.31 1.34,1.7 1.14,0.81 1.17,-0.46 4.72,-2.73 1.11,-0.71 6.55,-4.64 7,-5.13 1.31,-1.4 10.85,-8.97 7.86,-11.17 -2.7,-1.97 -0.93,0.56 -3.77,-3.5 -3.34,-4.77 -3.28,5 -8.58,0.32 -2.73,-2.42 -5.99,-11.63 -1.19,-6.83 6.54,6.54 8.1,1.18 12.91,5.91 3.07,3.02 8.69,-1.15 11.32,2.11 0.99,1.23 3.9,3.48 4.23,4.81 0.6,2.41 2.19,0.19 2.76,-1.04 0.24,-0.53 1.77,2.65 1.91,3.87 0.32,2.86 1.35,1.76 0.78,5.88 -0.5,3.63 1.74,4.5 2.97,7.81 0.88,2.39 2.41,4.5 3.54,6.75 0.01,0.02 0.58,-1.78 1.62,-2.94 2.41,-2.68 1.78,-3.96 1.78,-7.19 0,-4.14 0.04,-6.01 3.26,-8.59 0.81,-0.65 3.17,-3.53 4.8,-4.95 2.35,-2.05 0.76,-1.48 5.38,0.06 5.28,1.76 4.21,8.57 5.37,8.56 2.3,-0.01 2.94,-1.74 4.94,2.53 1.12,2.4 0.73,5.23 0.48,8.3 -0.18,2.19 -1.13,3.79 2.46,8.74 0.44,0.61 5.03,7.48 5.7,6.08 3.11,-6.48 -7.26,-11.77 -5.54,-14.81 1.66,-2.92 1.11,-4.03 4.53,-0.15 2.86,3.24 4.79,-1.09 7.26,-3.32 4.41,-3.97 -5.26,-8.51 -5.31,-11.44 -0.04,-2.5 0.11,-4.02 3.26,-3.95 3.45,0.08 2.15,1.68 5.93,-1.19 3.56,-2.7 12.15,-7.51 7.09,-12.81 -1.88,-1.96 -3.99,-6.86 -3.85,-8.02 0.14,-1.16 0.63,-1.83 3.05,-4.41 2.79,-2.96 -4.18,-1.1 -5.61,-2.48 -2.89,-2.8 -0.76,-3.29 2.3,-4.29 0.68,-0.22 6.7,3.1 7.42,5.37 0.73,2.28 1.57,9.95 4.71,4.76 1.19,-1.97 -2.21,-5.52 -3.39,-7.48 -1.34,-2.25 1.05,-5.18 2.09,-4.76 1.55,0.63 3.87,-2.86 3.95,-3.79 0.16,-1.88 -0.29,-3.82 0.2,-5.77 1.09,-4.3 -1.76,-4.15 -3.23,-7.63 -0.46,-1.1 -4.24,-4.09 -4.33,-4.07 -0.65,0.18 -0.81,2.98 -3.78,-0.86 -0.85,-1.1 2.25,-3.74 3.01,-5.12 1.96,-3.53 3.01,0.86 7.4,-2.34 0.7,-0.51 1.93,1.64 2.54,-0.37 0.01,-0.36 1.36,-2.64 3.44,-1.76 2.57,1.09 2.35,-2.53 4.91,1.32 1.5,2.25 -6.82,2.87 1.98,9.33 0.62,0.45 4.29,3.3 4.69,3.86 1.45,-0.52 -0.49,-6.34 -1.5,-7.56 -7.63,-9.16 4.23,-3.87 5.96,-9.43 0.55,-0.1 4.56,1 3.49,-0.9 -0.41,-0.73 -5.58,-2.82 -2.4,-3.39 0.86,-0.15 5.47,2.84 5.86,0.2 0.4,-2.67 1.43,-1.27 -2.51,-2.02 -8.95,-1.7 -7.28,-6.17 -19.9,-4.77 -4.82,0.53 -3.24,3.16 -6.79,0.66 -1.97,-1.39 -10.4,-0.5 -13.6,-1.48 -4.09,-1.25 -5.68,0.61 -9.75,-2.84 -0.28,-0.24 -4.05,-1.94 -4.75,-1.46 -2.81,1.97 -11.4,5.66 -14,2.93 -2.15,-2.26 -3.39,-4.21 -7.05,-4.18 -1.01,0.01 -2.31,2.58 -5.69,1.69 -3.39,-0.89 -7.07,0.09 -7.45,-0.33 -0.38,-0.43 2.19,-1.2 -2.6,-3.89 -1.71,-0.96 -9.07,-1.55 -10.94,0.21 -2.65,2.5 -3.11,0.11 -6.16,0.75 -0.34,0.07 -3.51,1.84 -2.86,2.43 0.63,0.57 -5.02,1.35 -7.06,3.11 -2.22,1.92 -1.68,1.05 0.02,3.91 2.35,3.94 -2.58,3.84 -2.61,2.8 -0.05,-2.14 2.96,-2.07 -0.76,-5.9 -1.38,-1.42 -3.16,-3.3 -4.2,-0.19 -0.55,1.63 4.79,4.82 -1.4,4.02 -2.89,-0.37 -0.56,-1 -4.99,-0.26 -3.8,0.63 -5.23,0.03 -8.65,0.03 -3.39,0 -3.85,2.1 -4.58,2.2 -0.73,0.11 -1.34,1.11 -1.97,1.36z"/>
   <path class="fil0" d="M318.48 125.57c-0.75,-0.39 -1.54,-1.09 -1.15,1.51 0.13,0.88 3.95,5.23 4.93,6.75 1.89,2.91 1.19,1.76 2.46,4.67 0.27,0.63 4.88,7.4 5.3,7.27 1.65,-0.51 2.44,-2.8 2.05,-4.41 -0.73,-2.99 -3.5,-4.44 -4.82,-6.93 -1.74,-3.28 -4.93,-5.46 -7.36,-8.22 -0.48,-0.54 -0.84,-0.35 -1.41,-0.65z"/>
   <path class="fil0" d="M333.26 144.93c-6.38,4.15 6.21,4.23 9.27,5.91 2.89,1.59 4.74,-0.54 7.25,1.49 1.76,1.42 4.6,-0.78 7.78,-0.63 0.55,0.03 8.77,-4.81 -6.04,-2.43 -2.83,0.46 -4.32,0.03 -6.72,-1.35 -1.29,-0.74 -4.87,-3.8 -6.59,-2.02 -2.26,2.34 -3.7,-1.77 -4.94,-0.96z"/>
   <path class="fil0" d="M336.32 132.77c-0.97,-0.18 -2.28,2.76 1.08,5.54 2.51,2.08 1.32,3.45 4.75,3.75 2.95,0.26 4.87,3.91 4.72,-2.33 -0.1,-3.87 3.4,-4.31 0.85,-8.32 -0.8,-1.25 1.06,-4.29 1.6,-5.94 0.94,-2.85 -1.92,-3.6 -4.62,0.07 -1.54,2.11 -2.87,2.39 -4.45,4.57 -0.8,1.1 -0.93,0.64 -1.66,1.41 -0.51,0.54 -0.89,1.25 -1.29,1.41 -0.23,0.09 -0.25,-0.05 -0.97,-0.19z"/>
   <path class="fil0" d="M350.67 102.66c-1.17,0.96 -1.84,5.23 -0.67,6.41 1.34,1.34 2.77,2.33 0.93,3.61 -1.54,1.08 2.56,3.37 2.68,5.7 0.07,1.46 3.36,3.14 1.5,-0.3 -1.09,-2.01 1.73,0.05 2.66,-2.9 0.23,-0.71 -4.58,-5.08 -4.4,-8.89 0.04,-0.89 -2.46,-2.98 -2.62,-3.34l-0.09 -0.29z"/>
   <path class="fil0" d="M358.12 120.01c-2.23,0.7 -0.03,1.73 -3.9,0.41 -1.62,1.15 2.33,3.45 3.38,4.93 2.24,3.19 1.51,0.22 2.53,-2.2 0.4,-0.95 -1.69,-3.24 -2.01,-3.14z"/>
   <path class="fil0" d="M367.5 138.29c3.69,3.11 -1,2.55 5.79,5.04 2.23,0.82 4.16,4.38 2.82,4.87 -2.72,0.98 -0.74,3.6 0.91,2.38 2.66,-1.97 3.76,2.71 4.92,1.26 2.73,-3.4 2.61,-1.41 6.79,0.86 1.26,0.68 2.99,2.92 3.52,0.59 0.28,-1.25 -4.77,-2.41 -2.7,-6.89 0.77,-1.66 -4.07,-4.04 -5.5,-5.39 -0.62,-0.59 -7.64,-3.97 -8.54,-3.81 -1.88,0.33 -0.94,4.32 -3.56,3.06 -0.87,-0.42 -0.62,-2.44 -2.68,-3.99 -0,-0 -0.35,-0.37 -0.69,-0.73 -1.46,-1.52 -2.87,1.25 -1.09,2.75z"/>
   <path class="fil0" d="M338.31 193.84c-0.25,-4.53 3.21,-6.13 1.07,-14.1 -0.45,-1.68 -0.6,-4.88 0.58,-6.47 1.15,-1.56 5.28,-2.17 8.08,-3.48 4.67,-2.19 5.31,-4.69 7.47,-6.81 1.28,-1.25 4.19,-3.99 5.27,-2.92 1.35,1.33 2.34,-1 4.17,-2.37 2.91,-2.18 6.67,-2.74 6.8,2.15 0.06,2.1 -1.02,4.26 3.78,6.24 3.08,1.28 4.18,-10.56 5.41,-11.32 0.23,-1.6 0.53,3.46 1.57,5.04 2.23,3.38 1.24,4.01 2.49,8.16 0.82,2.72 2.56,2.1 3.82,6.12 2.29,7.29 3.02,2.82 -0.44,12.73 -1.29,3.71 -2.67,6.02 -5.12,8.96 -1.19,1.44 -1.95,4.17 -4.63,5.41 -6.51,3.03 -5.73,-0.43 -8.28,1.18 -1.1,0.69 -3.8,-1.73 -3.13,-3.16 0.9,-1.93 2.11,-9.08 -1.19,-7.34 -5.01,2.63 -2.42,1.09 -6.19,-2.21 -0.92,-0.8 -7.15,2.04 -9.6,2.48 -6.96,1.24 -2.71,-0.58 -7.37,2.72 -0.72,0.51 -3.78,0.59 -4.2,-0.22 -0.18,-0.35 -0.33,-0.31 -0.36,-0.8z"/>
   <path class="fil0" d="M252.85 158.71c0.56,-2.65 1.72,-1.31 1.72,1.26 0,4.82 -1.95,8.81 -2.8,13.49 -0.28,1.52 -4.11,8.87 -5.89,4.88 -0.07,-0.15 -1.06,-6.83 -0.69,-7.2 5.05,-5.09 -1.61,-3.21 1.64,-8.12 1.38,-2.08 4.82,-0.89 6.01,-4.32z"/>
  </g>
 </g>
</svg>
