<?xml version="1.0" encoding="UTF-8"?>
<!DOCTYPE svg PUBLIC "-//W3C//DTD SVG 1.1//EN" "http://www.w3.org/Graphics/SVG/1.1/DTD/svg11.dtd">
<!-- Creator: CorelDRAW 2018 (64-Bit) -->
<svg xmlns="http://www.w3.org/2000/svg" xml:space="preserve" width="17.5862mm" height="9.1194mm" version="1.1" style="shape-rendering:geometricPrecision; text-rendering:geometricPrecision; image-rendering:optimizeQuality; fill-rule:evenodd; clip-rule:evenodd"
viewBox="0 0 538.93 279.46"
 xmlns:xlink="http://www.w3.org/1999/xlink">
 <defs>
  <style type="text/css">
   <![CDATA[
    .str0 {stroke:#806040;stroke-width:9.19;stroke-miterlimit:22.9256}
    .fil0 {fill:none}
    .fil1 {fill:#806040;fill-rule:nonzero}
   ]]>
  </style>
 </defs>
 <g id="пояснения_x0020_к_x0020_карточкам">
  <metadata id="CorelCorpID_0Corel-Layer"/>
  <g id="по_x0020_ориентации">
   <rect class="fil0 str0" x="4.6" y="4.6" width="172.98" height="270.27"/>
   <g>
    <path class="fil1" d="M91.09 41.82l19.86 39.72 -39.72 0 19.86 -39.72zm-7.66 156.63l0 -117.44 15.32 0 0 117.44 -15.32 0zm7.66 39.19l-19.86 -39.72 39.72 0 -19.86 39.72z"/>
   </g>
   <rect class="fil0 str0" transform="matrix(2.64845E-14 -1 1 2.64845E-14 264.062 226.223)" width="172.98" height="270.27"/>
   <g>
    <path class="fil1" d="M301.28 139.73l39.72 -19.86 0 39.72 -39.72 -19.86zm156.63 7.66l-117.44 0 0 -15.32 117.44 0 0 15.32zm39.19 -7.66l-39.72 19.86 0 -39.72 39.72 19.86z"/>
   </g>
  </g>
 </g>
</svg>
