<?xml version="1.0" encoding="UTF-8"?>
<!DOCTYPE svg PUBLIC "-//W3C//DTD SVG 1.1//EN" "http://www.w3.org/Graphics/SVG/1.1/DTD/svg11.dtd">
<!-- Creator: CorelDRAW 2018 (64-Bit) -->
<svg xmlns="http://www.w3.org/2000/svg" xml:space="preserve" width="33.6024mm" height="10.1561mm" version="1.1" style="shape-rendering:geometricPrecision; text-rendering:geometricPrecision; image-rendering:optimizeQuality; fill-rule:evenodd; clip-rule:evenodd"
viewBox="0 0 591.31 178.72"
 xmlns:xlink="http://www.w3.org/1999/xlink">
 <defs>
  <style type="text/css">
   <![CDATA[
    .str0 {stroke:#806040;stroke-width:3.52;stroke-miterlimit:22.9256}
    .str1 {stroke:#806040;stroke-width:8.8;stroke-linecap:round;stroke-linejoin:round;stroke-miterlimit:22.9256}
    .str2 {stroke:#806040;stroke-width:5.28;stroke-linecap:round;stroke-linejoin:round;stroke-miterlimit:22.9256}
    .str4 {stroke:#806040;stroke-width:3.52;stroke-linecap:round;stroke-linejoin:round;stroke-miterlimit:22.9256}
    .str3 {stroke:#806040;stroke-width:2.64;stroke-miterlimit:22.9256}
    .fil0 {fill:none}
    .fil1 {fill:#C4B497}
   ]]>
  </style>
 </defs>
 <g id="гор_x0020_меню_x0020_с_x0020_подложкой">
  <metadata id="CorelCorpID_0Corel-Layer"/>
  <g id="_2422449359360">
   <g id="по_x0020_типу">
    <rect class="fil0 str0" x="1.76" y="34.04" width="171.49" height="104.76"/>
    <rect class="fil0 str0" x="224.23" y="34.04" width="171.49" height="104.76"/>
    <path class="fil0 str1" d="M17.23 119.34c16.62,-11.48 76.59,-47.73 119.05,-60.95"/>
    <path class="fil0 str2" d="M30.27 96.06c0,-10.38 3.28,-30.05 16.52,-18.94 1.35,-5.45 1.38,-16.15 15.57,-22.26 6.63,-2.85 14.24,2.18 16.14,3.83 5.11,-4.83 11.04,-22.7 40.46,-9.43"/>
    <path class="fil0 str1" d="M40.51 116.55c30.01,23.91 36.43,-5.18 38.42,-9.86 11.21,8.92 35.23,8.48 41.66,-9 2.76,1.82 23.36,13.67 32.67,-1.62 6.55,-10.76 4.99,-38.77 -10.09,-45.4"/>
    <path class="fil0 str1" d="M239.71 115.33c16.62,-11.48 76.59,-47.73 119.05,-60.95"/>
    <path class="fil0 str2" d="M252.74 92.05c0,-10.38 3.28,-30.05 16.52,-18.94 1.35,-5.45 1.38,-16.15 15.57,-22.26 6.63,-2.85 14.24,2.18 16.14,3.83 5.11,-4.83 11.04,-22.7 40.46,-9.43"/>
    <path class="fil0 str1" d="M262.99 112.54c30.01,23.91 36.43,-5.18 38.42,-9.86 11.21,8.92 35.23,8.48 41.66,-9 2.76,1.82 23.36,13.67 32.67,-1.62 6.55,-10.76 4.99,-38.77 -10.09,-45.4"/>
    <path class="fil1 str3" d="M338.44 127.93l0 -3.93c1.12,0 2.02,-0.9 2.02,-2.02 0,-1.12 -0.91,-2.02 -2.02,-2.02l0 -4.04c1.12,0 2.02,-0.91 2.02,-2.02 0,-1.12 -0.91,-2.02 -2.02,-2.02l0 -4.05c1.12,0 2.02,-0.9 2.02,-2.02 0,-1.12 -0.91,-2.02 -2.02,-2.02l0 -4.04c1.12,0 2.02,-0.91 2.02,-2.02 0,-1.12 -0.91,-2.02 -2.02,-2.02l0 -4.04c1.12,0 2.02,-0.91 2.02,-2.02 0,-1.12 -0.91,-2.02 -2.02,-2.02l0 -4.05c1.12,0 2.02,-0.9 2.02,-2.02 0,-1.12 -0.91,-2.02 -2.02,-2.02l-0.01 -3.76 3.64 0c0,1.12 0.91,2.02 2.02,2.02 1.12,0 2.02,-0.91 2.02,-2.02l4.04 0c0,1.12 0.91,2.02 2.02,2.02 1.12,0 2.02,-0.91 2.02,-2.02l4.04 0c0,1.12 0.9,2.02 2.02,2.02 1.12,0 2.02,-0.91 2.02,-2.02l4.04 0c0,1.12 0.91,2.02 2.02,2.02 1.12,0 2.02,-0.91 2.02,-2.02l4.04 0c0,1.12 0.91,2.02 2.02,2.02 1.12,0 2.02,-0.91 2.02,-2.02l4.16 -0.02 0 3.6c-1.12,0 -2.02,0.91 -2.02,2.02 0,1.12 0.91,2.02 2.02,2.02l0 4.05c-1.12,0 -2.02,0.9 -2.02,2.02 0,1.12 0.91,2.02 2.02,2.02l0 4.04c-1.12,0 -2.02,0.91 -2.02,2.02 0,1.12 0.91,2.02 2.02,2.02l0 4.04c-1.12,0 -2.02,0.9 -2.02,2.02 0,1.12 0.91,2.02 2.02,2.02l0 4.04c-1.12,0 -2.02,0.91 -2.02,2.02 0,1.12 0.91,2.02 2.02,2.02l0 4.04c-1.12,0 -2.02,0.91 -2.02,2.02 0,1.12 0.91,2.02 2.02,2.02l0.02 4.1 -4.09 0.01c0,-1.12 -0.91,-2.02 -2.02,-2.02 -1.12,0 -2.02,0.91 -2.02,2.02l-4.04 0c0,-1.12 -0.91,-2.02 -2.02,-2.02 -1.12,0 -2.02,0.91 -2.02,2.02l-4.05 0c0,-1.12 -0.9,-2.02 -2.02,-2.02 -1.12,0 -2.02,0.91 -2.02,2.02l-4.04 0c0,-1.12 -0.91,-2.02 -2.02,-2.02 -1.12,0 -2.02,0.91 -2.02,2.02l-4.04 0c0,-1.12 -0.9,-2.02 -2.02,-2.02 -1.12,0 -2.02,0.91 -2.02,2.02l-3.71 0z"/>
   </g>
   <g id="книжка">
    <rect class="fil1 str4" transform="matrix(1 -0.242031 -0 0.866212 454.161 19.414)" width="72.94" height="143.56"/>
    <rect class="fil0 str2" transform="matrix(-0.829779 -0.710476 -0 0.847096 588.668 54.4711)" width="72.94" height="143.56"/>
   </g>
  </g>
 </g>
</svg>
