<?xml version="1.0" encoding="UTF-8"?>
<!DOCTYPE svg PUBLIC "-//W3C//DTD SVG 1.1//EN" "http://www.w3.org/Graphics/SVG/1.1/DTD/svg11.dtd">
<!-- Creator: CorelDRAW 2018 (64-Bit) -->
<svg xmlns="http://www.w3.org/2000/svg" xml:space="preserve" width="14.8089mm" height="3.4162mm" version="1.1" style="shape-rendering:geometricPrecision; text-rendering:geometricPrecision; image-rendering:optimizeQuality; fill-rule:evenodd; clip-rule:evenodd"
viewBox="0 0 403.67 93.12"
 xmlns:xlink="http://www.w3.org/1999/xlink">
 <defs>
  <style type="text/css">
   <![CDATA[
    .fil0 {fill:#806040;fill-rule:nonzero}
   ]]>
  </style>
 </defs>
 <g id="пояснения_x0020_к_x0020_карточкам">
  <metadata id="CorelCorpID_0Corel-Layer"/>
  <path id="по_x0020_году" class="fil0" d="M30.77 87.81l-11.21 0 -11.15 -0.06c-2.64,0 -4.48,-0.17 -5.54,-0.5 -1.91,-0.69 -2.86,-2.12 -2.86,-4.29 0,-3.81 2.94,-5.71 8.83,-5.71l2.71 0.06 2.31 0.11c0,-1.81 -0.16,-4.46 -0.46,-8 -0.31,-3.52 -0.46,-6.16 -0.46,-7.92 0,-4.77 0.42,-12 1.27,-21.73 0.81,-9.56 1.19,-16.83 1.15,-21.77 -5,3.92 -8.19,5.89 -9.58,5.89 -1.48,0 -2.79,-0.56 -3.88,-1.69 -1.1,-1.12 -1.65,-2.42 -1.65,-3.89 0,-1.77 1.6,-3.9 4.81,-6.42 2.02,-1.42 4.88,-3.71 8.58,-6.87 3.29,-3.35 6.42,-5.02 9.4,-5.02 2.5,0 3.75,1.44 3.75,4.33 0,0.87 -0.1,2.15 -0.29,3.87 -0.19,1.69 -0.29,2.98 -0.29,3.85 0,1.23 0.06,3.12 0.17,5.64 0.11,2.5 0.17,4.38 0.17,5.62 0,4.29 -0.44,10.66 -1.33,19.14 -0.88,8.48 -1.32,14.83 -1.32,19.08 0,2.17 0.15,4.81 0.44,7.92 0.29,3.12 0.44,5.67 0.48,7.65l5.94 -0.11c1.58,0 2.89,0.52 3.93,1.56 1.04,1.04 1.56,2.33 1.56,3.87 0,1.58 -0.52,2.89 -1.56,3.91 -1.02,1.02 -2.33,1.52 -3.91,1.52zm56.51 -6.87c-2.73,2.04 -7.12,4.48 -13.16,7.33 -6.71,3.23 -11.39,4.85 -14,4.85 -1.54,0 -2.81,-0.56 -3.81,-1.69 -0.98,-1.11 -1.48,-2.44 -1.48,-3.94 0,-2.21 1.27,-3.87 3.83,-5l9.39 -3.19c5.81,-2.36 10.4,-5.09 13.79,-8.17 3.37,-3.06 6.44,-7.44 9.21,-13.1l2.42 -4.83c-2.1,1.19 -4.81,2.31 -8.11,3.33 -3.31,1.02 -5.98,1.52 -8.06,1.52 -7.1,0 -13.23,-1.98 -18.42,-5.92 -6.31,-4.81 -9.46,-11.66 -9.46,-20.52 0,-10.48 3.23,-18.37 9.69,-23.62 5.52,-4.48 12.75,-6.71 21.73,-6.71 6.9,0 13.1,2.81 18.58,8.44 5.79,5.98 8.69,13.17 8.73,21.64 0.04,9.54 -1.73,18.79 -5.29,27.75 -3.83,9.69 -9.02,16.98 -15.58,21.85zm-8 -69.99c-6.31,0 -11.04,1.64 -14.22,4.9 -3.17,3.25 -4.77,8.17 -4.81,14.73 0,5.52 1.94,9.79 5.81,12.83 3.4,2.67 7.7,4 12.89,4 3,0 6.13,-0.9 9.4,-2.69 1.5,-0.83 4.19,-2.69 8.1,-5.58 0.48,-3.27 0.73,-5.85 0.73,-7.77 -0.04,-4.69 -2.02,-9.27 -5.94,-13.73 -3.92,-4.46 -7.91,-6.69 -11.96,-6.69zm67.81 80.89c-9.79,0 -17,-3.6 -21.62,-10.77 -3.83,-5.89 -5.75,-13.77 -5.75,-23.6 0,-18.56 7.54,-34.66 22.62,-48.29l5.29 -5.36c2.6,-2.48 4.56,-3.71 5.86,-3.71 1.5,0 2.83,0.54 3.94,1.62 1.13,1.06 1.71,2.33 1.75,3.81 0.08,1.34 -1.85,3.96 -5.75,7.85l-11.52 11.23c-3.04,3.1 -5.65,7.75 -7.85,14 3.27,-1.5 6.14,-2.62 8.58,-3.37 2.42,-0.73 4.44,-1.1 6.02,-1.1 8.79,0 15.52,2.35 20.21,7.04 4.69,4.69 7.04,11.31 7.04,19.87 0,8.96 -2.54,16.29 -7.6,21.96 -5.29,5.89 -12.36,8.83 -21.23,8.83zm0 -46.16c-3.23,0 -6.12,0.56 -8.67,1.69 -0.98,0.44 -3.44,1.89 -7.38,4.33 -0.23,1.98 -0.35,3.92 -0.35,5.83 0,6.71 1.13,12.17 3.38,16.4 2.85,5.41 7.31,8.1 13.35,8.1 5.69,0 10.08,-2.02 13.19,-6.06 2.9,-3.75 4.35,-8.71 4.35,-14.91 0,-5.12 -1.48,-8.96 -4.44,-11.54 -2.98,-2.56 -7.44,-3.85 -13.43,-3.85zm76.49 42.12l-11.21 0 -11.15 -0.06c-2.64,0 -4.48,-0.17 -5.54,-0.5 -1.91,-0.69 -2.86,-2.12 -2.86,-4.29 0,-3.81 2.94,-5.71 8.83,-5.71l2.71 0.06 2.31 0.11c0,-1.81 -0.16,-4.46 -0.46,-8 -0.31,-3.52 -0.46,-6.16 -0.46,-7.92 0,-4.77 0.42,-12 1.27,-21.73 0.81,-9.56 1.19,-16.83 1.15,-21.77 -5,3.92 -8.19,5.89 -9.58,5.89 -1.48,0 -2.79,-0.56 -3.88,-1.69 -1.1,-1.12 -1.65,-2.42 -1.65,-3.89 0,-1.77 1.6,-3.9 4.81,-6.42 2.02,-1.42 4.88,-3.71 8.58,-6.87 3.29,-3.35 6.42,-5.02 9.4,-5.02 2.5,0 3.75,1.44 3.75,4.33 0,0.87 -0.1,2.15 -0.29,3.87 -0.19,1.69 -0.29,2.98 -0.29,3.85 0,1.23 0.06,3.12 0.17,5.64 0.11,2.5 0.17,4.38 0.17,5.62 0,4.29 -0.44,10.66 -1.33,19.14 -0.88,8.48 -1.32,14.83 -1.32,19.08 0,2.17 0.15,4.81 0.44,7.92 0.29,3.12 0.44,5.67 0.48,7.65l5.94 -0.11c1.58,0 2.89,0.52 3.93,1.56 1.04,1.04 1.56,2.33 1.56,3.87 0,1.58 -0.52,2.89 -1.56,3.91 -1.02,1.02 -2.33,1.52 -3.91,1.52zm85.03 -26.75c-5.11,0.52 -14.21,0.79 -27.29,0.79 -3.15,0 -4.73,-1.46 -4.73,-4.39 0,-2.92 1.58,-4.38 4.73,-4.38 2.98,0 7.42,-0.14 13.37,-0.4 5.92,-0.27 10.39,-0.41 13.35,-0.41 3.34,0 5.02,1.46 5.02,4.39 0,2.6 -1.48,4.06 -4.44,4.41zm59.35 31.94c-1.94,0 -3.6,-0.67 -4.96,-2.02 -1.35,-1.37 -2.02,-3.02 -2.02,-4.96 0,-1.92 0.67,-3.56 2.02,-4.92 1.37,-1.37 3.02,-2.06 4.96,-2.06 1.92,0 3.56,0.69 4.93,2.06 1.37,1.37 2.06,3 2.06,4.92 0,1.94 -0.69,3.6 -2.06,4.96 -1.37,1.35 -3,2.02 -4.93,2.02zm28.73 0c-1.94,0 -3.6,-0.67 -4.96,-2.02 -1.35,-1.37 -2.02,-3.02 -2.02,-4.96 0,-1.92 0.67,-3.56 2.02,-4.92 1.37,-1.37 3.02,-2.06 4.96,-2.06 1.92,0 3.56,0.69 4.93,2.06 1.37,1.37 2.06,3 2.06,4.92 0,1.94 -0.69,3.6 -2.06,4.96 -1.37,1.35 -3,2.02 -4.93,2.02z"/>
 </g>
</svg>
