<?xml version="1.0" encoding="UTF-8"?>
<!DOCTYPE svg PUBLIC "-//W3C//DTD SVG 1.1//EN" "http://www.w3.org/Graphics/SVG/1.1/DTD/svg11.dtd">
<!-- Creator: CorelDRAW 2018 (64-Bit) -->
<svg xmlns="http://www.w3.org/2000/svg" xml:space="preserve" width="132.558mm" height="14.7873mm" version="1.1" style="shape-rendering:geometricPrecision; text-rendering:geometricPrecision; image-rendering:optimizeQuality; fill-rule:evenodd; clip-rule:evenodd"
viewBox="0 0 8738.6 974.82"
 xmlns:xlink="http://www.w3.org/1999/xlink">
 <defs>
  <style type="text/css">
   <![CDATA[
    .str0 {stroke:#806040;stroke-width:32.96;stroke-miterlimit:22.9256}
    .str1 {stroke:#6F97B3;stroke-width:23.07;stroke-linecap:round;stroke-linejoin:round;stroke-miterlimit:22.9256}
    .fil0 {fill:none}
    .fil1 {fill:#806040;fill-rule:nonzero}
    .fil4 {fill:url(#id0)}
    .fil2 {fill:url(#id1)}
    .fil3 {fill:url(#id2)}
   ]]>
  </style>
  <radialGradient id="id0" gradientUnits="userSpaceOnUse" gradientTransform="matrix(1 -0 -0 1 0 0)" cx="8441.68" cy="773.33" r="93.02" fx="8441.68" fy="773.33">
   <stop offset="0" style="stop-opacity:1; stop-color:#D6E7F0"/>
   <stop offset="0.541176" style="stop-opacity:1; stop-color:#A2BED1"/>
   <stop offset="1" style="stop-opacity:1; stop-color:#6E96B3"/>
  </radialGradient>
  <radialGradient id="id1" gradientUnits="userSpaceOnUse" gradientTransform="matrix(1 -0 -0 1 0 0)" xlink:href="#id0" cx="307.27" cy="222.79" r="93.02" fx="307.27" fy="222.79">
  </radialGradient>
  <radialGradient id="id2" gradientUnits="userSpaceOnUse" gradientTransform="matrix(1 -0 -0 1 0 0)" xlink:href="#id0" cx="307.27" cy="773.33" r="93.02" fx="307.27" fy="773.33">
  </radialGradient>
 </defs>
 <g id="футер">
  <metadata id="CorelCorpID_0Corel-Layer"/>
  <rect class="fil0 str0" x="16.48" y="16.48" width="8705.64" height="941.86"/>
  <path class="fil1" d="M1571.58 175.67c20.87,0 40.87,5.26 60.01,15.74 19.19,10.48 34.26,25.45 45.21,44.93 10.95,19.43 16.42,39.78 16.42,61.1 0,21.21 -5.37,41.4 -16.09,60.66 -10.79,19.21 -25.75,34.19 -44.94,44.99 -19.24,10.75 -39.42,16.12 -60.61,16.12 -21.2,0 -41.36,-5.37 -60.6,-16.12 -19.19,-10.8 -34.15,-25.78 -44.94,-44.99 -10.74,-19.26 -16.1,-39.45 -16.1,-60.66 0,-21.33 5.48,-41.68 16.43,-61.1 10.94,-19.48 26.02,-34.46 45.21,-44.93 19.13,-10.48 39.13,-15.74 60,-15.74zm0 24.09c-16.69,0 -32.74,4.18 -48.14,12.53 -15.39,8.36 -27.48,20.35 -36.27,35.98 -8.77,15.62 -13.17,32.01 -13.17,49.17 0,16.93 4.34,33.15 12.96,48.62 8.62,15.41 20.65,27.46 36.05,36.09 15.44,8.63 31.66,12.97 48.57,12.97 16.91,0 33.12,-4.34 48.57,-12.97 15.4,-8.63 27.43,-20.67 36.05,-36.09 8.62,-15.47 12.96,-31.69 12.96,-48.62 0,-17.04 -4.4,-33.43 -13.18,-49.06 -8.78,-15.68 -20.87,-27.73 -36.26,-36.09 -15.4,-8.35 -31.45,-12.53 -48.14,-12.53zm29.27 115.91l25.7 8.46c-4.01,13.46 -10.68,23.77 -19.95,30.93 -9.27,7.17 -20.38,10.75 -33.23,10.75 -18.11,0 -32.8,-5.97 -44.23,-17.85 -11.38,-11.89 -17.08,-28.33 -17.08,-49.22 0,-13.73 2.55,-25.94 7.59,-36.68 5.1,-10.75 12.41,-18.72 21.96,-24.04 9.54,-5.32 20.22,-7.98 32.04,-7.98 13.01,0 23.85,3.09 32.58,9.33 8.67,6.18 15.45,16.01 20.32,29.41l-25.7 6.19c-2.93,-7.76 -6.77,-13.41 -11.44,-16.88 -4.71,-3.53 -10.24,-5.27 -16.69,-5.27 -9.6,0 -17.4,3.64 -23.53,10.91 -6.12,7.27 -9.16,18.61 -9.16,34.08 0,15.52 2.99,26.92 9.01,34.24 5.96,7.32 13.17,10.96 21.57,10.96 7.05,0 13.12,-2.12 18.27,-6.3 5.16,-4.23 9.16,-11.23 11.98,-21.06z"/>
  <path id="1" class="fil1" d="M1801.1 180.23l47.16 0 0 55.63c0,18.02 0.65,29.96 2,35.82 1.3,5.91 5.26,11.02 11.81,15.35 6.51,4.34 16.16,6.51 28.84,6.51 10.03,0 18.97,-1.09 26.84,-3.26 7.81,-2.17 14.58,-5.37 20.27,-9.6l0 -100.45 47.16 0 0 233.12 -47.16 0 0 -93.93c-9.54,4.23 -18.91,7.44 -28.14,9.6 -9.22,2.18 -18.27,3.26 -27.16,3.26 -23.2,0 -42.61,-5.48 -58.22,-16.44 -15.61,-10.96 -23.42,-29.96 -23.42,-56.98l0 -78.63z"/>
  <path id="2" class="fil1" d="M2130.79 359.95l44.56 7.49c-5.69,16.34 -14.74,28.76 -27.05,37.33 -12.36,8.52 -27.81,12.81 -46.29,12.81 -29.33,0 -51.06,-9.6 -65.11,-28.81 -11.11,-15.41 -16.7,-34.83 -16.7,-58.34 0,-28 7.32,-49.98 21.9,-65.82 14.58,-15.89 33.07,-23.82 55.41,-23.82 25.04,0 44.82,8.3 59.35,24.91 14.48,16.61 21.42,42.06 20.77,76.35l-111.57 0c0.33,13.24 3.91,23.55 10.79,30.93 6.84,7.38 15.39,11.07 25.59,11.07 6.99,0 12.84,-1.9 17.56,-5.7 4.77,-3.8 8.35,-9.93 10.78,-18.4zm2.6 -45.26c-0.33,-12.97 -3.64,-22.84 -9.98,-29.57 -6.34,-6.78 -14.03,-10.15 -23.15,-10.15 -9.7,0 -17.72,3.58 -24.06,10.69 -6.34,7.11 -9.44,16.82 -9.33,29.03l66.52 0z"/>
  <path id="3" class="fil1" d="M2212.81 244.37l41.64 0 0 24.8c5.42,-8.46 12.68,-15.3 21.9,-20.57 9.22,-5.21 19.46,-7.81 30.69,-7.81 19.57,0 36.2,7.71 49.87,23.11 13.66,15.36 20.49,36.85 20.49,64.31 0,28.27 -6.88,50.19 -20.65,65.88 -13.77,15.68 -30.46,23.49 -50.09,23.49 -9.33,0 -17.79,-1.85 -25.37,-5.59 -7.53,-3.69 -15.56,-10.04 -23.91,-19.05l0 84.55 -44.56 0 0 -233.12zm43.92 81.88c0,19.05 3.74,33.11 11.27,42.22 7.48,9.06 16.64,13.62 27.37,13.62 10.36,0 18.97,-4.18 25.85,-12.54 6.89,-8.35 10.3,-22.03 10.3,-41.08 0,-17.8 -3.53,-30.98 -10.63,-39.61 -7.04,-8.63 -15.83,-12.91 -26.28,-12.91 -10.9,0 -19.95,4.23 -27.11,12.7 -7.21,8.46 -10.78,21 -10.78,37.6z"/>
  <path id="4" class="fil1" d="M2544.24 413.35l-127.82 0 0 44.6 -36.1 0 0 -81.07 18.21 0c7.59,-8.52 13.82,-21.75 18.81,-39.82 4.94,-18.02 7.92,-48.95 8.84,-92.69l136.28 0 0 132.51 18.21 0 0 81.07 -36.43 0 0 -44.6zm-26.02 -36.47l0.16 -95.72 -54.15 0c-1.79,46.72 -9.16,78.63 -22.12,95.72l76.11 0z"/>
  <path id="5" class="fil1" d="M2644.37 296.46l-40.34 -7.16c4.56,-16.5 12.41,-28.71 23.53,-36.63 11.11,-7.92 27.65,-11.89 49.55,-11.89 19.88,0 34.74,2.33 44.5,7.05 9.7,4.72 16.58,10.69 20.53,17.96 3.96,7.27 5.97,20.56 5.97,39.99l-0.65 52.09c0,14.82 0.71,25.78 2.12,32.83 1.41,7.06 4.07,14.6 7.97,22.63l-44.23 0c-1.14,-2.93 -2.6,-7.27 -4.28,-13.03 -0.71,-2.66 -1.25,-4.39 -1.58,-5.21 -7.59,7.49 -15.72,13.08 -24.39,16.82 -8.68,3.74 -17.89,5.64 -27.7,5.64 -17.29,0 -30.96,-4.72 -40.93,-14.16 -9.97,-9.39 -14.96,-21.33 -14.96,-35.76 0,-9.49 2.27,-18.02 6.83,-25.51 4.56,-7.43 10.9,-13.18 19.14,-17.15 8.18,-3.96 20,-7.44 35.45,-10.42 20.82,-3.91 35.3,-7.6 43.31,-10.96l0 -4.5c0,-8.68 -2.11,-14.87 -6.34,-18.62 -4.28,-3.69 -12.3,-5.53 -24.07,-5.53 -7.97,0 -14.15,1.57 -18.59,4.77 -4.5,3.14 -8.08,8.73 -10.84,16.71zm59.84 36.15c-5.69,1.9 -14.74,4.17 -27.15,6.84 -12.37,2.66 -20.49,5.26 -24.29,7.76 -5.8,4.18 -8.73,9.39 -8.73,15.74 0,6.3 2.33,11.67 6.99,16.22 4.66,4.56 10.57,6.84 17.78,6.84 8.02,0 15.72,-2.66 23.03,-7.92 5.37,-4.07 8.95,-8.96 10.63,-14.82 1.13,-3.8 1.73,-11.07 1.73,-21.76l0 -8.89z"/>
  <path id="6" class="fil1" d="M2778.81 244.37l45.2 0 0 40.43c0,9.22 0.81,16.06 2.44,20.62 1.68,4.5 5.15,8.35 10.51,11.61 5.32,3.2 12.1,4.83 20.23,4.83 7.91,0 16.8,-1.79 26.67,-5.43l0 -72.07 44.56 0 0 168.98 -44.56 0 0 -67.56c-17.4,4.67 -30.62,7 -39.73,7 -13.67,0 -25.97,-2.93 -36.86,-8.85 -10.89,-5.86 -18.37,-13.4 -22.44,-22.57 -4.01,-9.18 -6.01,-21.39 -6.01,-36.63l0 -40.37z"/>
  <path id="7" class="fil1" d="M2962.41 326.8c0,-14.87 3.63,-29.25 10.94,-43.14 7.32,-13.95 17.67,-24.53 31.06,-31.85 13.39,-7.32 28.3,-11.02 44.83,-11.02 25.53,0 46.41,8.3 62.72,24.91 16.32,16.66 24.45,37.61 24.45,63 0,25.61 -8.24,46.83 -24.67,63.65 -16.47,16.82 -37.18,25.24 -62.17,25.24 -15.45,0 -30.19,-3.53 -44.23,-10.53 -13.99,-7 -24.66,-17.25 -31.99,-30.82 -7.32,-13.51 -10.94,-30.01 -10.94,-49.44zm45.86 2.39c0,16.76 3.96,29.63 11.87,38.53 7.96,8.96 17.73,13.4 29.38,13.4 11.6,0 21.36,-4.44 29.21,-13.4 7.86,-8.9 11.83,-21.87 11.83,-38.85 0,-16.55 -3.96,-29.3 -11.83,-38.2 -7.85,-8.96 -17.61,-13.41 -29.21,-13.41 -11.66,0 -21.42,4.45 -29.38,13.41 -7.92,8.9 -11.87,21.75 -11.87,38.53z"/>
  <path id="8" class="fil1" d="M3169.54 244.37l44.56 0 0 69.03c7.43,-0.87 12.68,-3.15 15.78,-6.84 3.03,-3.69 6.78,-11.77 11.11,-24.25 5.74,-16.66 11.98,-27.24 18.81,-31.91 6.78,-4.67 15.67,-7 26.73,-7 3.41,0 9.27,0.27 17.67,0.81l0.16 29.47c-11.81,0 -19.35,1.09 -22.6,3.31 -3.31,2.33 -6.89,9.28 -10.69,20.84 -5.2,15.52 -12.74,25.12 -22.49,28.71 14.09,3.9 26.02,16.22 35.78,36.9 0.49,1.09 1.09,2.17 1.73,3.36l24.94 46.56 -47.97 0 -22.23 -49c-4.55,-9.88 -8.51,-16.22 -11.87,-19.05 -3.31,-2.82 -8.29,-4.23 -14.85,-4.23l0 72.28 -44.56 0 0 -168.98z"/>
  <path id="9" class="fil1" d="M3332.97 368.75l44.56 0 0 31.96c0,12.91 -1.09,23.17 -3.31,30.61 -2.23,7.49 -6.45,14.21 -12.63,20.13 -6.18,5.97 -14.04,10.58 -23.53,14l-8.68 -18.56c8.95,-2.99 15.29,-7.05 19.08,-12.26 3.74,-5.16 5.74,-12.27 5.96,-21.27l-21.46 0 0 -44.6z"/>
  <path id="10" class="fil1" d="M3655.19 386l0 27.35 -154.17 0c-0.22,-6.89 0.92,-13.51 3.37,-19.92 3.96,-10.48 10.3,-20.84 19.03,-30.98 8.72,-10.15 21.19,-21.87 37.4,-35.16 25.2,-20.79 42.33,-37.23 51.28,-49.38 8.99,-12.16 13.49,-23.66 13.49,-34.51 0,-11.34 -4.07,-20.89 -12.2,-28.71 -8.13,-7.76 -18.76,-11.66 -31.82,-11.66 -13.82,0 -24.89,4.12 -33.17,12.37 -8.3,8.19 -12.47,19.59 -12.58,34.19l-29.28 -2.93c2,-21.93 9.6,-38.64 22.72,-50.14 13.17,-11.5 30.79,-17.26 52.96,-17.26 22.33,0 40.06,6.19 53.07,18.62 13.06,12.43 19.57,27.83 19.57,46.18 0,9.33 -1.9,18.5 -5.74,27.51 -3.79,9.06 -10.14,18.56 -18.97,28.54 -8.89,9.93 -23.58,23.66 -44.07,41.02 -17.19,14.43 -28.25,24.2 -33.13,29.36 -4.88,5.16 -8.89,10.31 -12.09,15.52l114.33 0z"/>
  <path id="11" class="fil1" d="M3686.14 298.31c0,-27.51 2.82,-49.76 8.46,-66.58 5.7,-16.88 14.1,-29.84 25.26,-38.91 11.11,-9.06 25.16,-13.57 42.07,-13.57 12.47,0 23.42,2.5 32.9,7.54 9.44,5.05 17.24,12.32 23.31,21.82 6.07,9.44 10.84,21 14.31,34.62 3.53,13.62 5.26,32.02 5.26,55.08 0,27.35 -2.81,49.49 -8.4,66.31 -5.58,16.88 -13.99,29.84 -25.16,38.96 -11.11,9.12 -25.2,13.68 -42.23,13.68 -22.39,0 -40,-7.98 -52.8,-23.99 -15.34,-19.53 -22.99,-51.17 -22.99,-94.96zm29.28 0.11c0,38.36 4.44,63.87 13.39,76.46 8.95,12.64 20,18.94 33.12,18.94 13.12,0 24.17,-6.35 33.12,-18.99 8.95,-12.7 13.4,-38.15 13.4,-76.4 0,-38.37 -4.44,-63.87 -13.4,-76.46 -8.89,-12.64 -20.05,-18.93 -33.44,-18.93 -13.12,0 -23.63,5.59 -31.5,16.71 -9.81,14.16 -14.69,40.42 -14.69,78.69z"/>
  <path id="12" class="fil1" d="M4016.98 386l0 27.35 -154.17 0c-0.22,-6.89 0.92,-13.51 3.37,-19.92 3.96,-10.48 10.3,-20.84 19.03,-30.98 8.73,-10.15 21.19,-21.87 37.4,-35.16 25.2,-20.79 42.33,-37.23 51.28,-49.38 9,-12.16 13.49,-23.66 13.49,-34.51 0,-11.34 -4.07,-20.89 -12.2,-28.71 -8.13,-7.76 -18.76,-11.66 -31.82,-11.66 -13.82,0 -24.88,4.12 -33.17,12.37 -8.3,8.19 -12.47,19.59 -12.58,34.19l-29.27 -2.93c2,-21.93 9.59,-38.64 22.71,-50.14 13.17,-11.5 30.79,-17.26 52.96,-17.26 22.33,0 40.05,6.19 53.07,18.62 13.06,12.43 19.57,27.83 19.57,46.18 0,9.33 -1.89,18.5 -5.74,27.51 -3.79,9.06 -10.14,18.56 -18.97,28.54 -8.89,9.93 -23.58,23.66 -44.07,41.02 -17.19,14.43 -28.25,24.2 -33.13,29.36 -4.88,5.16 -8.89,10.31 -12.09,15.52l114.33 0z"/>
  <path id="13" class="fil1" d="M4197.88 386l0 27.35 -154.17 0c-0.22,-6.89 0.92,-13.51 3.36,-19.92 3.96,-10.48 10.3,-20.84 19.03,-30.98 8.73,-10.15 21.19,-21.87 37.41,-35.16 25.2,-20.79 42.33,-37.23 51.28,-49.38 8.99,-12.16 13.49,-23.66 13.49,-34.51 0,-11.34 -4.06,-20.89 -12.2,-28.71 -8.13,-7.76 -18.76,-11.66 -31.82,-11.66 -13.82,0 -24.88,4.12 -33.17,12.37 -8.3,8.19 -12.47,19.59 -12.58,34.19l-29.28 -2.93c2,-21.93 9.6,-38.64 22.72,-50.14 13.17,-11.5 30.79,-17.26 52.96,-17.26 22.33,0 40.06,6.19 53.07,18.62 13.06,12.43 19.57,27.83 19.57,46.18 0,9.33 -1.9,18.5 -5.74,27.51 -3.8,9.06 -10.15,18.56 -18.97,28.54 -8.89,9.93 -23.59,23.66 -44.07,41.02 -17.19,14.43 -28.25,24.2 -33.13,29.36 -4.88,5.16 -8.89,10.31 -12.09,15.52l114.33 0z"/>
  <polygon id="14" class="fil1" points="4244.76,413.35 4244.76,380.79 4277.29,380.79 4277.29,413.35 "/>
  <path id="15" class="fil1" d="M4442.08 180.23l141.81 0 0 205.77 20.82 0 0 81.72 -27.32 0 0 -54.37 -154.17 0 0 54.37 -27.32 0 0 -81.72 17.88 0c18.87,-28.33 28.29,-85.57 28.29,-171.69l0 -34.08zm110.91 27.35l-81.31 0 0 11.94c0,19.86 -1.79,47.05 -5.37,81.51 -3.53,34.46 -10.57,62.78 -20.98,84.97l107.66 0 0 -178.42z"/>
  <polygon id="16" class="fil1" points="4637.62,244.37 4666.24,244.37 4666.24,373.25 4745.77,244.37 4776.5,244.37 4776.5,413.35 4747.88,413.35 4747.88,285.29 4668.46,413.35 4637.62,413.35 "/>
  <path id="17" class="fil1" d="M4856.72 336.84l0 -22.47c12.04,-0.11 20.28,-0.6 24.62,-1.41 4.38,-0.87 8.56,-3.37 12.47,-7.6 3.9,-4.23 5.85,-9.49 5.85,-15.84 0,-7.65 -2.55,-13.84 -7.7,-18.4 -5.15,-4.61 -11.76,-6.89 -19.95,-6.89 -16.1,0 -27.38,9.44 -33.83,28.33l-27.31 -4.56c8.45,-31.47 28.94,-47.21 61.36,-47.21 17.99,0 32.09,4.88 42.33,14.71 10.25,9.82 15.35,21.54 15.35,35.16 0,13.73 -6.67,24.69 -19.95,32.77 8.51,4.56 14.85,10.37 19.13,17.42 4.23,7.05 6.35,15.41 6.35,25.07 0,15.14 -5.53,27.4 -16.53,36.84 -11.06,9.44 -26.45,14.16 -46.3,14.16 -38.49,0 -60.83,-17.03 -66.95,-51.12l27 -5.86c2.44,10.75 7.37,19.1 14.85,25.02 7.48,5.91 15.99,8.85 25.64,8.85 9.64,0 17.67,-2.72 24.06,-8.19 6.4,-5.43 9.6,-12.37 9.6,-20.84 0,-6.57 -2,-12.27 -6.02,-17.15 -4.01,-4.88 -8.29,-7.92 -12.85,-9.12 -4.56,-1.25 -12.8,-1.85 -24.72,-1.85 -0.97,0 -3.14,0.05 -6.51,0.16z"/>
  <path id="18" class="fil1" d="M5078.72 392.19c-10.63,9.06 -20.88,15.41 -30.69,19.15 -9.81,3.74 -20.32,5.59 -31.6,5.59 -18.54,0 -32.8,-4.5 -42.77,-13.57 -9.97,-9.01 -14.96,-20.56 -14.96,-34.62 0,-8.25 1.9,-15.8 5.64,-22.63 3.8,-6.84 8.73,-12.26 14.8,-16.39 6.12,-4.12 12.96,-7.27 20.6,-9.39 5.64,-1.46 14.15,-2.87 25.48,-4.28 23.09,-2.72 40.17,-6.03 51.06,-9.82 0.11,-3.91 0.16,-6.4 0.16,-7.44 0,-11.61 -2.72,-19.8 -8.13,-24.58 -7.32,-6.45 -18.21,-9.66 -32.63,-9.66 -13.5,0 -23.48,2.39 -29.87,7.11 -6.45,4.72 -11.17,13.07 -14.26,25.12l-27.96 -3.91c2.54,-11.99 6.72,-21.71 12.58,-29.09 5.85,-7.38 14.31,-13.03 25.37,-17.04 11,-3.96 23.85,-5.97 38.38,-5.97 14.41,0 26.18,1.68 35.23,5.1 9.01,3.41 15.67,7.65 19.9,12.8 4.23,5.16 7.21,11.67 8.95,19.54 0.92,4.88 1.4,13.67 1.4,26.32l0 37.98c0,26.53 0.6,43.3 1.79,50.41 1.14,7.11 3.53,13.89 6.99,20.4l-29.92 0c-2.87,-6.03 -4.72,-13.08 -5.52,-21.16zm-2.28 -63.49c-10.41,4.23 -26.02,7.81 -46.84,10.75 -11.82,1.68 -20.17,3.58 -25.04,5.7 -4.88,2.12 -8.62,5.21 -11.27,9.22 -2.66,4.07 -4.01,8.58 -4.01,13.57 0,7.54 2.87,13.89 8.67,18.94 5.79,5.05 14.25,7.59 25.37,7.59 11.01,0 20.82,-2.39 29.44,-7.21 8.56,-4.78 14.9,-11.35 18.91,-19.64 3.09,-6.46 4.61,-15.95 4.61,-28.49l0.16 -10.42z"/>
  <path id="19" class="fil1" d="M5149.35 244.37l28.62 0 0 128.88 79.52 -128.88 30.74 0 0 168.98 -28.62 0 0 -128.06 -79.42 128.06 -30.85 0 0 -168.98zm98.88 -62.51l19.51 0c-1.57,13.41 -6.45,23.72 -14.58,30.88 -8.13,7.22 -18.92,10.8 -32.41,10.8 -13.55,0 -24.4,-3.58 -32.47,-10.69 -8.08,-7.17 -12.95,-17.48 -14.52,-30.99l19.51 0c1.46,7.33 4.44,12.81 8.83,16.39 4.39,3.64 10.36,5.43 17.78,5.43 8.62,0 15.12,-1.73 19.51,-5.26 4.4,-3.47 7.38,-9.01 8.84,-16.55z"/>
  <polygon id="20" class="fil1" points="5331.06,244.37 5359.67,244.37 5359.67,314.7 5439.04,314.7 5439.04,244.37 5467.66,244.37 5467.66,413.35 5439.04,413.35 5439.04,338.47 5359.67,338.47 5359.67,413.35 5331.06,413.35 "/>
  <path id="21" class="fil1" d="M5518.13 413.35l0 -32.56 32.52 0 0 32.56c0,11.99 -2.12,21.71 -6.4,29.09 -4.23,7.38 -11,13.13 -20.26,17.15l-7.81 -12.37c6.07,-2.66 10.51,-6.57 13.34,-11.66 2.87,-5.16 4.5,-12.54 4.83,-22.2l-16.2 0z"/>
  <path id="22" class="fil1" d="M5691.38 478.14l0 -233.77 26.02 0 0 22.2c6.12,-8.58 13.07,-15.03 20.82,-19.32 7.7,-4.28 17.07,-6.45 28.08,-6.45 14.41,0 27.09,3.69 38.1,11.12 11,7.38 19.3,17.85 24.94,31.31 5.58,13.51 8.4,28.27 8.4,44.39 0,17.21 -3.09,32.72 -9.27,46.56 -6.18,13.78 -15.18,24.37 -27,31.74 -11.76,7.33 -24.17,11.02 -37.19,11.02 -9.55,0 -18.1,-2 -25.64,-6.02 -7.59,-4.02 -13.77,-9.06 -18.65,-15.2l0 82.42 -28.62 0zm26.02 -148.25c0,21.65 4.4,37.66 13.12,48.02 8.78,10.36 19.41,15.57 31.87,15.57 12.68,0 23.53,-5.37 32.53,-16.11 9.05,-10.75 13.55,-27.35 13.55,-49.87 0,-21.49 -4.39,-37.55 -13.23,-48.24 -8.84,-10.69 -19.35,-16.01 -31.6,-16.01 -12.14,0 -22.87,5.7 -32.2,17.03 -9.37,11.4 -14.04,27.89 -14.04,49.6z"/>
  <path id="23" class="fil1" d="M5982.54 392.19c-10.63,9.06 -20.88,15.41 -30.69,19.15 -9.81,3.74 -20.32,5.59 -31.6,5.59 -18.54,0 -32.8,-4.5 -42.77,-13.57 -9.97,-9.01 -14.96,-20.56 -14.96,-34.62 0,-8.25 1.9,-15.8 5.64,-22.63 3.79,-6.84 8.72,-12.26 14.79,-16.39 6.12,-4.12 12.96,-7.27 20.6,-9.39 5.64,-1.46 14.15,-2.87 25.48,-4.28 23.09,-2.72 40.17,-6.03 51.06,-9.82 0.11,-3.91 0.16,-6.4 0.16,-7.44 0,-11.61 -2.72,-19.8 -8.13,-24.58 -7.32,-6.45 -18.21,-9.66 -32.63,-9.66 -13.49,0 -23.48,2.39 -29.87,7.11 -6.45,4.72 -11.17,13.07 -14.26,25.12l-27.96 -3.91c2.54,-11.99 6.72,-21.71 12.58,-29.09 5.85,-7.38 14.31,-13.03 25.37,-17.04 11,-3.96 23.85,-5.97 38.38,-5.97 14.41,0 26.18,1.68 35.23,5.1 9.01,3.41 15.67,7.65 19.9,12.8 4.23,5.16 7.21,11.67 8.95,19.54 0.92,4.88 1.4,13.67 1.4,26.32l0 37.98c0,26.53 0.6,43.3 1.79,50.41 1.14,7.11 3.53,13.89 6.99,20.4l-29.92 0c-2.87,-6.03 -4.71,-13.08 -5.52,-21.16zm-2.28 -63.49c-10.41,4.23 -26.02,7.81 -46.84,10.75 -11.82,1.68 -20.16,3.58 -25.04,5.7 -4.88,2.12 -8.62,5.21 -11.27,9.22 -2.66,4.07 -4.01,8.58 -4.01,13.57 0,7.54 2.87,13.89 8.67,18.94 5.79,5.05 14.25,7.59 25.37,7.59 11.01,0 20.82,-2.39 29.44,-7.21 8.56,-4.78 14.9,-11.35 18.91,-19.64 3.09,-6.46 4.61,-15.95 4.61,-28.49l0.16 -10.42z"/>
  <path id="24" class="fil1" d="M6086.93 336.84l0 -22.47c12.04,-0.11 20.28,-0.6 24.62,-1.41 4.39,-0.87 8.56,-3.37 12.47,-7.6 3.9,-4.23 5.86,-9.49 5.86,-15.84 0,-7.65 -2.55,-13.84 -7.7,-18.4 -5.15,-4.61 -11.76,-6.89 -19.95,-6.89 -16.1,0 -27.38,9.44 -33.83,28.33l-27.32 -4.56c8.46,-31.47 28.95,-47.21 61.37,-47.21 17.99,0 32.09,4.88 42.33,14.71 10.25,9.82 15.35,21.54 15.35,35.16 0,13.73 -6.67,24.69 -19.95,32.77 8.51,4.56 14.85,10.37 19.13,17.42 4.23,7.05 6.35,15.41 6.35,25.07 0,15.14 -5.53,27.4 -16.53,36.84 -11.06,9.44 -26.45,14.16 -46.3,14.16 -38.49,0 -60.83,-17.03 -66.95,-51.12l27 -5.86c2.44,10.75 7.37,19.1 14.85,25.02 7.48,5.91 15.99,8.85 25.64,8.85 9.64,0 17.67,-2.72 24.06,-8.19 6.4,-5.43 9.59,-12.37 9.59,-20.84 0,-6.57 -2,-12.27 -6.01,-17.15 -4.01,-4.88 -8.29,-7.92 -12.85,-9.12 -4.56,-1.25 -12.8,-1.85 -24.72,-1.85 -0.98,0 -3.14,0.05 -6.51,0.16z"/>
  <path id="25" class="fil1" d="M6198.67 478.14l0 -233.77 26.02 0 0 22.2c6.12,-8.58 13.07,-15.03 20.81,-19.32 7.7,-4.28 17.08,-6.45 28.08,-6.45 14.42,0 27.1,3.69 38.1,11.12 11,7.38 19.3,17.85 24.94,31.31 5.58,13.51 8.41,28.27 8.41,44.39 0,17.21 -3.09,32.72 -9.28,46.56 -6.18,13.78 -15.18,24.37 -27,31.74 -11.76,7.33 -24.17,11.02 -37.19,11.02 -9.54,0 -18.1,-2 -25.64,-6.02 -7.59,-4.02 -13.77,-9.06 -18.65,-15.2l0 82.42 -28.62 0zm26.02 -148.25c0,21.65 4.39,37.66 13.12,48.02 8.77,10.36 19.41,15.57 31.87,15.57 12.68,0 23.52,-5.37 32.52,-16.11 9.05,-10.75 13.55,-27.35 13.55,-49.87 0,-21.49 -4.39,-37.55 -13.23,-48.24 -8.83,-10.69 -19.35,-16.01 -31.6,-16.01 -12.14,0 -22.87,5.7 -32.2,17.03 -9.37,11.4 -14.03,27.89 -14.03,49.6z"/>
  <path id="26" class="fil1" d="M6489.82 392.19c-10.63,9.06 -20.88,15.41 -30.68,19.15 -9.82,3.74 -20.33,5.59 -31.6,5.59 -18.54,0 -32.8,-4.5 -42.77,-13.57 -9.98,-9.01 -14.96,-20.56 -14.96,-34.62 0,-8.25 1.9,-15.8 5.64,-22.63 3.79,-6.84 8.73,-12.26 14.8,-16.39 6.12,-4.12 12.96,-7.27 20.59,-9.39 5.64,-1.46 14.15,-2.87 25.48,-4.28 23.1,-2.72 40.17,-6.03 51.06,-9.82 0.11,-3.91 0.16,-6.4 0.16,-7.44 0,-11.61 -2.71,-19.8 -8.13,-24.58 -7.32,-6.45 -18.21,-9.66 -32.63,-9.66 -13.5,0 -23.48,2.39 -29.88,7.11 -6.45,4.72 -11.17,13.07 -14.25,25.12l-27.97 -3.91c2.55,-11.99 6.72,-21.71 12.58,-29.09 5.85,-7.38 14.31,-13.03 25.37,-17.04 11,-3.96 23.85,-5.97 38.38,-5.97 14.42,0 26.18,1.68 35.24,5.1 9,3.41 15.66,7.65 19.89,12.8 4.23,5.16 7.21,11.67 8.95,19.54 0.92,4.88 1.41,13.67 1.41,26.32l0 37.98c0,26.53 0.6,43.3 1.79,50.41 1.13,7.11 3.52,13.89 6.99,20.4l-29.92 0c-2.87,-6.03 -4.71,-13.08 -5.52,-21.16zm-2.28 -63.49c-10.41,4.23 -26.02,7.81 -46.83,10.75 -11.82,1.68 -20.17,3.58 -25.04,5.7 -4.88,2.12 -8.62,5.21 -11.28,9.22 -2.66,4.07 -4.01,8.58 -4.01,13.57 0,7.54 2.87,13.89 8.68,18.94 5.79,5.05 14.25,7.59 25.37,7.59 11,0 20.81,-2.39 29.43,-7.21 8.56,-4.78 14.91,-11.35 18.91,-19.64 3.1,-6.46 4.61,-15.95 4.61,-28.49l0.16 -10.42z"/>
  <path id="27" class="fil1" d="M6683.4 174.7l25.37 0.32c-1.14,11.35 -3.69,19.26 -7.53,23.71 -3.86,4.45 -8.79,7.27 -14.86,8.58 -6.06,1.25 -17.99,1.9 -35.72,1.9 -23.53,0 -39.57,2.28 -48.14,6.84 -8.5,4.56 -14.68,11.83 -18.43,21.81 -3.74,10.04 -5.8,22.9 -6.24,38.69 7.21,-10.74 15.62,-18.77 25.26,-24.15 9.6,-5.37 20.49,-8.03 32.53,-8.03 22.12,0 40.44,7.6 54.97,22.79 14.47,15.2 21.73,35.76 21.73,61.76 0,19.7 -3.63,35.87 -10.94,48.46 -7.32,12.58 -16,22.35 -26.03,29.24 -9.97,6.9 -23.63,10.31 -40.87,10.31 -20.06,0 -35.61,-4.56 -46.73,-13.73 -11.11,-9.17 -19.62,-20.89 -25.58,-35.16 -5.91,-14.27 -8.89,-39.18 -8.89,-74.62 0,-44.55 7.53,-74.56 22.55,-90.02 15.02,-15.47 38.16,-23.17 69.39,-23.17 19.46,0 30.46,-0.32 33.11,-0.98 2.6,-0.65 4.28,-2.17 5.05,-4.56zm-0.98 153.4c0,-17.52 -4.18,-31.91 -12.47,-43.14 -8.29,-11.23 -20,-16.82 -35.13,-16.82 -15.77,0 -27.91,5.91 -36.48,17.79 -8.56,11.83 -12.84,27.62 -12.84,47.43 0,19.53 4.71,34.51 14.2,44.87 9.43,10.36 21.14,15.58 34.97,15.58 14.2,0 25.69,-6.03 34.53,-18.02 8.83,-11.99 13.23,-27.89 13.23,-47.7z"/>
  <path id="28" class="fil1" d="M6736.03 328.86c0,-31.21 8.68,-54.32 26.07,-69.35 14.48,-12.49 32.2,-18.72 53.07,-18.72 23.15,0 42.12,7.59 56.86,22.79 14.69,15.14 22.06,36.14 22.06,62.89 0,21.71 -3.26,38.75 -9.76,51.18 -6.51,12.43 -15.99,22.08 -28.45,28.97 -12.41,6.9 -26.02,10.31 -40.71,10.31 -23.63,0 -42.72,-7.54 -57.3,-22.68 -14.58,-15.14 -21.85,-36.96 -21.85,-65.39zm29.28 0.05c0,21.6 4.71,37.77 14.15,48.46 9.49,10.74 21.35,16.11 35.72,16.11 14.2,0 26.02,-5.37 35.5,-16.17 9.44,-10.8 14.15,-27.24 14.15,-49.32 0,-20.84 -4.77,-36.63 -14.26,-47.32 -9.49,-10.75 -21.3,-16.12 -35.39,-16.12 -14.37,0 -26.24,5.32 -35.72,16.01 -9.43,10.69 -14.15,26.8 -14.15,48.35z"/>
  <polygon id="29" class="fil1" points="6905.55,244.37 7042.15,244.37 7042.15,268.14 6988.16,268.14 6988.16,413.35 6959.53,413.35 6959.53,268.14 6905.55,268.14 "/>
  <path id="30" class="fil1" d="M7069.14 244.37l28.63 0 0 72.93c9.1,0 15.5,-1.73 19.18,-5.26 3.63,-3.47 9,-13.62 16.15,-30.5 5.64,-13.35 10.19,-22.14 13.67,-26.38 3.52,-4.23 7.53,-7.11 12.08,-8.57 4.61,-1.47 11.93,-2.23 21.96,-2.23l5.75 0 0 23.61 -7.97 -0.16c-7.53,0 -12.36,1.14 -14.48,3.36 -2.22,2.33 -5.64,9.28 -10.19,20.84 -4.34,11.08 -8.29,18.72 -11.93,22.95 -3.58,4.23 -9.16,8.09 -16.7,11.62 12.31,3.31 24.45,14.76 36.38,34.41l31.39 52.36 -31.44 0 -30.96 -52.2c-6.24,-10.58 -11.66,-17.52 -16.26,-20.89 -4.66,-3.36 -10.19,-5.04 -16.64,-5.04l0 78.14 -28.63 0 0 -168.98z"/>
  <path id="31" class="fil1" d="M7329.19 392.19c-10.63,9.06 -20.87,15.41 -30.68,19.15 -9.81,3.74 -20.33,5.59 -31.6,5.59 -18.54,0 -32.8,-4.5 -42.77,-13.57 -9.98,-9.01 -14.96,-20.56 -14.96,-34.62 0,-8.25 1.9,-15.8 5.64,-22.63 3.8,-6.84 8.73,-12.26 14.8,-16.39 6.12,-4.12 12.96,-7.27 20.6,-9.39 5.64,-1.46 14.15,-2.87 25.48,-4.28 23.09,-2.72 40.17,-6.03 51.06,-9.82 0.11,-3.91 0.16,-6.4 0.16,-7.44 0,-11.61 -2.72,-19.8 -8.13,-24.58 -7.32,-6.45 -18.21,-9.66 -32.63,-9.66 -13.5,0 -23.48,2.39 -29.87,7.11 -6.45,4.72 -11.17,13.07 -14.26,25.12l-27.97 -3.91c2.55,-11.99 6.72,-21.71 12.58,-29.09 5.85,-7.38 14.31,-13.03 25.37,-17.04 11.01,-3.96 23.86,-5.97 38.38,-5.97 14.42,0 26.18,1.68 35.24,5.1 9,3.41 15.66,7.65 19.9,12.8 4.23,5.16 7.21,11.67 8.94,19.54 0.92,4.88 1.41,13.67 1.41,26.32l0 37.98c0,26.53 0.6,43.3 1.79,50.41 1.14,7.11 3.52,13.89 6.99,20.4l-29.93 0c-2.87,-6.03 -4.71,-13.08 -5.52,-21.16zm-2.27 -63.49c-10.42,4.23 -26.02,7.81 -46.84,10.75 -11.82,1.68 -20.17,3.58 -25.04,5.7 -4.88,2.12 -8.62,5.21 -11.27,9.22 -2.66,4.07 -4.01,8.58 -4.01,13.57 0,7.54 2.87,13.89 8.68,18.94 5.79,5.05 14.25,7.59 25.37,7.59 11,0 20.82,-2.39 29.43,-7.21 8.56,-4.78 14.91,-11.35 18.91,-19.64 3.1,-6.46 4.61,-15.95 4.61,-28.49l0.16 -10.42z"/>
  <polygon id="32" class="fil1" points="7407.95,413.35 7407.95,380.79 7440.48,380.79 7440.48,413.35 "/>
  <polygon id="33" class="fil1" points="7574.18,777.08 7574.18,744.52 7606.7,744.52 7606.7,777.08 "/>
  <path id="34" class="fil1" d="M1448.66 706.99l26.49 6.7c-5.52,21.72 -15.47,38.24 -29.83,49.63 -14.36,11.39 -31.92,17.11 -52.69,17.11 -21.46,0 -38.94,-4.37 -52.42,-13.16 -13.47,-8.74 -23.69,-21.44 -30.71,-38.04 -7.01,-16.65 -10.54,-34.46 -10.54,-53.54 0,-20.79 3.94,-38.93 11.89,-54.42 7.94,-15.49 19.24,-27.25 33.87,-35.3 14.63,-8.05 30.76,-12.04 48.32,-12.04 19.98,0 36.75,5.07 50.32,15.25 13.61,10.19 23.1,24.46 28.44,42.88l-25.93 6.14c-4.59,-14.51 -11.33,-25.12 -20.12,-31.72 -8.78,-6.65 -19.84,-9.95 -33.18,-9.95 -15.28,0 -28.1,3.67 -38.37,11.02 -10.27,7.34 -17.52,17.25 -21.65,29.63 -4.19,12.42 -6.28,25.21 -6.28,38.37 0,16.98 2.46,31.81 7.38,44.46 4.93,12.7 12.59,22.14 23.01,28.42 10.4,6.28 21.64,9.39 33.78,9.39 14.77,0 27.22,-4.28 37.45,-12.79 10.22,-8.56 17.14,-21.21 20.76,-38.05z"/>
  <path id="35" class="fil1" d="M1602.37 758.94c-9.1,7.77 -17.89,13.21 -26.3,16.42 -8.41,3.21 -17.42,4.79 -27.08,4.79 -15.89,0 -28.11,-3.86 -36.67,-11.63 -8.54,-7.72 -12.82,-17.63 -12.82,-29.68 0,-7.07 1.63,-13.53 4.84,-19.39 3.25,-5.86 7.48,-10.51 12.68,-14.05 5.25,-3.53 11.1,-6.23 17.65,-8.04 4.83,-1.26 12.12,-2.47 21.83,-3.68 19.8,-2.32 34.43,-5.16 43.77,-8.42 0.09,-3.35 0.15,-5.48 0.15,-6.37 0,-9.95 -2.33,-16.98 -6.97,-21.07 -6.27,-5.54 -15.61,-8.28 -27.97,-8.28 -11.57,0 -20.12,2.04 -25.6,6.09 -5.52,4.05 -9.57,11.21 -12.22,21.54l-23.98 -3.35c2.18,-10.28 5.76,-18.6 10.78,-24.93 5.02,-6.33 12.27,-11.16 21.75,-14.6 9.43,-3.4 20.44,-5.12 32.89,-5.12 12.37,0 22.45,1.44 30.21,4.37 7.71,2.93 13.43,6.56 17.05,10.98 3.62,4.42 6.18,10 7.67,16.74 0.79,4.19 1.21,11.72 1.21,22.56l0 32.56c0,22.74 0.51,37.11 1.53,43.21 0.98,6.09 3.03,11.91 5.99,17.49l-25.64 0c-2.47,-5.16 -4.05,-11.21 -4.75,-18.14zm-1.94 -54.42c-8.93,3.63 -22.31,6.7 -40.15,9.21 -10.14,1.44 -17.28,3.07 -21.47,4.88 -4.18,1.81 -7.39,4.47 -9.66,7.91 -2.27,3.49 -3.44,7.34 -3.44,11.63 0,6.46 2.47,11.91 7.44,16.23 4.97,4.32 12.22,6.51 21.75,6.51 9.43,0 17.84,-2.05 25.23,-6.19 7.34,-4.09 12.78,-9.72 16.22,-16.84 2.65,-5.53 3.95,-13.67 3.95,-24.42l0.15 -8.93z"/>
  <path id="36" class="fil1" d="M1662.91 632.24l24.53 0 0 110.47 68.16 -110.47 26.34 0 0 144.84 -24.53 0 0 -109.77 -68.07 109.77 -26.44 0 0 -144.84zm84.74 -53.58l16.73 0c-1.34,11.49 -5.52,20.32 -12.5,26.47 -6.97,6.18 -16.22,9.26 -27.79,9.26 -11.62,0 -20.91,-3.07 -27.83,-9.16 -6.92,-6.14 -11.11,-14.98 -12.46,-26.56l16.73 0c1.25,6.28 3.8,10.98 7.57,14.05 3.76,3.12 8.87,4.65 15.23,4.65 7.39,0 12.97,-1.49 16.73,-4.52 3.76,-2.97 6.32,-7.72 7.57,-14.19z"/>
  <polygon id="37" class="fil1" points="1805.83,632.24 1922.93,632.24 1922.93,652.62 1876.64,652.62 1876.64,777.08 1852.11,777.08 1852.11,652.62 1805.83,652.62 "/>
  <path id="38" class="fil1" d="M2014.6 632.24l24.53 0 0 27.35c0,11.81 0.7,20.37 2.14,25.67 1.4,5.31 4.79,9.95 10.18,13.91 5.34,3.96 12.08,5.91 20.21,5.91 9.29,0 21.28,-2.47 36.05,-7.35l0 -65.49 24.54 0 0 144.84 -24.54 0 0 -58.47c-15.1,4.75 -29.22,7.12 -42.32,7.12 -11.02,0 -20.73,-2.8 -29.14,-8.37 -8.41,-5.58 -14.13,-12.42 -17.15,-20.52 -3.02,-8.09 -4.5,-16.98 -4.5,-26.7l0 -37.91z"/>
  <path id="39" class="fil1" d="M2263.55 758.94c-9.1,7.77 -17.89,13.21 -26.3,16.42 -8.41,3.21 -17.42,4.79 -27.09,4.79 -15.89,0 -28.11,-3.86 -36.66,-11.63 -8.55,-7.72 -12.82,-17.63 -12.82,-29.68 0,-7.07 1.62,-13.53 4.83,-19.39 3.25,-5.86 7.48,-10.51 12.68,-14.05 5.25,-3.53 11.1,-6.23 17.65,-8.04 4.83,-1.26 12.12,-2.47 21.84,-3.68 19.8,-2.32 34.42,-5.16 43.77,-8.42 0.09,-3.35 0.15,-5.48 0.15,-6.37 0,-9.95 -2.33,-16.98 -6.97,-21.07 -6.27,-5.54 -15.61,-8.28 -27.97,-8.28 -11.57,0 -20.12,2.04 -25.6,6.09 -5.52,4.05 -9.57,11.21 -12.22,21.54l-23.98 -3.35c2.19,-10.28 5.76,-18.6 10.78,-24.93 5.02,-6.33 12.27,-11.16 21.75,-14.6 9.43,-3.4 20.44,-5.12 32.9,-5.12 12.36,0 22.44,1.44 30.2,4.37 7.71,2.93 13.43,6.56 17.05,10.98 3.63,4.42 6.18,10 7.67,16.74 0.79,4.19 1.21,11.72 1.21,22.56l0 32.56c0,22.74 0.51,37.11 1.54,43.21 0.97,6.09 3.02,11.91 5.99,17.49l-25.64 0c-2.47,-5.16 -4.05,-11.21 -4.75,-18.14zm-1.94 -54.42c-8.93,3.63 -22.31,6.7 -40.15,9.21 -10.13,1.44 -17.28,3.07 -21.47,4.88 -4.18,1.81 -7.38,4.47 -9.66,7.91 -2.27,3.49 -3.44,7.34 -3.44,11.63 0,6.46 2.47,11.91 7.44,16.23 4.98,4.32 12.22,6.51 21.75,6.51 9.43,0 17.84,-2.05 25.23,-6.19 7.34,-4.09 12.78,-9.72 16.22,-16.84 2.65,-5.53 3.95,-13.67 3.95,-24.42l0.15 -8.93z"/>
  <path id="40" class="fil1" d="M2418.6 724.06l23.98 3.35c-2.65,16.51 -9.34,29.39 -20.17,38.74 -10.83,9.35 -24.16,14 -39.91,14 -19.75,0 -35.64,-6.47 -47.63,-19.39 -12.04,-12.93 -18.03,-31.45 -18.03,-55.54 0,-15.62 2.6,-29.26 7.77,-40.98 5.16,-11.67 13.01,-20.46 23.6,-26.28 10.55,-5.86 22.02,-8.79 34.48,-8.79 15.66,0 28.52,3.95 38.47,11.91 9.99,7.95 16.4,19.26 19.19,33.86l-23.7 3.63c-2.27,-9.72 -6.28,-17.02 -12.08,-21.95 -5.76,-4.88 -12.73,-7.35 -20.9,-7.35 -12.36,0 -22.4,4.42 -30.16,13.26 -7.71,8.89 -11.57,22.84 -11.57,42 0,19.45 3.72,33.53 11.15,42.33 7.48,8.79 17.19,13.21 29.13,13.21 9.66,0 17.71,-2.93 24.11,-8.84 6.46,-5.86 10.55,-14.93 12.27,-27.16z"/>
  <polygon id="41" class="fil1" points="2450.66,632.24 2567.76,632.24 2567.76,652.62 2521.47,652.62 2521.47,777.08 2496.94,777.08 2496.94,652.62 2450.66,652.62 "/>
  <polygon id="42" class="fil1" points="2591.17,632.24 2615.7,632.24 2615.7,692.52 2683.73,692.52 2683.73,632.24 2708.26,632.24 2708.26,777.08 2683.73,777.08 2683.73,712.89 2615.7,712.89 2615.7,777.08 2591.17,777.08 "/>
  <path id="43" class="fil1" d="M2735.9 704.67c0,-26.74 7.44,-46.56 22.35,-59.44 12.41,-10.7 27.6,-16.05 45.49,-16.05 19.84,0 36.1,6.51 48.74,19.53 12.59,12.97 18.91,30.98 18.91,53.9 0,18.6 -2.8,33.21 -8.37,43.86 -5.58,10.65 -13.71,18.93 -24.39,24.84 -10.64,5.91 -22.3,8.84 -34.89,8.84 -20.26,0 -36.62,-6.47 -49.12,-19.45 -12.5,-12.97 -18.72,-31.67 -18.72,-56.04zm25.09 0.05c0,18.51 4.05,32.37 12.12,41.53 8.13,9.21 18.31,13.82 30.63,13.82 12.18,0 22.3,-4.61 30.43,-13.86 8.09,-9.26 12.13,-23.35 12.13,-42.28 0,-17.87 -4.09,-31.4 -12.22,-40.56 -8.13,-9.21 -18.26,-13.81 -30.34,-13.81 -12.31,0 -22.49,4.56 -30.63,13.72 -8.08,9.16 -12.12,22.98 -12.12,41.45z"/>
  <path id="44" class="fil1" d="M2900.16 632.24l24.53 0 0 110.47 68.16 -110.47 26.34 0 0 144.84 -24.53 0 0 -109.77 -68.07 109.77 -26.44 0 0 -144.84zm84.74 -53.58l16.73 0c-1.34,11.49 -5.53,20.32 -12.5,26.47 -6.97,6.18 -16.22,9.26 -27.79,9.26 -11.62,0 -20.91,-3.07 -27.83,-9.16 -6.92,-6.14 -11.1,-14.98 -12.45,-26.56l16.73 0c1.25,6.28 3.8,10.98 7.57,14.05 3.76,3.12 8.88,4.65 15.24,4.65 7.39,0 12.97,-1.49 16.72,-4.52 3.77,-2.97 6.32,-7.72 7.57,-14.19z"/>
  <path id="45" class="fil1" d="M3133.08 632.24l24.53 0 0 62.51c7.81,0 13.29,-1.49 16.45,-4.52 3.1,-2.97 7.71,-11.67 13.84,-26.14 4.84,-11.44 8.74,-18.97 11.71,-22.6 3.02,-3.63 6.46,-6.09 10.36,-7.35 3.95,-1.25 10.22,-1.91 18.82,-1.91l4.92 0 0 20.23 -6.83 -0.14c-6.46,0 -10.59,0.98 -12.41,2.89 -1.91,2 -4.83,7.95 -8.73,17.86 -3.72,9.49 -7.11,16.05 -10.22,19.67 -3.06,3.63 -7.85,6.94 -14.31,9.95 10.55,2.84 20.96,12.65 31.18,29.49l26.9 44.89 -26.95 0 -26.53 -44.74c-5.35,-9.07 -9.99,-15.02 -13.94,-17.91 -4,-2.88 -8.73,-4.32 -14.27,-4.32l0 66.98 -24.53 0 0 -144.84z"/>
  <path id="46" class="fil1" d="M3249.24 704.67c0,-26.74 7.44,-46.56 22.35,-59.44 12.41,-10.7 27.6,-16.05 45.49,-16.05 19.84,0 36.1,6.51 48.74,19.53 12.59,12.97 18.91,30.98 18.91,53.9 0,18.6 -2.79,33.21 -8.36,43.86 -5.58,10.65 -13.71,18.93 -24.39,24.84 -10.65,5.91 -22.31,8.84 -34.9,8.84 -20.26,0 -36.61,-6.47 -49.11,-19.45 -12.5,-12.97 -18.72,-31.67 -18.72,-56.04zm25.09 0.05c0,18.51 4.04,32.37 12.12,41.53 8.13,9.21 18.31,13.82 30.62,13.82 12.18,0 22.31,-4.61 30.43,-13.86 8.09,-9.26 12.13,-23.35 12.13,-42.28 0,-17.87 -4.09,-31.4 -12.22,-40.56 -8.12,-9.21 -18.26,-13.81 -30.34,-13.81 -12.31,0 -22.49,4.56 -30.62,13.72 -8.08,9.16 -12.12,22.98 -12.12,41.45z"/>
  <path id="47" class="fil1" d="M3419.34 632.24l114.02 0 0 144.7 -24.53 0 0 -124.33 -64.95 0 0 72.05c0,16.79 -0.56,27.87 -1.63,33.26 -1.11,5.35 -4.09,10 -8.97,14 -4.92,4 -11.98,6 -21.23,6 -5.72,0 -12.31,-0.37 -19.75,-1.07l0 -20.42 10.74 0c5.06,0 8.68,-0.51 10.87,-1.58 2.18,-1.02 3.62,-2.7 4.36,-4.97 0.7,-2.28 1.07,-9.68 1.07,-22.19l0 -95.44z"/>
  <path id="48" class="fil1" d="M3582.01 632.24l114.03 0 0 144.7 -24.54 0 0 -124.33 -64.95 0 0 72.05c0,16.79 -0.56,27.87 -1.63,33.26 -1.12,5.35 -4.09,10 -8.97,14 -4.92,4 -11.98,6 -21.23,6 -5.72,0 -12.31,-0.37 -19.75,-1.07l0 -20.42 10.73 0c5.06,0 8.69,-0.51 10.87,-1.58 2.18,-1.02 3.63,-2.7 4.37,-4.97 0.7,-2.28 1.06,-9.68 1.06,-22.19l0 -95.44z"/>
  <path id="49" class="fil1" d="M3831.38 730.2l25.37 3.35c-3.95,14.75 -11.33,26.23 -22.11,34.37 -10.78,8.14 -24.54,12.24 -41.31,12.24 -21.09,0 -37.82,-6.51 -50.18,-19.54 -12.35,-12.97 -18.54,-31.25 -18.54,-54.74 0,-24.28 6.23,-43.16 18.73,-56.56 12.5,-13.44 28.72,-20.14 48.65,-20.14 19.28,0 35.03,6.55 47.25,19.72 12.22,13.16 18.35,31.68 18.35,55.53 0,1.44 -0.05,3.63 -0.14,6.51l-107.75 0c0.93,15.86 5.39,28.05 13.47,36.47 8.04,8.42 18.12,12.65 30.15,12.65 8.97,0 16.64,-2.37 22.96,-7.12 6.36,-4.74 11.38,-12.33 15.1,-22.74zm-80.29 -39.35l80.56 0c-1.07,-12.18 -4.18,-21.3 -9.24,-27.4 -7.76,-9.44 -17.88,-14.19 -30.29,-14.19 -11.25,0 -20.68,3.77 -28.35,11.31 -7.62,7.53 -11.85,17.63 -12.68,30.28z"/>
  <path id="50" class="fil1" d="M3887.47 632.24l24.53 0 0 62.51c7.8,0 13.29,-1.49 16.45,-4.52 3.11,-2.97 7.71,-11.67 13.84,-26.14 4.83,-11.44 8.74,-18.97 11.71,-22.6 3.03,-3.63 6.46,-6.09 10.36,-7.35 3.96,-1.25 10.23,-1.91 18.83,-1.91l4.92 0 0 20.23 -6.83 -0.14c-6.46,0 -10.6,0.98 -12.41,2.89 -1.91,2 -4.83,7.95 -8.74,17.86 -3.71,9.49 -7.11,16.05 -10.22,19.67 -3.07,3.63 -7.85,6.94 -14.31,9.95 10.55,2.84 20.96,12.65 31.17,29.49l26.91 44.89 -26.96 0 -26.53 -44.74c-5.35,-9.07 -9.99,-15.02 -13.94,-17.91 -3.99,-2.88 -8.73,-4.32 -14.26,-4.32l0 66.98 -24.53 0 0 -144.84z"/>
  <polygon id="51" class="fil1" points="4009.99,632.24 4034.52,632.24 4034.52,756.99 4102.55,756.99 4102.55,632.24 4127.08,632.24 4127.08,756.99 4142.97,756.99 4142.97,818.11 4122.9,818.11 4122.9,777.08 4009.99,777.08 "/>
  <polygon id="52" class="fil1" points="4169.41,632.24 4193.94,632.24 4193.94,742.71 4262.11,632.24 4288.45,632.24 4288.45,777.08 4263.91,777.08 4263.91,667.32 4195.85,777.08 4169.41,777.08 "/>
  <polygon id="53" class="fil1" points="4325.16,632.24 4349.69,632.24 4349.69,742.71 4417.85,632.24 4444.19,632.24 4444.19,777.08 4419.66,777.08 4419.66,667.32 4351.6,777.08 4325.16,777.08 "/>
  <path id="54" class="fil1" d="M4558.08 632.24l24.53 0 0 62.51c7.81,0 13.29,-1.49 16.45,-4.52 3.1,-2.97 7.71,-11.67 13.84,-26.14 4.83,-11.44 8.73,-18.97 11.71,-22.6 3.02,-3.63 6.46,-6.09 10.36,-7.35 3.96,-1.25 10.23,-1.91 18.82,-1.91l4.92 0 0 20.23 -6.82 -0.14c-6.46,0 -10.6,0.98 -12.41,2.89 -1.9,2 -4.83,7.95 -8.73,17.86 -3.72,9.49 -7.11,16.05 -10.22,19.67 -3.06,3.63 -7.84,6.94 -14.31,9.95 10.55,2.84 20.95,12.65 31.17,29.49l26.91 44.89 -26.96 0 -26.53 -44.74c-5.35,-9.07 -9.99,-15.02 -13.94,-17.91 -3.99,-2.88 -8.73,-4.32 -14.27,-4.32l0 66.98 -24.53 0 0 -144.84z"/>
  <path id="55" class="fil1" d="M4780.97 758.94c-9.1,7.77 -17.89,13.21 -26.3,16.42 -8.41,3.21 -17.42,4.79 -27.08,4.79 -15.89,0 -28.11,-3.86 -36.67,-11.63 -8.54,-7.72 -12.82,-17.63 -12.82,-29.68 0,-7.07 1.63,-13.53 4.84,-19.39 3.25,-5.86 7.48,-10.51 12.68,-14.05 5.25,-3.53 11.1,-6.23 17.65,-8.04 4.83,-1.26 12.12,-2.47 21.83,-3.68 19.8,-2.32 34.43,-5.16 43.77,-8.42 0.09,-3.35 0.15,-5.48 0.15,-6.37 0,-9.95 -2.33,-16.98 -6.97,-21.07 -6.27,-5.54 -15.61,-8.28 -27.97,-8.28 -11.57,0 -20.12,2.04 -25.6,6.09 -5.52,4.05 -9.57,11.21 -12.22,21.54l-23.98 -3.35c2.18,-10.28 5.76,-18.6 10.78,-24.93 5.02,-6.33 12.27,-11.16 21.75,-14.6 9.43,-3.4 20.44,-5.12 32.89,-5.12 12.37,0 22.45,1.44 30.21,4.37 7.71,2.93 13.43,6.56 17.05,10.98 3.63,4.42 6.18,10 7.67,16.74 0.79,4.19 1.21,11.72 1.21,22.56l0 32.56c0,22.74 0.51,37.11 1.53,43.21 0.98,6.09 3.03,11.91 6,17.49l-25.64 0c-2.47,-5.16 -4.05,-11.21 -4.75,-18.14zm-1.94 -54.42c-8.93,3.63 -22.31,6.7 -40.15,9.21 -10.14,1.44 -17.28,3.07 -21.47,4.88 -4.18,1.81 -7.39,4.47 -9.66,7.91 -2.27,3.49 -3.44,7.34 -3.44,11.63 0,6.46 2.47,11.91 7.44,16.23 4.97,4.32 12.22,6.51 21.75,6.51 9.43,0 17.84,-2.05 25.23,-6.19 7.34,-4.09 12.78,-9.72 16.22,-16.84 2.65,-5.53 3.95,-13.67 3.95,-24.42l0.15 -8.93z"/>
  <path id="56" class="fil1" d="M4853.49 632.24l114.02 0 0 144.7 -24.53 0 0 -124.33 -64.95 0 0 72.05c0,16.79 -0.56,27.87 -1.63,33.26 -1.12,5.35 -4.09,10 -8.97,14 -4.93,4 -11.98,6 -21.23,6 -5.72,0 -12.31,-0.37 -19.75,-1.07l0 -20.42 10.73 0c5.07,0 8.69,-0.51 10.88,-1.58 2.18,-1.02 3.62,-2.7 4.36,-4.97 0.7,-2.28 1.07,-9.68 1.07,-22.19l0 -95.44z"/>
  <path id="57" class="fil1" d="M5102.87 730.2l25.37 3.35c-3.96,14.75 -11.33,26.23 -22.12,34.37 -10.78,8.14 -24.54,12.24 -41.31,12.24 -21.1,0 -37.82,-6.51 -50.18,-19.54 -12.35,-12.97 -18.54,-31.25 -18.54,-54.74 0,-24.28 6.23,-43.16 18.73,-56.56 12.5,-13.44 28.71,-20.14 48.64,-20.14 19.28,0 35.03,6.55 47.25,19.72 12.22,13.16 18.35,31.68 18.35,55.53 0,1.44 -0.05,3.63 -0.14,6.51l-107.75 0c0.92,15.86 5.39,28.05 13.47,36.47 8.04,8.42 18.13,12.65 30.16,12.65 8.97,0 16.63,-2.37 22.95,-7.12 6.36,-4.74 11.38,-12.33 15.1,-22.74zm-80.29 -39.35l80.57 0c-1.07,-12.18 -4.19,-21.3 -9.25,-27.4 -7.76,-9.44 -17.88,-14.19 -30.29,-14.19 -11.24,0 -20.68,3.77 -28.35,11.31 -7.61,7.53 -11.85,17.63 -12.68,30.28z"/>
  <polygon id="58" class="fil1" points="5159.22,632.24 5183.75,632.24 5183.75,692.52 5251.78,692.52 5251.78,632.24 5276.31,632.24 5276.31,777.08 5251.78,777.08 5251.78,712.89 5183.75,712.89 5183.75,777.08 5159.22,777.08 "/>
  <path id="59" class="fil1" d="M5332.4 632.24l100.92 0 0 124.75 15.6 0 0 61.12 -20.07 0 0 -41.02 -114.03 0 0 41.02 -20.07 0 0 -61.12 12.82 0c17.28,-23.49 25.56,-65.07 24.81,-124.75zm20.35 20.37c-1.81,47.03 -9.06,81.82 -21.75,104.38l77.78 0 0 -104.38 -56.03 0z"/>
  <path id="60" class="fil1" d="M5570.33 758.94c-9.1,7.77 -17.89,13.21 -26.3,16.42 -8.41,3.21 -17.42,4.79 -27.08,4.79 -15.89,0 -28.11,-3.86 -36.67,-11.63 -8.54,-7.72 -12.82,-17.63 -12.82,-29.68 0,-7.07 1.62,-13.53 4.83,-19.39 3.25,-5.86 7.48,-10.51 12.68,-14.05 5.25,-3.53 11.1,-6.23 17.65,-8.04 4.83,-1.26 12.12,-2.47 21.84,-3.68 19.79,-2.32 34.42,-5.16 43.77,-8.42 0.09,-3.35 0.15,-5.48 0.15,-6.37 0,-9.95 -2.33,-16.98 -6.97,-21.07 -6.27,-5.54 -15.61,-8.28 -27.97,-8.28 -11.57,0 -20.12,2.04 -25.6,6.09 -5.52,4.05 -9.57,11.21 -12.22,21.54l-23.98 -3.35c2.19,-10.28 5.76,-18.6 10.78,-24.93 5.02,-6.33 12.27,-11.16 21.75,-14.6 9.43,-3.4 20.44,-5.12 32.9,-5.12 12.36,0 22.44,1.44 30.2,4.37 7.71,2.93 13.43,6.56 17.05,10.98 3.63,4.42 6.18,10 7.67,16.74 0.79,4.19 1.21,11.72 1.21,22.56l0 32.56c0,22.74 0.51,37.11 1.54,43.21 0.97,6.09 3.02,11.91 5.99,17.49l-25.64 0c-2.47,-5.16 -4.05,-11.21 -4.75,-18.14zm-1.94 -54.42c-8.93,3.63 -22.31,6.7 -40.15,9.21 -10.13,1.44 -17.28,3.07 -21.47,4.88 -4.18,1.81 -7.39,4.47 -9.66,7.91 -2.27,3.49 -3.44,7.34 -3.44,11.63 0,6.46 2.47,11.91 7.44,16.23 4.97,4.32 12.22,6.51 21.75,6.51 9.43,0 17.84,-2.05 25.23,-6.19 7.34,-4.09 12.78,-9.72 16.22,-16.84 2.65,-5.53 3.95,-13.67 3.95,-24.42l0.15 -8.93z"/>
  <path id="61" class="fil1" d="M5630.87 832.62l0 -200.37 22.3 0 0 19.03c5.25,-7.35 11.2,-12.89 17.85,-16.56 6.6,-3.67 14.63,-5.53 24.07,-5.53 12.35,0 23.22,3.16 32.66,9.53 9.43,6.32 16.53,15.3 21.37,26.84 4.79,11.58 7.21,24.23 7.21,38.04 0,14.75 -2.64,28.05 -7.95,39.91 -5.29,11.81 -13.01,20.88 -23.13,27.21 -10.08,6.28 -20.73,9.45 -31.87,9.45 -8.18,0 -15.52,-1.72 -21.99,-5.16 -6.49,-3.45 -11.8,-7.77 -15.98,-13.03l0 70.65 -24.53 0zm22.3 -127.07c0,18.56 3.76,32.28 11.25,41.16 7.52,8.88 16.63,13.35 27.32,13.35 10.88,0 20.17,-4.61 27.88,-13.82 7.76,-9.21 11.62,-23.44 11.62,-42.74 0,-18.42 -3.76,-32.18 -11.34,-41.35 -7.57,-9.16 -16.59,-13.73 -27.09,-13.73 -10.4,0 -19.61,4.88 -27.6,14.61 -8.04,9.77 -12.03,23.9 -12.03,42.51z"/>
  <path id="62" class="fil1" d="M5884.61 730.2l25.37 3.35c-3.95,14.75 -11.33,26.23 -22.11,34.37 -10.78,8.14 -24.54,12.24 -41.31,12.24 -21.1,0 -37.82,-6.51 -50.18,-19.54 -12.35,-12.97 -18.54,-31.25 -18.54,-54.74 0,-24.28 6.23,-43.16 18.73,-56.56 12.5,-13.44 28.71,-20.14 48.64,-20.14 19.28,0 35.04,6.55 47.25,19.72 12.22,13.16 18.35,31.68 18.35,55.53 0,1.44 -0.05,3.63 -0.14,6.51l-107.75 0c0.93,15.86 5.39,28.05 13.47,36.47 8.04,8.42 18.12,12.65 30.15,12.65 8.97,0 16.63,-2.37 22.95,-7.12 6.36,-4.74 11.38,-12.33 15.1,-22.74zm-80.29 -39.35l80.56 0c-1.07,-12.18 -4.18,-21.3 -9.25,-27.4 -7.75,-9.44 -17.88,-14.19 -30.29,-14.19 -11.24,0 -20.68,3.77 -28.34,11.31 -7.62,7.53 -11.85,17.63 -12.68,30.28z"/>
  <path id="63" class="fil1" d="M5940.97 632.24l24.53 0 0 110.47 68.17 -110.47 26.34 0 0 144.84 -24.53 0 0 -109.77 -68.07 109.77 -26.44 0 0 -144.84zm84.75 -53.58l16.72 0c-1.34,11.49 -5.52,20.32 -12.5,26.47 -6.97,6.18 -16.21,9.26 -27.78,9.26 -11.62,0 -20.91,-3.07 -27.83,-9.16 -6.92,-6.14 -11.1,-14.98 -12.45,-26.56l16.72 0c1.25,6.28 3.81,10.98 7.57,14.05 3.76,3.12 8.88,4.65 15.24,4.65 7.39,0 12.97,-1.49 16.72,-4.52 3.76,-2.97 6.32,-7.72 7.57,-14.19z"/>
  <polygon id="64" class="fil1" points="6174.18,632.24 6198.71,632.24 6198.71,742.71 6266.87,632.24 6293.21,632.24 6293.21,777.08 6268.68,777.08 6268.68,667.32 6200.61,777.08 6174.18,777.08 "/>
  <path id="65" class="fil1" d="M6398.17 704.67c0,-26.74 7.44,-46.56 22.35,-59.44 12.41,-10.7 27.6,-16.05 45.49,-16.05 19.84,0 36.1,6.51 48.74,19.53 12.59,12.97 18.91,30.98 18.91,53.9 0,18.6 -2.79,33.21 -8.37,43.86 -5.58,10.65 -13.71,18.93 -24.39,24.84 -10.64,5.91 -22.3,8.84 -34.89,8.84 -20.26,0 -36.61,-6.47 -49.12,-19.45 -12.5,-12.97 -18.72,-31.67 -18.72,-56.04zm25.09 0.05c0,18.51 4.05,32.37 12.13,41.53 8.13,9.21 18.31,13.82 30.62,13.82 12.18,0 22.3,-4.61 30.43,-13.86 8.09,-9.26 12.13,-23.35 12.13,-42.28 0,-17.87 -4.09,-31.4 -12.22,-40.56 -8.13,-9.21 -18.26,-13.81 -30.34,-13.81 -12.31,0 -22.49,4.56 -30.62,13.72 -8.08,9.16 -12.13,22.98 -12.13,41.45z"/>
  <polygon id="66" class="fil1" points="6543.47,632.24 6660.56,632.24 6660.56,652.62 6614.28,652.62 6614.28,777.08 6589.75,777.08 6589.75,652.62 6543.47,652.62 "/>
  <path id="67" class="fil1" d="M6683.71 632.24l24.53 0 0 62.51c7.81,0 13.29,-1.49 16.45,-4.52 3.11,-2.97 7.71,-11.67 13.84,-26.14 4.83,-11.44 8.74,-18.97 11.71,-22.6 3.03,-3.63 6.46,-6.09 10.36,-7.35 3.95,-1.25 10.22,-1.91 18.82,-1.91l4.92 0 0 20.23 -6.83 -0.14c-6.46,0 -10.59,0.98 -12.41,2.89 -1.91,2 -4.83,7.95 -8.74,17.86 -3.71,9.49 -7.11,16.05 -10.22,19.67 -3.07,3.63 -7.85,6.94 -14.31,9.95 10.55,2.84 20.96,12.65 31.17,29.49l26.91 44.89 -26.96 0 -26.53 -44.74c-5.35,-9.07 -9.99,-15.02 -13.94,-17.91 -3.99,-2.88 -8.73,-4.32 -14.26,-4.32l0 66.98 -24.53 0 0 -144.84z"/>
  <path id="68" class="fil1" d="M6805.95 832.62l0 -200.37 22.31 0 0 19.03c5.25,-7.35 11.19,-12.89 17.84,-16.56 6.6,-3.67 14.63,-5.53 24.07,-5.53 12.35,0 23.23,3.16 32.66,9.53 9.43,6.32 16.54,15.3 21.37,26.84 4.79,11.58 7.21,24.23 7.21,38.04 0,14.75 -2.65,28.05 -7.95,39.91 -5.29,11.81 -13.01,20.88 -23.13,27.21 -10.09,6.28 -20.73,9.45 -31.87,9.45 -8.18,0 -15.52,-1.72 -21.99,-5.16 -6.5,-3.45 -11.8,-7.77 -15.98,-13.03l0 70.65 -24.54 0zm22.31 -127.07c0,18.56 3.76,32.28 11.24,41.16 7.53,8.88 16.64,13.35 27.32,13.35 10.87,0 20.17,-4.61 27.87,-13.82 7.76,-9.21 11.62,-23.44 11.62,-42.74 0,-18.42 -3.77,-32.18 -11.35,-41.35 -7.57,-9.16 -16.58,-13.73 -27.08,-13.73 -10.41,0 -19.61,4.88 -27.6,14.61 -8.04,9.77 -12.03,23.9 -12.03,42.51z"/>
  <path id="69" class="fil1" d="M7098.71 632.24l24.54 0 0 144.84 -24.54 0 0 -144.84zm-136.88 0l24.53 0 0 56.65 30.94 0c20.21,0 35.74,3.9 46.65,11.77 10.92,7.86 16.36,18.7 16.36,32.51 0,12.09 -4.56,22.41 -13.67,31.02 -9.1,8.6 -23.65,12.88 -43.67,12.88l-61.14 0 0 -144.84zm24.53 124.75l25.74 0c15.48,0 26.58,-1.91 33.18,-5.72 6.65,-3.81 9.94,-9.76 9.94,-17.86 0,-6.28 -2.46,-11.86 -7.34,-16.79 -4.92,-4.88 -15.75,-7.35 -32.52,-7.35l-29 0 0 47.72z"/>
  <polygon id="70" class="fil1" points="7148.57,632.24 7265.66,632.24 7265.66,652.62 7219.37,652.62 7219.37,777.08 7194.84,777.08 7194.84,652.62 7148.57,652.62 "/>
  <path id="71" class="fil1" d="M7276.76 704.67c0,-26.74 7.44,-46.56 22.35,-59.44 12.41,-10.7 27.6,-16.05 45.49,-16.05 19.84,0 36.1,6.51 48.74,19.53 12.59,12.97 18.91,30.98 18.91,53.9 0,18.6 -2.79,33.21 -8.36,43.86 -5.58,10.65 -13.71,18.93 -24.4,24.84 -10.64,5.91 -22.3,8.84 -34.89,8.84 -20.26,0 -36.61,-6.47 -49.11,-19.45 -12.5,-12.97 -18.73,-31.67 -18.73,-56.04zm25.1 0.05c0,18.51 4.04,32.37 12.12,41.53 8.13,9.21 18.31,13.82 30.62,13.82 12.18,0 22.3,-4.61 30.43,-13.86 8.09,-9.26 12.13,-23.35 12.13,-42.28 0,-17.87 -4.09,-31.4 -12.22,-40.56 -8.13,-9.21 -18.26,-13.81 -30.34,-13.81 -12.31,0 -22.49,4.56 -30.62,13.72 -8.08,9.16 -12.12,22.98 -12.12,41.45z"/>
  <path id="72" class="fil1" d="M7440.74 632.24l24.53 0 0 62.51c7.81,0 13.29,-1.49 16.45,-4.52 3.11,-2.97 7.71,-11.67 13.84,-26.14 4.83,-11.44 8.74,-18.97 11.71,-22.6 3.03,-3.63 6.46,-6.09 10.36,-7.35 3.95,-1.25 10.22,-1.91 18.82,-1.91l4.92 0 0 20.23 -6.83 -0.14c-6.46,0 -10.59,0.98 -12.41,2.89 -1.91,2 -4.83,7.95 -8.74,17.86 -3.71,9.49 -7.11,16.05 -10.22,19.67 -3.07,3.63 -7.85,6.94 -14.31,9.95 10.55,2.84 20.96,12.65 31.17,29.49l26.91 44.89 -26.96 0 -26.53 -44.74c-5.35,-9.07 -9.99,-15.02 -13.94,-17.91 -4,-2.88 -8.73,-4.32 -14.27,-4.32l0 66.98 -24.53 0 0 -144.84z"/>
  <circle class="fil2" cx="307.27" cy="222.79" r="82.4"/>
  <line class="fil0 str1" x1="282.34" y1="159.2" x2="332.13" y2= "287.79" />
  <circle class="fil3" cx="307.27" cy="773.33" r="82.4"/>
  <line class="fil0 str1" x1="282.34" y1="709.74" x2="332.13" y2= "838.33" />
  <circle class="fil4" cx="8441.68" cy="773.33" r="82.4"/>
  <line class="fil0 str1" x1="8416.75" y1="709.74" x2="8466.54" y2= "838.33" />
  <circle class="fil4" cx="8441.68" cy="197.04" r="82.4"/>
  <line class="fil0 str1" x1="8416.75" y1="133.45" x2="8466.54" y2= "262.04" />
 </g>
</svg>
