<?xml version="1.0" encoding="UTF-8"?>
<!DOCTYPE svg PUBLIC "-//W3C//DTD SVG 1.1//EN" "http://www.w3.org/Graphics/SVG/1.1/DTD/svg11.dtd">
<!-- Creator: CorelDRAW 2018 (64-Bit) -->
<svg xmlns="http://www.w3.org/2000/svg" xml:space="preserve" width="12.3392mm" height="12.0417mm" version="1.1" style="shape-rendering:geometricPrecision; text-rendering:geometricPrecision; image-rendering:optimizeQuality; fill-rule:evenodd; clip-rule:evenodd"
viewBox="0 0 451.28 440.4"
 xmlns:xlink="http://www.w3.org/1999/xlink">
 <defs>
  <style type="text/css">
   <![CDATA[
    .str0 {stroke:#6F97B3;stroke-width:7.31;stroke-miterlimit:22.9256}
    .fil1 {fill:#98D2F0}
    .fil0 {fill:#806040;fill-rule:nonzero}
   ]]>
  </style>
 </defs>
 <g id="карточки_x0020_-_x0020_наполнение">
  <metadata id="CorelCorpID_0Corel-Layer"/>
  <g>
   <path class="fil0" d="M146.52 403.95l0 27.09 -18.68 0 0 -27.09 9.34 -9.34 9.34 9.34zm-18.68 0l0 -9.34 9.34 0 -9.34 9.34zm13.95 -13.94l18.68 0 0 0 -0.03 1.2 -0.09 1.17 -0.15 1.17 -0.2 1.14 -0.26 1.12 -0.32 1.12 -0.37 1.11 -0.42 1.06 -0.46 1.02 -0.52 1.01 -0.56 0.98 -0.61 0.95 -0.64 0.9 -0.69 0.88 -0.74 0.84 -0.76 0.8 -0.81 0.78 -0.83 0.72 -0.87 0.68 -0.93 0.67 -0.95 0.6 -0.97 0.56 -1.01 0.52 -1.02 0.46 -1.05 0.42 -1.11 0.38 -1.1 0.31 -1.13 0.26 -1.16 0.2 -1.14 0.14 -1.17 0.09 -1.2 0.03 0 -18.68 0.24 -0.01 0.25 -0.02 0.25 -0.03 0.22 -0.04 0.22 -0.05 0.22 -0.06 0.18 -0.06 0.22 -0.09 0.22 -0.1 0.19 -0.1 0.2 -0.12 0.19 -0.12 0.16 -0.11 0.19 -0.15 0.18 -0.15 0.16 -0.15 0.16 -0.17 0.14 -0.16 0.14 -0.17 0.14 -0.19 0.11 -0.18 0.11 -0.19 0.1 -0.19 0.1 -0.22 0.08 -0.21 0.07 -0.19 0.05 -0.2 0.05 -0.23 0.05 -0.24 0.03 -0.22 0.02 -0.25 0.01 -0.24 0 0zm-13.95 -13.94l18.68 0 -9.34 -9.34 1.2 0.03 1.17 0.09 1.14 0.14 1.16 0.2 1.13 0.26 1.1 0.31 1.09 0.37 1.07 0.42 1.04 0.47 0.99 0.51 0.97 0.56 0.95 0.6 0.91 0.65 0.89 0.69 0.83 0.72 0.8 0.76 0.79 0.82 0.74 0.85 0.67 0.85 0.65 0.91 0.61 0.95 0.56 0.98 0.52 1.02 0.46 1.01 0.42 1.06 0.37 1.1 0.32 1.12 0.26 1.12 0.2 1.14 0.15 1.17 0.09 1.17 0.03 1.2 -18.68 0 -0.01 -0.24 -0.02 -0.25 -0.03 -0.22 -0.05 -0.24 -0.05 -0.23 -0.05 -0.19 -0.07 -0.2 -0.08 -0.21 -0.1 -0.22 -0.1 -0.19 -0.11 -0.19 -0.11 -0.18 -0.13 -0.18 -0.16 -0.2 -0.14 -0.16 -0.14 -0.15 -0.18 -0.16 -0.18 -0.15 -0.17 -0.13 -0.18 -0.12 -0.19 -0.12 -0.2 -0.12 -0.21 -0.11 -0.2 -0.09 -0.19 -0.07 -0.2 -0.07 -0.22 -0.06 -0.22 -0.05 -0.22 -0.04 -0.25 -0.03 -0.25 -0.02 -0.24 -0.01 -9.34 -9.34zm9.34 9.34l-9.34 0 0 -9.34 9.34 9.34zm9.34 -37.22l0 27.88 -18.68 0 0 -27.88 9.34 -9.34 9.34 9.34zm-18.68 0l0 -9.34 9.34 0 -9.34 9.34zm13.95 -13.94l18.68 0 0 0 -0.03 1.2 -0.09 1.17 -0.15 1.17 -0.2 1.14 -0.26 1.12 -0.32 1.12 -0.37 1.11 -0.42 1.06 -0.46 1.02 -0.52 1.01 -0.56 0.98 -0.61 0.95 -0.64 0.9 -0.69 0.88 -0.74 0.84 -0.76 0.8 -0.81 0.78 -0.83 0.72 -0.87 0.68 -0.93 0.67 -0.95 0.6 -0.97 0.56 -1.01 0.52 -1.02 0.46 -1.05 0.42 -1.11 0.38 -1.1 0.31 -1.13 0.26 -1.16 0.2 -1.14 0.14 -1.17 0.09 -1.2 0.03 0 -18.68 0.24 -0.01 0.25 -0.02 0.25 -0.03 0.22 -0.04 0.22 -0.05 0.22 -0.06 0.18 -0.06 0.22 -0.09 0.22 -0.1 0.19 -0.1 0.2 -0.12 0.19 -0.12 0.16 -0.11 0.19 -0.15 0.18 -0.15 0.16 -0.15 0.16 -0.17 0.14 -0.16 0.14 -0.17 0.14 -0.19 0.11 -0.18 0.11 -0.19 0.1 -0.19 0.1 -0.22 0.08 -0.21 0.07 -0.19 0.05 -0.2 0.05 -0.23 0.05 -0.24 0.03 -0.22 0.02 -0.25 0.01 -0.24 0 0zm-13.95 -13.94l18.68 0 -9.34 -9.34 1.2 0.03 1.17 0.09 1.14 0.14 1.16 0.2 1.13 0.26 1.1 0.31 1.11 0.38 1.05 0.42 1.02 0.46 1.01 0.52 0.97 0.56 0.95 0.6 0.93 0.67 0.87 0.68 0.83 0.72 0.81 0.78 0.76 0.8 0.74 0.84 0.69 0.88 0.64 0.9 0.61 0.95 0.56 0.98 0.52 1.01 0.46 1.02 0.42 1.06 0.37 1.11 0.32 1.12 0.26 1.12 0.2 1.14 0.15 1.17 0.09 1.17 0.03 1.2 -18.68 0 -0.01 -0.24 -0.02 -0.25 -0.03 -0.22 -0.05 -0.24 -0.05 -0.23 -0.05 -0.2 -0.07 -0.19 -0.08 -0.21 -0.1 -0.22 -0.1 -0.19 -0.11 -0.19 -0.11 -0.18 -0.14 -0.19 -0.14 -0.17 -0.14 -0.16 -0.16 -0.17 -0.16 -0.15 -0.18 -0.15 -0.19 -0.15 -0.16 -0.11 -0.19 -0.12 -0.2 -0.12 -0.19 -0.1 -0.22 -0.1 -0.22 -0.09 -0.18 -0.06 -0.22 -0.06 -0.22 -0.05 -0.22 -0.04 -0.25 -0.03 -0.25 -0.02 -0.24 -0.01 -9.34 -9.34zm9.34 9.34l-9.34 0 0 -9.34 9.34 9.34zm9.34 -37.22l0 27.88 -18.68 0 0 -27.88 9.34 -9.34 9.34 9.34zm-18.68 0l0 -9.34 9.34 0 -9.34 9.34zm13.95 -13.94l18.68 0 0 0 -0.03 1.2 -0.09 1.17 -0.15 1.17 -0.2 1.14 -0.26 1.12 -0.32 1.12 -0.37 1.1 -0.42 1.06 -0.46 1.01 -0.52 1.02 -0.56 0.98 -0.61 0.95 -0.65 0.91 -0.67 0.85 -0.74 0.85 -0.79 0.82 -0.8 0.76 -0.83 0.72 -0.89 0.69 -0.91 0.65 -0.95 0.6 -0.97 0.56 -0.99 0.51 -1.04 0.47 -1.07 0.42 -1.09 0.37 -1.1 0.31 -1.13 0.26 -1.16 0.2 -1.14 0.14 -1.17 0.09 -1.2 0.03 0 -18.68 0.24 -0.01 0.25 -0.02 0.25 -0.03 0.22 -0.04 0.22 -0.05 0.22 -0.06 0.2 -0.07 0.19 -0.07 0.2 -0.09 0.21 -0.11 0.2 -0.12 0.19 -0.12 0.18 -0.12 0.17 -0.13 0.18 -0.15 0.18 -0.16 0.14 -0.15 0.14 -0.16 0.16 -0.2 0.13 -0.18 0.11 -0.18 0.11 -0.19 0.1 -0.19 0.1 -0.22 0.08 -0.21 0.07 -0.2 0.05 -0.19 0.05 -0.23 0.05 -0.24 0.03 -0.22 0.02 -0.25 0.01 -0.24 0 0zm-13.95 -13.94l18.68 0 -9.34 -9.34 1.2 0.03 1.17 0.09 1.14 0.14 1.16 0.2 1.13 0.26 1.1 0.31 1.11 0.38 1.05 0.42 1.02 0.46 1.01 0.52 0.97 0.56 0.95 0.6 0.93 0.67 0.87 0.68 0.83 0.72 0.81 0.78 0.76 0.8 0.74 0.84 0.69 0.88 0.64 0.9 0.61 0.95 0.56 0.98 0.52 1.01 0.46 1.02 0.42 1.06 0.37 1.11 0.32 1.12 0.26 1.12 0.2 1.14 0.15 1.17 0.09 1.17 0.03 1.2 -18.68 0 -0.01 -0.24 -0.02 -0.25 -0.03 -0.22 -0.05 -0.24 -0.05 -0.23 -0.05 -0.2 -0.07 -0.19 -0.08 -0.21 -0.1 -0.22 -0.1 -0.19 -0.11 -0.19 -0.11 -0.18 -0.14 -0.19 -0.14 -0.17 -0.14 -0.16 -0.16 -0.17 -0.16 -0.15 -0.18 -0.15 -0.19 -0.15 -0.16 -0.11 -0.19 -0.12 -0.2 -0.12 -0.19 -0.1 -0.22 -0.1 -0.22 -0.09 -0.18 -0.06 -0.22 -0.06 -0.22 -0.05 -0.22 -0.04 -0.25 -0.03 -0.25 -0.02 -0.24 -0.01 -9.34 -9.34zm9.34 9.34l-9.34 0 0 -9.34 9.34 9.34zm9.34 -37.22l0 27.88 -18.68 0 0 -27.88 9.34 -9.34 9.34 9.34zm-18.68 0l0 -9.34 9.34 0 -9.34 9.34zm13.95 -13.94l18.68 0 0 0 -0.03 1.2 -0.09 1.17 -0.15 1.17 -0.2 1.14 -0.26 1.12 -0.32 1.12 -0.37 1.11 -0.42 1.06 -0.46 1.02 -0.52 1.01 -0.56 0.98 -0.61 0.95 -0.64 0.9 -0.69 0.88 -0.74 0.84 -0.76 0.8 -0.81 0.78 -0.83 0.72 -0.87 0.68 -0.93 0.67 -0.95 0.6 -0.97 0.56 -1.01 0.52 -1.02 0.46 -1.05 0.42 -1.11 0.38 -1.1 0.31 -1.13 0.26 -1.16 0.2 -1.14 0.14 -1.17 0.09 -1.2 0.03 0 -18.68 0.24 -0.01 0.25 -0.02 0.25 -0.03 0.22 -0.04 0.22 -0.05 0.22 -0.06 0.18 -0.06 0.22 -0.09 0.22 -0.1 0.19 -0.1 0.2 -0.12 0.19 -0.12 0.16 -0.11 0.19 -0.15 0.18 -0.15 0.16 -0.15 0.16 -0.17 0.14 -0.16 0.14 -0.17 0.14 -0.19 0.11 -0.18 0.11 -0.19 0.1 -0.19 0.1 -0.22 0.08 -0.21 0.07 -0.19 0.05 -0.2 0.05 -0.23 0.05 -0.24 0.03 -0.22 0.02 -0.25 0.01 -0.24 0 0zm-13.95 -13.94l18.68 0 -9.34 -9.34 1.2 0.03 1.17 0.09 1.14 0.14 1.16 0.2 1.13 0.26 1.1 0.31 1.11 0.38 1.05 0.42 1.02 0.46 1.01 0.52 0.97 0.56 0.95 0.6 0.91 0.65 0.89 0.69 0.84 0.74 0.8 0.76 0.76 0.8 0.74 0.84 0.69 0.88 0.64 0.9 0.61 0.95 0.56 0.98 0.52 1.01 0.46 1.02 0.42 1.05 0.38 1.11 0.32 1.12 0.25 1.11 0.2 1.14 0.15 1.17 0.09 1.17 0.03 1.2 -18.68 0 -0.01 -0.24 -0.02 -0.25 -0.03 -0.22 -0.04 -0.23 -0.05 -0.23 -0.05 -0.2 -0.06 -0.18 -0.09 -0.22 -0.1 -0.22 -0.1 -0.19 -0.11 -0.19 -0.11 -0.18 -0.14 -0.19 -0.14 -0.17 -0.14 -0.16 -0.16 -0.17 -0.17 -0.16 -0.16 -0.14 -0.17 -0.13 -0.18 -0.12 -0.19 -0.12 -0.2 -0.12 -0.19 -0.1 -0.22 -0.1 -0.22 -0.09 -0.18 -0.06 -0.22 -0.06 -0.22 -0.05 -0.22 -0.04 -0.25 -0.03 -0.25 -0.02 -0.24 -0.01 -9.34 -9.34zm9.34 9.34l-9.34 0 0 -9.34 9.34 9.34zm9.34 -37.22l0 27.88 -18.68 0 0 -27.88 9.34 -9.34 9.34 9.34zm-18.68 0l0 -9.34 9.34 0 -9.34 9.34zm13.95 -13.94l18.68 0 0 0 -0.03 1.2 -0.09 1.17 -0.15 1.17 -0.2 1.14 -0.26 1.12 -0.32 1.12 -0.37 1.11 -0.42 1.06 -0.46 1.02 -0.52 1.01 -0.56 0.98 -0.61 0.95 -0.64 0.9 -0.69 0.88 -0.74 0.84 -0.76 0.8 -0.81 0.78 -0.83 0.72 -0.87 0.68 -0.93 0.67 -0.95 0.6 -0.97 0.56 -1.01 0.52 -1.02 0.46 -1.05 0.42 -1.11 0.38 -1.1 0.31 -1.13 0.26 -1.16 0.2 -1.14 0.14 -1.17 0.09 -1.2 0.03 0 -18.68 0.24 -0.01 0.25 -0.02 0.25 -0.03 0.22 -0.04 0.22 -0.05 0.22 -0.06 0.18 -0.06 0.22 -0.09 0.22 -0.1 0.19 -0.1 0.2 -0.12 0.19 -0.12 0.16 -0.11 0.19 -0.15 0.18 -0.15 0.16 -0.15 0.16 -0.17 0.14 -0.16 0.14 -0.17 0.14 -0.19 0.11 -0.18 0.11 -0.19 0.1 -0.19 0.1 -0.22 0.08 -0.21 0.07 -0.19 0.05 -0.2 0.05 -0.23 0.05 -0.24 0.03 -0.22 0.02 -0.25 0.01 -0.24 0 0zm-13.95 -13.94l18.68 0 -9.34 -9.34 1.2 0.03 1.17 0.09 1.14 0.14 1.16 0.2 1.13 0.26 1.1 0.31 1.09 0.37 1.07 0.42 1.04 0.47 0.99 0.51 0.97 0.56 0.95 0.6 0.91 0.65 0.89 0.69 0.83 0.72 0.8 0.76 0.79 0.82 0.74 0.85 0.67 0.85 0.65 0.91 0.61 0.95 0.56 0.98 0.52 1.02 0.46 1.01 0.42 1.06 0.37 1.1 0.32 1.12 0.26 1.12 0.2 1.14 0.15 1.17 0.09 1.17 0.03 1.2 -18.68 0 -0.01 -0.24 -0.02 -0.25 -0.03 -0.22 -0.05 -0.24 -0.05 -0.23 -0.05 -0.19 -0.07 -0.2 -0.08 -0.21 -0.1 -0.22 -0.1 -0.19 -0.11 -0.19 -0.11 -0.18 -0.13 -0.18 -0.16 -0.2 -0.14 -0.16 -0.14 -0.15 -0.18 -0.16 -0.18 -0.15 -0.17 -0.13 -0.18 -0.12 -0.19 -0.12 -0.2 -0.12 -0.21 -0.11 -0.2 -0.09 -0.19 -0.07 -0.2 -0.07 -0.22 -0.06 -0.22 -0.05 -0.22 -0.04 -0.25 -0.03 -0.25 -0.02 -0.24 -0.01 -9.34 -9.34zm9.34 9.34l-9.34 0 0 -9.34 9.34 9.34zm9.34 -37.23l0 27.89 -18.68 0 0 -27.89 9.34 -9.34 9.34 9.34zm-18.68 0l0 -9.34 9.34 0 -9.34 9.34zm13.95 -13.94l18.68 0 0 0 -0.03 1.2 -0.09 1.17 -0.15 1.17 -0.2 1.14 -0.26 1.12 -0.32 1.12 -0.37 1.1 -0.42 1.06 -0.46 1.01 -0.52 1.02 -0.56 0.98 -0.61 0.95 -0.65 0.91 -0.67 0.85 -0.74 0.85 -0.79 0.82 -0.8 0.76 -0.83 0.72 -0.89 0.69 -0.91 0.65 -0.95 0.6 -0.97 0.56 -0.99 0.51 -1.04 0.47 -1.07 0.42 -1.09 0.37 -1.1 0.31 -1.13 0.26 -1.16 0.2 -1.14 0.14 -1.17 0.09 -1.2 0.03 0 -18.68 0.24 -0.01 0.25 -0.02 0.25 -0.03 0.22 -0.04 0.22 -0.05 0.22 -0.06 0.2 -0.07 0.19 -0.07 0.2 -0.09 0.21 -0.11 0.2 -0.12 0.19 -0.12 0.18 -0.12 0.17 -0.13 0.18 -0.15 0.18 -0.16 0.14 -0.15 0.14 -0.16 0.16 -0.2 0.13 -0.18 0.11 -0.18 0.11 -0.19 0.1 -0.19 0.1 -0.22 0.08 -0.21 0.07 -0.2 0.05 -0.19 0.05 -0.23 0.05 -0.24 0.03 -0.22 0.02 -0.25 0.01 -0.24 0 0zm-13.95 -13.91l18.68 -0.07 -9.34 -9.31 1.2 0.03 1.17 0.09 1.14 0.14 1.16 0.2 1.13 0.26 1.1 0.31 1.11 0.38 1.05 0.42 1.02 0.46 1.01 0.52 0.97 0.56 0.95 0.6 0.93 0.67 0.87 0.68 0.83 0.72 0.81 0.78 0.76 0.8 0.74 0.84 0.69 0.88 0.64 0.9 0.61 0.95 0.56 0.98 0.52 1.01 0.46 1.02 0.42 1.06 0.37 1.11 0.32 1.12 0.26 1.12 0.2 1.14 0.15 1.17 0.09 1.17 0.03 1.2 -18.68 0 -0.01 -0.24 -0.02 -0.25 -0.03 -0.22 -0.05 -0.24 -0.05 -0.23 -0.05 -0.2 -0.07 -0.19 -0.08 -0.21 -0.1 -0.22 -0.1 -0.19 -0.11 -0.19 -0.11 -0.18 -0.14 -0.19 -0.14 -0.17 -0.14 -0.16 -0.16 -0.17 -0.16 -0.15 -0.18 -0.15 -0.19 -0.15 -0.16 -0.11 -0.19 -0.12 -0.2 -0.12 -0.19 -0.1 -0.22 -0.1 -0.22 -0.09 -0.18 -0.06 -0.22 -0.06 -0.22 -0.05 -0.22 -0.04 -0.25 -0.03 -0.25 -0.02 -0.24 -0.01 -9.34 -9.31zm9.34 9.31l-9.31 0 -0.03 -9.31 9.34 9.31zm9.25 -35.26l0.1 25.88 -18.68 0.07 -0.1 -25.88 9.34 -9.37 9.34 9.31zm-18.68 0.07l-0.03 -9.37 9.37 0 -9.34 9.37zm34.42 9.31l-25.08 0 0 -18.68 25.08 0 9.34 9.34 -9.34 9.34zm0 -18.68l9.34 0 0 9.34 -9.34 -9.34zm13.94 13.95l0 18.68 0 0 -1.2 -0.03 -1.17 -0.09 -1.17 -0.15 -1.14 -0.2 -1.12 -0.26 -1.12 -0.32 -1.11 -0.37 -1.06 -0.42 -1.02 -0.46 -1.01 -0.52 -0.98 -0.56 -0.95 -0.61 -0.9 -0.64 -0.88 -0.69 -0.84 -0.74 -0.8 -0.76 -0.78 -0.81 -0.72 -0.83 -0.68 -0.87 -0.67 -0.93 -0.6 -0.95 -0.56 -0.97 -0.52 -1.01 -0.46 -1.02 -0.42 -1.05 -0.38 -1.11 -0.31 -1.1 -0.26 -1.13 -0.2 -1.16 -0.15 -1.14 -0.09 -1.17 -0.03 -1.2 18.68 0 0.01 0.24 0.02 0.25 0.03 0.25 0.04 0.22 0.05 0.22 0.06 0.22 0.06 0.18 0.09 0.22 0.1 0.22 0.1 0.19 0.12 0.2 0.12 0.19 0.11 0.16 0.15 0.19 0.15 0.18 0.15 0.16 0.17 0.16 0.16 0.14 0.17 0.14 0.19 0.14 0.18 0.11 0.19 0.11 0.19 0.1 0.22 0.1 0.21 0.08 0.19 0.07 0.2 0.05 0.23 0.05 0.24 0.04 0.22 0.03 0.25 0.02 0.24 0.01 0 0zm13.94 -13.95l0 18.68 9.34 -9.34 -0.03 1.2 -0.09 1.17 -0.15 1.14 -0.2 1.16 -0.26 1.13 -0.31 1.1 -0.37 1.09 -0.42 1.07 -0.47 1.04 -0.51 0.99 -0.56 0.97 -0.6 0.95 -0.65 0.91 -0.69 0.89 -0.72 0.83 -0.76 0.8 -0.82 0.78 -0.85 0.74 -0.85 0.67 -0.91 0.65 -0.95 0.61 -0.98 0.56 -1.02 0.52 -1.01 0.46 -1.06 0.42 -1.1 0.37 -1.12 0.32 -1.12 0.26 -1.14 0.2 -1.17 0.15 -1.17 0.09 -1.2 0.03 0 -18.68 0.24 -0.01 0.25 -0.02 0.22 -0.03 0.24 -0.04 0.23 -0.05 0.19 -0.05 0.2 -0.07 0.21 -0.08 0.22 -0.1 0.19 -0.1 0.19 -0.11 0.18 -0.11 0.18 -0.13 0.2 -0.16 0.16 -0.14 0.15 -0.14 0.16 -0.17 0.15 -0.18 0.13 -0.17 0.12 -0.18 0.12 -0.19 0.12 -0.2 0.11 -0.21 0.09 -0.2 0.07 -0.19 0.07 -0.2 0.06 -0.22 0.05 -0.22 0.04 -0.22 0.03 -0.25 0.02 -0.25 0.01 -0.24 9.34 -9.34zm-9.34 9.34l0 -9.34 9.34 0 -9.34 9.34zm37.22 9.34l-27.88 0 0 -18.68 27.88 0 9.34 9.34 -9.34 9.34zm0 -18.68l9.34 0 0 9.34 -9.34 -9.34zm13.95 13.95l0 18.68 0 0 -1.2 -0.03 -1.17 -0.09 -1.17 -0.15 -1.14 -0.2 -1.11 -0.26 -1.13 -0.32 -1.11 -0.38 -1.05 -0.42 -1.02 -0.46 -1.01 -0.52 -0.97 -0.56 -0.97 -0.62 -0.91 -0.65 -0.87 -0.68 -0.83 -0.72 -0.81 -0.77 -0.77 -0.81 -0.72 -0.83 -0.68 -0.87 -0.65 -0.91 -0.62 -0.97 -0.56 -0.97 -0.52 -1.01 -0.46 -1.02 -0.42 -1.05 -0.38 -1.11 -0.32 -1.13 -0.26 -1.11 -0.2 -1.14 -0.15 -1.17 -0.09 -1.17 -0.03 -1.2 18.68 0 0.01 0.24 0.02 0.25 0.03 0.22 0.05 0.24 0.05 0.24 0.05 0.2 0.06 0.18 0.09 0.22 0.1 0.22 0.1 0.19 0.12 0.2 0.11 0.17 0.13 0.18 0.15 0.19 0.15 0.18 0.15 0.16 0.16 0.15 0.18 0.15 0.19 0.15 0.18 0.13 0.17 0.11 0.2 0.12 0.19 0.1 0.22 0.1 0.22 0.09 0.18 0.06 0.2 0.05 0.24 0.05 0.24 0.04 0.22 0.03 0.25 0.02 0.24 0.01 0 0zm13.94 -13.95l0 18.68 9.34 -9.34 -0.03 1.2 -0.09 1.17 -0.15 1.14 -0.2 1.16 -0.26 1.13 -0.31 1.1 -0.38 1.11 -0.42 1.05 -0.46 1.02 -0.52 1.01 -0.56 0.97 -0.6 0.95 -0.67 0.93 -0.68 0.87 -0.72 0.83 -0.78 0.81 -0.8 0.76 -0.84 0.74 -0.88 0.69 -0.9 0.64 -0.95 0.61 -0.98 0.56 -1.01 0.52 -1.02 0.46 -1.06 0.42 -1.11 0.37 -1.12 0.32 -1.12 0.26 -1.14 0.2 -1.17 0.15 -1.17 0.09 -1.2 0.03 0 -18.68 0.24 -0.01 0.25 -0.02 0.22 -0.03 0.24 -0.04 0.23 -0.05 0.2 -0.05 0.19 -0.07 0.21 -0.08 0.22 -0.1 0.19 -0.1 0.19 -0.11 0.18 -0.11 0.19 -0.14 0.17 -0.14 0.16 -0.14 0.17 -0.16 0.15 -0.16 0.15 -0.18 0.15 -0.19 0.11 -0.16 0.12 -0.19 0.12 -0.2 0.1 -0.19 0.1 -0.22 0.09 -0.22 0.06 -0.18 0.06 -0.22 0.05 -0.22 0.04 -0.22 0.03 -0.25 0.02 -0.25 0.01 -0.24 9.34 -9.34zm-9.34 9.34l0 -9.34 9.34 0 -9.34 9.34zm37.22 9.34l-27.88 0 0 -18.68 27.88 0 9.34 9.34 -9.34 9.34zm0 -18.68l9.34 0 0 9.34 -9.34 -9.34zm13.94 13.95l0 18.68 0 0 -1.2 -0.03 -1.17 -0.09 -1.17 -0.15 -1.14 -0.2 -1.12 -0.26 -1.12 -0.32 -1.1 -0.37 -1.06 -0.42 -1.01 -0.46 -1.02 -0.52 -0.98 -0.56 -0.95 -0.61 -0.91 -0.65 -0.85 -0.67 -0.85 -0.74 -0.82 -0.78 -0.76 -0.8 -0.72 -0.83 -0.69 -0.89 -0.65 -0.91 -0.6 -0.95 -0.56 -0.97 -0.51 -0.99 -0.47 -1.04 -0.42 -1.07 -0.37 -1.09 -0.31 -1.1 -0.26 -1.13 -0.2 -1.16 -0.15 -1.14 -0.09 -1.17 -0.03 -1.2 18.68 0 0.01 0.24 0.02 0.25 0.03 0.25 0.04 0.22 0.05 0.22 0.06 0.22 0.07 0.2 0.07 0.19 0.09 0.2 0.11 0.21 0.12 0.2 0.12 0.19 0.12 0.18 0.13 0.17 0.15 0.18 0.16 0.17 0.15 0.14 0.16 0.14 0.2 0.16 0.18 0.13 0.18 0.11 0.19 0.11 0.19 0.1 0.22 0.1 0.21 0.08 0.2 0.07 0.19 0.05 0.23 0.05 0.24 0.04 0.22 0.03 0.25 0.02 0.24 0.01 0 0zm13.94 -13.95l0 18.68 9.34 -9.34 -0.03 1.2 -0.09 1.17 -0.15 1.14 -0.2 1.16 -0.26 1.13 -0.31 1.1 -0.38 1.11 -0.42 1.05 -0.46 1.02 -0.52 1.01 -0.56 0.97 -0.6 0.95 -0.67 0.93 -0.68 0.87 -0.72 0.83 -0.78 0.81 -0.8 0.76 -0.84 0.74 -0.88 0.69 -0.9 0.64 -0.95 0.61 -0.98 0.56 -1.01 0.52 -1.02 0.46 -1.06 0.42 -1.11 0.37 -1.12 0.32 -1.12 0.26 -1.14 0.2 -1.17 0.15 -1.17 0.09 -1.2 0.03 0 -18.68 0.24 -0.01 0.25 -0.02 0.22 -0.03 0.24 -0.04 0.23 -0.05 0.2 -0.05 0.19 -0.07 0.21 -0.08 0.22 -0.1 0.19 -0.1 0.19 -0.11 0.18 -0.11 0.19 -0.14 0.17 -0.14 0.16 -0.14 0.17 -0.16 0.15 -0.16 0.15 -0.18 0.15 -0.19 0.11 -0.16 0.12 -0.19 0.12 -0.2 0.1 -0.19 0.1 -0.22 0.09 -0.22 0.06 -0.18 0.06 -0.22 0.05 -0.22 0.04 -0.22 0.03 -0.25 0.02 -0.25 0.01 -0.24 9.34 -9.34zm-9.34 9.34l0 -9.34 9.34 0 -9.34 9.34zm37.22 9.34l-27.88 0 0 -18.68 27.88 0 9.34 9.34 -9.34 9.34zm0 -18.68l9.34 0 0 9.34 -9.34 -9.34zm13.94 13.95l0 18.68 0 0 -1.2 -0.03 -1.17 -0.09 -1.17 -0.15 -1.14 -0.2 -1.12 -0.26 -1.12 -0.32 -1.11 -0.37 -1.06 -0.42 -1.02 -0.46 -1.01 -0.52 -0.98 -0.56 -0.95 -0.61 -0.9 -0.64 -0.88 -0.69 -0.84 -0.74 -0.8 -0.76 -0.78 -0.81 -0.72 -0.83 -0.68 -0.87 -0.67 -0.93 -0.6 -0.95 -0.56 -0.97 -0.52 -1.01 -0.46 -1.02 -0.42 -1.05 -0.38 -1.11 -0.31 -1.1 -0.26 -1.13 -0.2 -1.16 -0.15 -1.14 -0.09 -1.17 -0.03 -1.2 18.68 0 0.01 0.24 0.02 0.25 0.03 0.25 0.04 0.22 0.05 0.22 0.06 0.22 0.06 0.18 0.09 0.22 0.1 0.22 0.1 0.19 0.12 0.2 0.12 0.19 0.11 0.16 0.15 0.19 0.15 0.18 0.15 0.16 0.17 0.16 0.16 0.14 0.17 0.14 0.19 0.14 0.18 0.11 0.19 0.11 0.19 0.1 0.22 0.1 0.21 0.08 0.19 0.07 0.2 0.05 0.23 0.05 0.24 0.04 0.22 0.03 0.25 0.02 0.24 0.01 0 0zm13.94 -13.95l0 18.68 9.34 -9.34 -0.03 1.2 -0.09 1.17 -0.15 1.14 -0.2 1.16 -0.26 1.13 -0.31 1.1 -0.38 1.11 -0.42 1.05 -0.46 1.02 -0.52 1.01 -0.56 0.97 -0.62 0.97 -0.65 0.91 -0.68 0.87 -0.72 0.83 -0.76 0.8 -0.82 0.78 -0.85 0.74 -0.85 0.67 -0.91 0.65 -0.95 0.61 -0.98 0.56 -1.02 0.52 -1.01 0.45 -1.06 0.42 -1.11 0.38 -1.12 0.32 -1.11 0.25 -1.14 0.21 -1.17 0.15 -1.17 0.09 -1.2 0.03 0 -18.68 0.24 -0.01 0.24 -0.02 0.23 -0.03 0.23 -0.04 0.23 -0.05 0.2 -0.05 0.18 -0.06 0.21 -0.08 0.22 -0.1 0.19 -0.1 0.19 -0.11 0.18 -0.11 0.18 -0.13 0.2 -0.16 0.16 -0.14 0.15 -0.14 0.16 -0.17 0.15 -0.18 0.15 -0.19 0.13 -0.18 0.11 -0.17 0.12 -0.2 0.1 -0.19 0.1 -0.22 0.09 -0.22 0.06 -0.18 0.06 -0.22 0.05 -0.22 0.04 -0.22 0.03 -0.25 0.02 -0.25 0.01 -0.24 9.34 -9.34zm-9.34 9.34l0 -9.34 9.34 0 -9.34 9.34zm37.22 9.34l-27.88 0 0 -18.68 27.88 0 9.34 9.34 -9.34 9.34zm0 -18.68l9.34 0 0 9.34 -9.34 -9.34zm13.94 13.95l0 18.68 0 0 -1.2 -0.03 -1.17 -0.09 -1.17 -0.15 -1.14 -0.2 -1.12 -0.26 -1.12 -0.32 -1.11 -0.37 -1.06 -0.42 -1.02 -0.46 -1.01 -0.52 -0.98 -0.56 -0.95 -0.61 -0.9 -0.64 -0.88 -0.69 -0.84 -0.74 -0.8 -0.76 -0.78 -0.81 -0.72 -0.83 -0.68 -0.87 -0.67 -0.93 -0.6 -0.95 -0.56 -0.97 -0.52 -1.01 -0.46 -1.02 -0.42 -1.05 -0.38 -1.11 -0.31 -1.1 -0.26 -1.13 -0.2 -1.16 -0.15 -1.14 -0.09 -1.17 -0.03 -1.2 18.68 0 0.01 0.24 0.02 0.25 0.03 0.25 0.04 0.22 0.05 0.22 0.06 0.22 0.06 0.18 0.09 0.22 0.1 0.22 0.1 0.19 0.12 0.2 0.12 0.19 0.11 0.16 0.15 0.19 0.15 0.18 0.15 0.16 0.17 0.16 0.16 0.14 0.17 0.14 0.19 0.14 0.18 0.11 0.19 0.11 0.19 0.1 0.22 0.1 0.21 0.08 0.19 0.07 0.2 0.05 0.23 0.05 0.24 0.04 0.22 0.03 0.25 0.02 0.24 0.01 0 0zm13.88 -13.95l0.11 18.68 9.29 -9.34 -0.03 1.2 -0.09 1.17 -0.15 1.14 -0.2 1.16 -0.26 1.13 -0.31 1.1 -0.37 1.09 -0.42 1.07 -0.47 1.04 -0.51 0.99 -0.56 0.97 -0.6 0.95 -0.65 0.91 -0.69 0.89 -0.72 0.83 -0.76 0.8 -0.82 0.78 -0.85 0.74 -0.85 0.67 -0.91 0.65 -0.95 0.61 -0.98 0.56 -1.02 0.52 -1.01 0.46 -1.06 0.42 -1.1 0.37 -1.12 0.32 -1.12 0.26 -1.14 0.2 -1.17 0.15 -1.17 0.09 -1.2 0.03 0 -18.68 0.24 -0.01 0.25 -0.02 0.22 -0.03 0.24 -0.04 0.23 -0.05 0.19 -0.05 0.2 -0.07 0.21 -0.08 0.22 -0.1 0.19 -0.1 0.19 -0.11 0.18 -0.11 0.18 -0.13 0.2 -0.16 0.16 -0.14 0.15 -0.14 0.16 -0.17 0.15 -0.18 0.13 -0.17 0.12 -0.18 0.12 -0.19 0.12 -0.2 0.11 -0.21 0.09 -0.2 0.07 -0.19 0.07 -0.2 0.06 -0.22 0.05 -0.22 0.04 -0.22 0.03 -0.25 0.02 -0.25 0.01 -0.24 9.29 -9.34zm-9.29 9.34l0 -9.29 9.29 -0.05 -9.29 9.34zm38.08 9.17l-28.68 0.17 -0.11 -18.68 28.68 -0.17 9.4 9.34 -9.29 9.34zm-0.11 -18.68l9.4 -0.05 0 9.4 -9.4 -9.34zm-9.29 34.14l0 -24.8 18.68 0 0 24.8 -9.34 9.34 -9.34 -9.34zm18.68 0l0 9.34 -9.34 0 9.34 -9.34zm-13.95 13.94l-18.68 0 0 0 0.03 -1.2 0.09 -1.17 0.15 -1.17 0.2 -1.14 0.26 -1.12 0.32 -1.12 0.37 -1.11 0.42 -1.06 0.46 -1.02 0.52 -1.01 0.56 -0.98 0.61 -0.95 0.64 -0.9 0.69 -0.88 0.74 -0.84 0.76 -0.8 0.81 -0.78 0.83 -0.72 0.87 -0.68 0.93 -0.67 0.95 -0.6 0.97 -0.56 1.01 -0.52 1.02 -0.46 1.05 -0.42 1.11 -0.38 1.1 -0.31 1.13 -0.26 1.16 -0.2 1.14 -0.14 1.17 -0.09 1.2 -0.03 0 18.68 -0.24 0.01 -0.25 0.02 -0.25 0.03 -0.22 0.04 -0.22 0.05 -0.22 0.06 -0.18 0.06 -0.22 0.09 -0.22 0.1 -0.19 0.1 -0.2 0.12 -0.19 0.12 -0.16 0.11 -0.19 0.15 -0.18 0.15 -0.16 0.15 -0.16 0.17 -0.14 0.16 -0.14 0.17 -0.14 0.19 -0.11 0.18 -0.11 0.19 -0.1 0.19 -0.1 0.22 -0.08 0.21 -0.07 0.19 -0.05 0.2 -0.05 0.23 -0.05 0.24 -0.03 0.22 -0.02 0.25 -0.01 0.24 0 0zm13.95 13.94l-18.68 0 9.34 9.34 -1.2 -0.03 -1.17 -0.09 -1.14 -0.14 -1.16 -0.2 -1.13 -0.26 -1.1 -0.31 -1.11 -0.38 -1.05 -0.42 -1.02 -0.46 -1.01 -0.52 -0.97 -0.56 -0.95 -0.6 -0.91 -0.65 -0.89 -0.69 -0.83 -0.72 -0.81 -0.77 -0.77 -0.81 -0.72 -0.83 -0.69 -0.88 -0.64 -0.9 -0.61 -0.95 -0.56 -0.98 -0.52 -1.01 -0.46 -1.02 -0.42 -1.05 -0.38 -1.11 -0.32 -1.12 -0.25 -1.11 -0.2 -1.14 -0.15 -1.17 -0.09 -1.17 -0.03 -1.2 18.68 0 0.01 0.24 0.02 0.25 0.03 0.22 0.04 0.23 0.05 0.23 0.05 0.2 0.06 0.18 0.09 0.22 0.1 0.22 0.1 0.19 0.11 0.19 0.11 0.18 0.14 0.19 0.14 0.17 0.15 0.18 0.15 0.16 0.16 0.15 0.18 0.15 0.17 0.13 0.18 0.12 0.19 0.12 0.2 0.12 0.19 0.1 0.22 0.1 0.22 0.09 0.18 0.06 0.22 0.06 0.22 0.05 0.22 0.04 0.25 0.03 0.25 0.02 0.24 0.01 9.34 9.34zm-9.34 -9.34l9.34 0 0 9.34 -9.34 -9.34zm-9.34 37.22l0 -27.88 18.68 0 0 27.88 -9.34 9.34 -9.34 -9.34zm18.68 0l0 9.34 -9.34 0 9.34 -9.34zm-13.95 13.95l-18.68 0 0 0 0.03 -1.2 0.09 -1.17 0.15 -1.17 0.2 -1.14 0.26 -1.11 0.32 -1.13 0.38 -1.11 0.42 -1.05 0.46 -1.02 0.52 -1.01 0.56 -0.97 0.62 -0.97 0.65 -0.91 0.68 -0.87 0.72 -0.83 0.77 -0.81 0.81 -0.77 0.83 -0.72 0.87 -0.68 0.91 -0.65 0.97 -0.62 0.97 -0.56 1.01 -0.52 1.02 -0.46 1.05 -0.42 1.11 -0.38 1.13 -0.32 1.11 -0.26 1.14 -0.2 1.17 -0.15 1.17 -0.09 1.2 -0.03 0 18.68 -0.24 0.01 -0.25 0.02 -0.22 0.03 -0.24 0.04 -0.24 0.05 -0.2 0.05 -0.18 0.06 -0.22 0.09 -0.22 0.1 -0.19 0.1 -0.2 0.12 -0.17 0.11 -0.18 0.13 -0.19 0.15 -0.18 0.15 -0.16 0.15 -0.15 0.16 -0.15 0.18 -0.15 0.19 -0.13 0.18 -0.11 0.17 -0.12 0.2 -0.1 0.19 -0.1 0.22 -0.09 0.22 -0.06 0.18 -0.05 0.2 -0.05 0.24 -0.05 0.24 -0.03 0.22 -0.02 0.25 -0.01 0.24 0 0zm13.95 13.94l-18.68 0 9.34 9.34 -1.2 -0.03 -1.17 -0.09 -1.14 -0.14 -1.16 -0.2 -1.13 -0.26 -1.1 -0.31 -1.09 -0.37 -1.07 -0.42 -1.04 -0.47 -0.99 -0.51 -0.97 -0.56 -0.95 -0.6 -0.91 -0.65 -0.89 -0.69 -0.83 -0.72 -0.8 -0.76 -0.79 -0.82 -0.74 -0.85 -0.67 -0.85 -0.65 -0.91 -0.61 -0.95 -0.56 -0.98 -0.52 -1.02 -0.46 -1.01 -0.42 -1.06 -0.37 -1.1 -0.32 -1.12 -0.26 -1.12 -0.2 -1.14 -0.15 -1.17 -0.09 -1.17 -0.03 -1.2 18.68 0 0.01 0.24 0.02 0.25 0.03 0.22 0.05 0.24 0.05 0.23 0.05 0.19 0.07 0.2 0.08 0.21 0.1 0.22 0.1 0.19 0.11 0.19 0.11 0.18 0.13 0.18 0.16 0.2 0.14 0.16 0.14 0.15 0.18 0.16 0.18 0.15 0.17 0.13 0.18 0.12 0.19 0.12 0.2 0.12 0.21 0.11 0.2 0.09 0.19 0.07 0.2 0.07 0.22 0.06 0.22 0.05 0.22 0.04 0.25 0.03 0.25 0.02 0.24 0.01 9.34 9.34zm-9.34 -9.34l9.34 0 0 9.34 -9.34 -9.34zm-9.34 37.22l0 -27.88 18.68 0 0 27.88 -9.34 9.34 -9.34 -9.34zm18.68 0l0 9.34 -9.34 0 9.34 -9.34zm-13.95 13.94l-18.68 0 0 0 0.03 -1.2 0.09 -1.17 0.15 -1.17 0.2 -1.14 0.26 -1.12 0.32 -1.12 0.37 -1.1 0.42 -1.06 0.46 -1.01 0.52 -1.02 0.56 -0.98 0.61 -0.95 0.65 -0.91 0.67 -0.85 0.74 -0.85 0.79 -0.82 0.8 -0.76 0.83 -0.72 0.89 -0.69 0.91 -0.65 0.95 -0.6 0.97 -0.56 0.99 -0.51 1.04 -0.47 1.07 -0.42 1.09 -0.37 1.1 -0.31 1.13 -0.26 1.16 -0.2 1.14 -0.14 1.17 -0.09 1.2 -0.03 0 18.68 -0.24 0.01 -0.25 0.02 -0.25 0.03 -0.22 0.04 -0.22 0.05 -0.22 0.06 -0.2 0.07 -0.19 0.07 -0.2 0.09 -0.21 0.11 -0.2 0.12 -0.19 0.12 -0.18 0.12 -0.17 0.13 -0.18 0.15 -0.18 0.16 -0.14 0.15 -0.14 0.16 -0.16 0.2 -0.13 0.18 -0.11 0.18 -0.11 0.19 -0.1 0.19 -0.1 0.22 -0.08 0.21 -0.07 0.2 -0.05 0.19 -0.05 0.23 -0.05 0.24 -0.03 0.22 -0.02 0.25 -0.01 0.24 0 0zm13.95 13.94l-18.68 0 9.34 9.34 -1.2 -0.03 -1.17 -0.09 -1.14 -0.14 -1.16 -0.2 -1.13 -0.26 -1.1 -0.31 -1.11 -0.38 -1.05 -0.42 -1.02 -0.46 -1.01 -0.52 -0.97 -0.56 -0.95 -0.6 -0.93 -0.67 -0.87 -0.68 -0.83 -0.72 -0.81 -0.78 -0.76 -0.8 -0.74 -0.84 -0.69 -0.88 -0.64 -0.9 -0.61 -0.95 -0.56 -0.98 -0.52 -1.01 -0.46 -1.02 -0.42 -1.06 -0.37 -1.11 -0.32 -1.12 -0.26 -1.12 -0.2 -1.14 -0.15 -1.17 -0.09 -1.17 -0.03 -1.2 18.68 0 0.01 0.24 0.02 0.25 0.03 0.22 0.05 0.24 0.05 0.23 0.05 0.2 0.07 0.19 0.08 0.21 0.1 0.22 0.1 0.19 0.11 0.19 0.11 0.18 0.14 0.19 0.14 0.17 0.14 0.16 0.16 0.17 0.16 0.15 0.18 0.15 0.19 0.15 0.16 0.11 0.19 0.12 0.2 0.12 0.19 0.1 0.22 0.1 0.22 0.09 0.18 0.06 0.22 0.06 0.22 0.05 0.22 0.04 0.25 0.03 0.25 0.02 0.24 0.01 9.34 9.34zm-9.34 -9.34l9.34 0 0 9.34 -9.34 -9.34zm-9.34 37.22l0 -27.88 18.68 0 0 27.88 -9.34 9.34 -9.34 -9.34zm18.68 0l0 9.34 -9.34 0 9.34 -9.34zm-13.95 13.94l-18.68 0 0 0 0.03 -1.2 0.09 -1.17 0.15 -1.17 0.2 -1.14 0.26 -1.12 0.32 -1.12 0.37 -1.1 0.42 -1.06 0.46 -1.01 0.52 -1.02 0.56 -0.98 0.61 -0.95 0.65 -0.91 0.67 -0.85 0.74 -0.85 0.79 -0.82 0.8 -0.76 0.83 -0.72 0.89 -0.69 0.91 -0.65 0.95 -0.6 0.97 -0.56 0.99 -0.51 1.04 -0.47 1.07 -0.42 1.09 -0.37 1.1 -0.31 1.13 -0.26 1.16 -0.2 1.14 -0.14 1.17 -0.09 1.2 -0.03 0 18.68 -0.24 0.01 -0.25 0.02 -0.25 0.03 -0.22 0.04 -0.22 0.05 -0.22 0.06 -0.2 0.07 -0.19 0.07 -0.2 0.09 -0.21 0.11 -0.2 0.12 -0.19 0.12 -0.18 0.12 -0.17 0.13 -0.18 0.15 -0.18 0.16 -0.14 0.15 -0.14 0.16 -0.16 0.2 -0.13 0.18 -0.11 0.18 -0.11 0.19 -0.1 0.19 -0.1 0.22 -0.08 0.21 -0.07 0.2 -0.05 0.19 -0.05 0.23 -0.05 0.24 -0.03 0.22 -0.02 0.25 -0.01 0.24 0 0zm13.95 13.94l-18.68 0 9.34 9.34 -1.2 -0.03 -1.17 -0.09 -1.14 -0.14 -1.16 -0.2 -1.13 -0.26 -1.1 -0.31 -1.11 -0.38 -1.05 -0.42 -1.02 -0.46 -1.01 -0.52 -0.97 -0.56 -0.95 -0.6 -0.93 -0.67 -0.87 -0.68 -0.83 -0.72 -0.81 -0.78 -0.76 -0.8 -0.74 -0.84 -0.69 -0.88 -0.64 -0.9 -0.61 -0.95 -0.56 -0.98 -0.52 -1.01 -0.46 -1.02 -0.42 -1.06 -0.37 -1.11 -0.32 -1.12 -0.26 -1.12 -0.2 -1.14 -0.15 -1.17 -0.09 -1.17 -0.03 -1.2 18.68 0 0.01 0.24 0.02 0.25 0.03 0.22 0.05 0.24 0.05 0.23 0.05 0.2 0.07 0.19 0.08 0.21 0.1 0.22 0.1 0.19 0.11 0.19 0.11 0.18 0.14 0.19 0.14 0.17 0.14 0.16 0.16 0.17 0.16 0.15 0.18 0.15 0.19 0.15 0.16 0.11 0.19 0.12 0.2 0.12 0.19 0.1 0.22 0.1 0.22 0.09 0.18 0.06 0.22 0.06 0.22 0.05 0.22 0.04 0.25 0.03 0.25 0.02 0.24 0.01 9.34 9.34zm-9.34 -9.34l9.34 0 0 9.34 -9.34 -9.34zm-9.34 37.22l0 -27.88 18.68 0 0 27.88 -9.34 9.34 -9.34 -9.34zm18.68 0l0 9.34 -9.34 0 9.34 -9.34zm-13.95 13.95l-18.68 0 0 0 0.03 -1.2 0.09 -1.17 0.15 -1.17 0.2 -1.14 0.26 -1.11 0.32 -1.13 0.38 -1.11 0.42 -1.05 0.46 -1.02 0.52 -1.01 0.56 -0.97 0.62 -0.97 0.65 -0.91 0.68 -0.87 0.72 -0.83 0.77 -0.81 0.81 -0.77 0.83 -0.72 0.87 -0.68 0.91 -0.65 0.97 -0.62 0.97 -0.56 1.01 -0.52 1.02 -0.46 1.05 -0.42 1.11 -0.38 1.13 -0.32 1.11 -0.26 1.14 -0.2 1.17 -0.15 1.17 -0.09 1.2 -0.03 0 18.68 -0.24 0.01 -0.25 0.02 -0.22 0.03 -0.24 0.04 -0.24 0.05 -0.2 0.05 -0.18 0.06 -0.22 0.09 -0.22 0.1 -0.19 0.1 -0.2 0.12 -0.17 0.11 -0.18 0.13 -0.19 0.15 -0.18 0.15 -0.16 0.15 -0.15 0.16 -0.15 0.18 -0.15 0.19 -0.13 0.18 -0.11 0.17 -0.12 0.2 -0.1 0.19 -0.1 0.22 -0.09 0.22 -0.06 0.18 -0.05 0.2 -0.05 0.24 -0.05 0.24 -0.03 0.22 -0.02 0.25 -0.01 0.24 0 0zm13.95 13.94l-18.68 0 9.34 9.34 -1.2 -0.03 -1.17 -0.09 -1.14 -0.14 -1.16 -0.2 -1.13 -0.26 -1.1 -0.31 -1.09 -0.37 -1.07 -0.42 -1.04 -0.47 -0.99 -0.51 -0.97 -0.56 -0.95 -0.6 -0.91 -0.65 -0.89 -0.69 -0.83 -0.72 -0.8 -0.76 -0.79 -0.82 -0.74 -0.85 -0.67 -0.85 -0.65 -0.91 -0.61 -0.95 -0.56 -0.98 -0.52 -1.02 -0.46 -1.01 -0.42 -1.06 -0.37 -1.1 -0.32 -1.12 -0.26 -1.12 -0.2 -1.14 -0.15 -1.17 -0.09 -1.17 -0.03 -1.2 18.68 0 0.01 0.24 0.02 0.25 0.03 0.22 0.05 0.24 0.05 0.23 0.05 0.19 0.07 0.2 0.08 0.21 0.1 0.22 0.1 0.19 0.11 0.19 0.11 0.18 0.13 0.18 0.16 0.2 0.14 0.16 0.14 0.15 0.18 0.16 0.18 0.15 0.17 0.13 0.18 0.12 0.19 0.12 0.2 0.12 0.21 0.11 0.2 0.09 0.19 0.07 0.2 0.07 0.22 0.06 0.22 0.05 0.22 0.04 0.25 0.03 0.25 0.02 0.24 0.01 9.34 9.34zm-9.34 -9.34l9.34 0 0 9.34 -9.34 -9.34zm-9.34 37.22l0 -27.88 18.68 0 0 27.88 -9.34 9.34 -9.34 -9.34zm18.68 0l0 9.34 -9.34 0 9.34 -9.34zm-13.95 13.94l-18.68 0 0 0 0.03 -1.2 0.09 -1.17 0.15 -1.17 0.2 -1.14 0.26 -1.12 0.32 -1.12 0.37 -1.11 0.42 -1.06 0.46 -1.02 0.52 -1.01 0.56 -0.98 0.61 -0.95 0.64 -0.9 0.69 -0.88 0.74 -0.84 0.76 -0.8 0.81 -0.78 0.83 -0.72 0.87 -0.68 0.93 -0.67 0.95 -0.6 0.97 -0.56 1.01 -0.52 1.02 -0.46 1.05 -0.42 1.11 -0.38 1.1 -0.31 1.13 -0.26 1.16 -0.2 1.14 -0.14 1.17 -0.09 1.2 -0.03 0 18.68 -0.24 0.01 -0.25 0.02 -0.25 0.03 -0.22 0.04 -0.22 0.05 -0.22 0.06 -0.18 0.06 -0.22 0.09 -0.22 0.1 -0.19 0.1 -0.2 0.12 -0.19 0.12 -0.16 0.11 -0.19 0.15 -0.18 0.15 -0.16 0.15 -0.16 0.17 -0.14 0.16 -0.14 0.17 -0.14 0.19 -0.11 0.18 -0.11 0.19 -0.1 0.19 -0.1 0.22 -0.08 0.21 -0.07 0.19 -0.05 0.2 -0.05 0.23 -0.05 0.24 -0.03 0.22 -0.02 0.25 -0.01 0.24 0 0zm13.95 13.9l-18.68 0.08 9.34 9.3 -1.2 -0.03 -1.17 -0.09 -1.14 -0.14 -1.16 -0.2 -1.13 -0.26 -1.1 -0.31 -1.09 -0.37 -1.07 -0.42 -1.04 -0.47 -0.99 -0.51 -0.97 -0.56 -0.95 -0.6 -0.91 -0.65 -0.89 -0.69 -0.83 -0.72 -0.8 -0.76 -0.79 -0.82 -0.74 -0.85 -0.67 -0.85 -0.65 -0.91 -0.61 -0.95 -0.56 -0.98 -0.52 -1.02 -0.46 -1.01 -0.42 -1.06 -0.37 -1.1 -0.32 -1.12 -0.26 -1.12 -0.2 -1.14 -0.15 -1.17 -0.09 -1.17 -0.03 -1.2 18.68 0 0.01 0.24 0.02 0.25 0.03 0.22 0.05 0.24 0.05 0.23 0.05 0.19 0.07 0.2 0.08 0.21 0.1 0.22 0.1 0.19 0.11 0.19 0.11 0.18 0.13 0.18 0.16 0.2 0.14 0.16 0.14 0.15 0.18 0.16 0.18 0.15 0.17 0.13 0.18 0.12 0.19 0.12 0.2 0.12 0.21 0.11 0.2 0.09 0.19 0.07 0.2 0.07 0.22 0.06 0.22 0.05 0.22 0.04 0.25 0.03 0.25 0.02 0.24 0.01 9.34 9.3zm-9.34 -9.3l9.3 0 0.04 9.3 -9.34 -9.3zm-9.22 37.66l-0.12 -28.28 18.68 -0.08 0.12 28.28 -9.32 9.38 -9.37 -9.3zm18.68 -0.08l0.04 9.36 -9.36 0.03 9.32 -9.38zm-37.6 -9.23l28.23 -0.07 0.05 18.68 -28.23 0.07 -9.37 -9.34 9.32 -9.34zm0.05 18.68l-9.37 0.03 0 -9.37 9.37 9.34zm-13.97 -13.95l0 -18.68 0 0 1.2 0.03 1.17 0.09 1.17 0.15 1.14 0.2 1.12 0.26 1.12 0.32 1.11 0.37 1.06 0.42 1.02 0.46 1.01 0.52 0.98 0.56 0.95 0.61 0.9 0.64 0.88 0.69 0.84 0.74 0.8 0.76 0.78 0.81 0.72 0.83 0.68 0.87 0.67 0.93 0.6 0.95 0.56 0.97 0.52 1.01 0.46 1.02 0.42 1.05 0.38 1.11 0.31 1.1 0.26 1.13 0.2 1.16 0.15 1.14 0.09 1.17 0.03 1.2 -18.68 0 -0.01 -0.24 -0.02 -0.25 -0.03 -0.25 -0.04 -0.22 -0.05 -0.22 -0.06 -0.22 -0.06 -0.18 -0.09 -0.22 -0.1 -0.22 -0.1 -0.19 -0.12 -0.2 -0.12 -0.19 -0.11 -0.16 -0.15 -0.19 -0.15 -0.18 -0.15 -0.16 -0.17 -0.16 -0.16 -0.14 -0.17 -0.14 -0.19 -0.14 -0.18 -0.11 -0.19 -0.11 -0.19 -0.1 -0.22 -0.1 -0.21 -0.08 -0.19 -0.07 -0.2 -0.05 -0.23 -0.05 -0.24 -0.04 -0.22 -0.03 -0.25 -0.02 -0.24 -0.01 0 0zm-13.94 13.95l0 -18.68 -9.34 9.34 0.03 -1.2 0.09 -1.17 0.15 -1.14 0.2 -1.16 0.26 -1.13 0.31 -1.1 0.37 -1.09 0.42 -1.07 0.47 -1.04 0.51 -0.99 0.56 -0.97 0.6 -0.95 0.65 -0.91 0.69 -0.89 0.72 -0.83 0.76 -0.8 0.82 -0.78 0.85 -0.74 0.85 -0.67 0.91 -0.65 0.95 -0.61 0.98 -0.56 1.02 -0.52 1.01 -0.46 1.06 -0.42 1.1 -0.37 1.12 -0.32 1.12 -0.26 1.14 -0.2 1.17 -0.15 1.17 -0.09 1.2 -0.03 0 18.68 -0.24 0.01 -0.25 0.02 -0.22 0.03 -0.24 0.04 -0.23 0.05 -0.19 0.05 -0.2 0.07 -0.21 0.08 -0.22 0.1 -0.19 0.1 -0.19 0.11 -0.18 0.11 -0.18 0.13 -0.2 0.16 -0.16 0.14 -0.15 0.14 -0.16 0.17 -0.15 0.18 -0.13 0.17 -0.12 0.18 -0.12 0.19 -0.12 0.2 -0.11 0.21 -0.09 0.2 -0.07 0.19 -0.07 0.2 -0.06 0.22 -0.05 0.22 -0.04 0.22 -0.03 0.25 -0.02 0.25 -0.01 0.24 -9.34 9.34zm9.34 -9.34l0 9.34 -9.34 0 9.34 -9.34zm-37.22 -9.34l27.88 0 0 18.68 -27.88 0 -9.34 -9.34 9.34 -9.34zm0 18.68l-9.34 0 0 -9.34 9.34 9.34zm-13.94 -13.95l0 -18.68 0 0 1.2 0.03 1.17 0.09 1.17 0.15 1.14 0.2 1.12 0.26 1.12 0.32 1.11 0.37 1.06 0.42 1.02 0.46 1.01 0.52 0.98 0.56 0.95 0.61 0.9 0.64 0.88 0.69 0.84 0.74 0.8 0.76 0.78 0.81 0.72 0.83 0.68 0.87 0.67 0.93 0.6 0.95 0.56 0.97 0.52 1.01 0.46 1.02 0.42 1.05 0.38 1.11 0.31 1.1 0.26 1.13 0.2 1.16 0.15 1.14 0.09 1.17 0.03 1.2 -18.68 0 -0.01 -0.24 -0.02 -0.25 -0.03 -0.25 -0.04 -0.22 -0.05 -0.22 -0.06 -0.22 -0.06 -0.18 -0.09 -0.22 -0.1 -0.22 -0.1 -0.19 -0.12 -0.2 -0.12 -0.19 -0.11 -0.16 -0.15 -0.19 -0.15 -0.18 -0.15 -0.16 -0.17 -0.16 -0.16 -0.14 -0.17 -0.14 -0.19 -0.14 -0.18 -0.11 -0.19 -0.11 -0.19 -0.1 -0.22 -0.1 -0.21 -0.08 -0.19 -0.07 -0.2 -0.05 -0.23 -0.05 -0.24 -0.04 -0.22 -0.03 -0.25 -0.02 -0.24 -0.01 0 0zm-13.94 13.95l0 -18.68 -9.34 9.34 0.03 -1.2 0.09 -1.17 0.15 -1.14 0.2 -1.16 0.26 -1.13 0.31 -1.1 0.37 -1.09 0.42 -1.07 0.47 -1.04 0.51 -0.99 0.56 -0.97 0.6 -0.95 0.65 -0.91 0.69 -0.89 0.72 -0.83 0.76 -0.8 0.82 -0.78 0.85 -0.74 0.85 -0.67 0.91 -0.65 0.95 -0.61 0.98 -0.56 1.02 -0.52 1.01 -0.46 1.06 -0.42 1.1 -0.37 1.12 -0.32 1.12 -0.26 1.14 -0.2 1.17 -0.15 1.17 -0.09 1.2 -0.03 0 18.68 -0.24 0.01 -0.25 0.02 -0.22 0.03 -0.24 0.04 -0.23 0.05 -0.19 0.05 -0.2 0.07 -0.21 0.08 -0.22 0.1 -0.19 0.1 -0.19 0.11 -0.18 0.11 -0.18 0.13 -0.2 0.16 -0.16 0.14 -0.15 0.14 -0.16 0.17 -0.15 0.18 -0.13 0.17 -0.12 0.18 -0.12 0.19 -0.12 0.2 -0.11 0.21 -0.09 0.2 -0.07 0.19 -0.07 0.2 -0.06 0.22 -0.05 0.22 -0.04 0.22 -0.03 0.25 -0.02 0.25 -0.01 0.24 -9.34 9.34zm9.34 -9.34l0 9.34 -9.34 0 9.34 -9.34zm-37.23 -9.34l27.89 0 0 18.68 -27.89 0 -9.34 -9.34 9.34 -9.34zm0 18.68l-9.34 0 0 -9.34 9.34 9.34zm-13.94 -13.95l0 -18.68 0 0 1.2 0.03 1.17 0.09 1.17 0.15 1.14 0.2 1.12 0.26 1.12 0.32 1.1 0.37 1.06 0.42 1.01 0.46 1.02 0.52 0.98 0.56 0.95 0.61 0.91 0.65 0.85 0.67 0.85 0.74 0.82 0.78 0.76 0.8 0.72 0.83 0.69 0.89 0.65 0.91 0.6 0.95 0.56 0.97 0.51 0.99 0.47 1.04 0.42 1.07 0.37 1.09 0.31 1.1 0.26 1.13 0.2 1.16 0.15 1.14 0.09 1.17 0.03 1.2 -18.68 0 -0.01 -0.24 -0.02 -0.25 -0.03 -0.25 -0.04 -0.22 -0.05 -0.22 -0.06 -0.22 -0.07 -0.2 -0.07 -0.19 -0.09 -0.2 -0.11 -0.21 -0.12 -0.2 -0.12 -0.19 -0.12 -0.18 -0.13 -0.17 -0.15 -0.18 -0.16 -0.17 -0.15 -0.14 -0.16 -0.14 -0.2 -0.16 -0.18 -0.13 -0.18 -0.11 -0.19 -0.11 -0.19 -0.1 -0.22 -0.1 -0.21 -0.08 -0.2 -0.07 -0.19 -0.05 -0.23 -0.05 -0.24 -0.04 -0.22 -0.03 -0.25 -0.02 -0.24 -0.01 0 0zm-13.94 13.95l0 -18.68 -9.34 9.34 0.03 -1.2 0.09 -1.17 0.15 -1.14 0.2 -1.16 0.26 -1.13 0.31 -1.1 0.38 -1.11 0.42 -1.05 0.46 -1.02 0.52 -1.01 0.56 -0.97 0.6 -0.95 0.67 -0.93 0.68 -0.87 0.72 -0.83 0.78 -0.81 0.8 -0.76 0.84 -0.74 0.88 -0.69 0.9 -0.64 0.95 -0.61 0.98 -0.56 1.01 -0.52 1.02 -0.46 1.06 -0.42 1.11 -0.37 1.12 -0.32 1.12 -0.26 1.14 -0.2 1.17 -0.15 1.17 -0.09 1.2 -0.03 0 18.68 -0.24 0.01 -0.25 0.02 -0.22 0.03 -0.24 0.04 -0.23 0.05 -0.2 0.05 -0.19 0.07 -0.21 0.08 -0.22 0.1 -0.19 0.1 -0.19 0.11 -0.18 0.11 -0.19 0.14 -0.17 0.14 -0.16 0.14 -0.17 0.16 -0.15 0.16 -0.15 0.18 -0.15 0.19 -0.11 0.16 -0.12 0.19 -0.12 0.2 -0.1 0.19 -0.1 0.22 -0.09 0.22 -0.06 0.18 -0.06 0.22 -0.05 0.22 -0.04 0.22 -0.03 0.25 -0.02 0.25 -0.01 0.24 -9.34 9.34zm9.34 -9.34l0 9.34 -9.34 0 9.34 -9.34zm-37.22 -9.34l27.88 0 0 18.68 -27.88 0 -9.34 -9.34 9.34 -9.34zm0 18.68l-9.34 0 0 -9.34 9.34 9.34zm-13.94 -13.95l0 -18.68 0 0 1.2 0.03 1.17 0.09 1.17 0.15 1.14 0.21 1.11 0.25 1.12 0.32 1.11 0.38 1.06 0.42 1.01 0.45 1.02 0.52 0.98 0.56 0.95 0.61 0.91 0.65 0.85 0.67 0.85 0.74 0.82 0.78 0.76 0.8 0.72 0.83 0.68 0.87 0.65 0.91 0.62 0.97 0.56 0.97 0.52 1.01 0.46 1.02 0.42 1.05 0.38 1.11 0.31 1.1 0.26 1.13 0.2 1.16 0.15 1.14 0.09 1.17 0.03 1.2 -18.68 0 -0.01 -0.24 -0.02 -0.25 -0.03 -0.25 -0.04 -0.22 -0.05 -0.22 -0.06 -0.22 -0.06 -0.18 -0.09 -0.22 -0.1 -0.22 -0.1 -0.19 -0.12 -0.2 -0.11 -0.17 -0.13 -0.18 -0.15 -0.19 -0.15 -0.18 -0.16 -0.17 -0.15 -0.14 -0.16 -0.14 -0.2 -0.16 -0.18 -0.13 -0.18 -0.11 -0.19 -0.11 -0.19 -0.1 -0.22 -0.1 -0.21 -0.08 -0.18 -0.06 -0.2 -0.05 -0.23 -0.05 -0.23 -0.04 -0.23 -0.03 -0.24 -0.02 -0.24 -0.01 0 0zm-13.94 13.95l0 -18.68 -9.34 9.34 0.03 -1.2 0.09 -1.17 0.15 -1.14 0.2 -1.16 0.26 -1.13 0.31 -1.1 0.38 -1.11 0.42 -1.05 0.46 -1.02 0.52 -1.01 0.56 -0.97 0.6 -0.95 0.67 -0.93 0.68 -0.87 0.72 -0.83 0.78 -0.81 0.8 -0.76 0.84 -0.74 0.88 -0.69 0.9 -0.64 0.95 -0.61 0.98 -0.56 1.01 -0.52 1.02 -0.46 1.06 -0.42 1.11 -0.37 1.12 -0.32 1.12 -0.26 1.14 -0.2 1.17 -0.15 1.17 -0.09 1.2 -0.03 0 18.68 -0.24 0.01 -0.25 0.02 -0.22 0.03 -0.24 0.04 -0.23 0.05 -0.2 0.05 -0.19 0.07 -0.21 0.08 -0.22 0.1 -0.19 0.1 -0.19 0.11 -0.18 0.11 -0.19 0.14 -0.17 0.14 -0.16 0.14 -0.17 0.16 -0.15 0.16 -0.15 0.18 -0.15 0.19 -0.11 0.16 -0.12 0.19 -0.12 0.2 -0.1 0.19 -0.1 0.22 -0.09 0.22 -0.06 0.18 -0.06 0.22 -0.05 0.22 -0.04 0.22 -0.03 0.25 -0.02 0.25 -0.01 0.24 -9.34 9.34zm9.34 -9.34l0 9.34 -9.34 0 9.34 -9.34zm-37.22 -9.34l27.88 0 0 18.68 -27.88 0 -9.34 -9.34 9.34 -9.34zm0 18.68l-9.34 0 0 -9.34 9.34 9.34zm-13.94 -13.95l0 -18.68 0 0 1.2 0.03 1.17 0.09 1.17 0.15 1.14 0.2 1.12 0.26 1.12 0.32 1.11 0.37 1.06 0.42 1.02 0.46 1.01 0.52 0.98 0.56 0.95 0.61 0.9 0.64 0.88 0.69 0.84 0.74 0.8 0.76 0.78 0.81 0.72 0.83 0.68 0.87 0.67 0.93 0.6 0.95 0.56 0.97 0.52 1.01 0.46 1.02 0.42 1.05 0.38 1.11 0.31 1.1 0.26 1.13 0.2 1.16 0.15 1.14 0.09 1.17 0.03 1.2 -18.68 0 -0.01 -0.24 -0.02 -0.25 -0.03 -0.25 -0.04 -0.22 -0.05 -0.22 -0.06 -0.22 -0.06 -0.18 -0.09 -0.22 -0.1 -0.22 -0.1 -0.19 -0.12 -0.2 -0.12 -0.19 -0.11 -0.16 -0.15 -0.19 -0.15 -0.18 -0.15 -0.16 -0.17 -0.16 -0.16 -0.14 -0.17 -0.14 -0.19 -0.14 -0.18 -0.11 -0.19 -0.11 -0.19 -0.1 -0.22 -0.1 -0.21 -0.08 -0.19 -0.07 -0.2 -0.05 -0.23 -0.05 -0.24 -0.04 -0.22 -0.03 -0.25 -0.02 -0.24 -0.01 0 0zm-13.94 13.95l0 -18.68 -9.34 9.34 0.03 -1.2 0.09 -1.17 0.15 -1.14 0.2 -1.16 0.26 -1.13 0.31 -1.1 0.37 -1.09 0.42 -1.07 0.47 -1.04 0.51 -0.99 0.56 -0.97 0.6 -0.95 0.65 -0.91 0.69 -0.89 0.72 -0.83 0.76 -0.8 0.82 -0.78 0.85 -0.74 0.85 -0.67 0.91 -0.65 0.95 -0.61 0.98 -0.56 1.02 -0.52 1.01 -0.46 1.06 -0.42 1.1 -0.37 1.12 -0.32 1.12 -0.26 1.14 -0.2 1.17 -0.15 1.17 -0.09 1.2 -0.03 0 18.68 -0.24 0.01 -0.25 0.02 -0.22 0.03 -0.24 0.04 -0.23 0.05 -0.19 0.05 -0.2 0.07 -0.21 0.08 -0.22 0.1 -0.19 0.1 -0.19 0.11 -0.18 0.11 -0.18 0.13 -0.2 0.16 -0.16 0.14 -0.15 0.14 -0.16 0.17 -0.15 0.18 -0.13 0.17 -0.12 0.18 -0.12 0.19 -0.12 0.2 -0.11 0.21 -0.09 0.2 -0.07 0.19 -0.07 0.2 -0.06 0.22 -0.05 0.22 -0.04 0.22 -0.03 0.25 -0.02 0.25 -0.01 0.24 -9.34 9.34zm9.34 -9.34l0 9.34 -9.34 0 9.34 -9.34zm-34.9 -9.34l25.56 0 0 18.68 -25.56 0 -9.34 -9.34 9.34 -9.34zm0 18.68l-9.34 0 0 -9.34 9.34 9.34z"/>
  </g>
 </g>
 <g id="гор_x0020_меню_x0020_с_x0020_подложкой">
  <metadata id="CorelCorpID_1Corel-Layer"/>
  <path class="fil1 str0" d="M155.11 9.13l25.44 42.48c2.26,3.78 6.22,5.8 10.61,5.43l52.33 -4.48c4.11,-0.35 7.81,1.38 10.17,4.75 2.36,3.38 2.72,7.45 0.98,11.19l-19.04 40.95c-2.08,4.49 -1.09,9.58 2.52,12.96l34.24 31.98c3.09,2.89 4.27,6.94 3.21,11.03 -1.06,4.1 -4.06,7.07 -8.16,8.09l-48.63 12.12c-4.56,1.13 -7.79,4.74 -8.42,9.4l-6.24 45.91c-0.54,3.94 -2.87,7.07 -6.49,8.72 -3.62,1.65 -7.51,1.34 -10.84,-0.84l-43.66 -28.75c-3.57,-2.35 -7.85,-2.52 -11.6,-0.46l-45.8 25.2c-3.49,1.91 -7.39,1.91 -10.87,-0.02 -3.48,-1.93 -5.55,-5.23 -5.77,-9.21l-2.59 -46.26c-0.26,-4.69 -3.2,-8.54 -7.65,-10.03l-47.52 -15.93c-4.01,-1.35 -6.76,-4.55 -7.5,-8.71 -0.73,-4.17 0.76,-8.12 4.07,-10.75l36.67 -29.16c3.87,-3.08 5.27,-8.08 3.54,-12.72l-15.74 -42.33c-1.43,-3.87 -0.75,-7.89 1.87,-11.07 2.62,-3.18 6.45,-4.62 10.51,-3.94l51.81 8.61c4.34,0.72 8.45,-0.98 11,-4.57l28.72 -40.34c2.27,-3.19 5.7,-4.87 9.6,-4.71 3.91,0.15 7.19,2.1 9.2,5.46z"/>
 </g>
</svg>
