<?xml version="1.0" encoding="UTF-8"?>
<!DOCTYPE svg PUBLIC "-//W3C//DTD SVG 1.1//EN" "http://www.w3.org/Graphics/SVG/1.1/DTD/svg11.dtd">
<!-- Creator: CorelDRAW 2018 (64-Bit) -->
<svg xmlns="http://www.w3.org/2000/svg" xml:space="preserve" width="63.4418mm" height="42.9812mm" version="1.1" style="shape-rendering:geometricPrecision; text-rendering:geometricPrecision; image-rendering:optimizeQuality; fill-rule:evenodd; clip-rule:evenodd"
viewBox="0 0 6455.44 4373.5"
 xmlns:xlink="http://www.w3.org/1999/xlink">
 <defs>
  <style type="text/css">
   <![CDATA[
    .str0 {stroke:#806040;stroke-width:101.75;stroke-miterlimit:22.9256}
    .str3 {stroke:#806040;stroke-width:50.88;stroke-miterlimit:22.9256}
    .str1 {stroke:#806040;stroke-width:30.53;stroke-miterlimit:22.9256}
    .str2 {stroke:#806040;stroke-width:30.53;stroke-miterlimit:22.9256}
    .fil0 {fill:none}
    .fil1 {fill:#C5DEEB}
    .fil2 {fill:#806040;fill-rule:nonzero}
   ]]>
  </style>
 </defs>
 <g id="карточки_контур">
  <metadata id="CorelCorpID_0Corel-Layer"/>
  <polygon class="fil0 str0" points="5433.61,753.69 6404.56,753.69 6404.56,4322.62 50.88,4322.62 50.88,753.69 1045.47,753.69 1524.4,50.94 3247.6,55.03 4970.79,59.11 "/>
 </g>
 <g id="карточки_x0020_-_x0020_наполнение">
  <metadata id="CorelCorpID_1Corel-Layer"/>
  <g id="открытка_оборот">
   <polyline class="fil0 str1" points="3665.7,2171.14 5363.88,2171.14 5363.88,3813.41 2878.05,3813.41 2878.05,3485.28 "/>
   <line class="fil0 str1" x1="4120.96" y1="2382.01" x2="4120.96" y2= "3544.17" />
   <line class="fil0 str1" x1="4394.7" y1="3243.53" x2="5036.35" y2= "3243.53" />
   <line class="fil0 str1" x1="4394.7" y1="3431.99" x2="5036.35" y2= "3431.99" />
   <line class="fil0 str1" x1="4394.7" y1="3606.99" x2="5036.35" y2= "3606.99" />
   <path class="fil1 str2" d="M4626.9 2964.74l0 -44.26c12.58,0 22.78,-10.21 22.78,-22.78 0,-12.58 -10.21,-22.77 -22.78,-22.77l0 -45.57c12.58,0 22.78,-10.2 22.78,-22.77 0,-12.59 -10.21,-22.78 -22.78,-22.78l0 -45.57c12.58,0 22.78,-10.2 22.78,-22.77 0,-12.58 -10.21,-22.78 -22.78,-22.78l0 -45.56c12.58,0 22.78,-10.21 22.78,-22.78 0,-12.57 -10.21,-22.77 -22.78,-22.77l0 -45.56c12.58,0 22.78,-10.21 22.78,-22.78 0,-12.59 -10.21,-22.77 -22.78,-22.77l0 -45.57c12.58,0 22.78,-10.2 22.78,-22.78 0,-12.58 -10.21,-22.78 -22.78,-22.78l-0.15 -42.29 40.98 0c0,12.58 10.21,22.78 22.78,22.78 12.58,0 22.77,-10.21 22.77,-22.78l45.56 0c0,12.58 10.21,22.78 22.78,22.78 12.58,0 22.78,-10.21 22.78,-22.78l45.56 0c0,12.58 10.2,22.78 22.78,22.78 12.58,0 22.78,-10.21 22.78,-22.78l45.56 0c0,12.58 10.2,22.78 22.78,22.78 12.57,0 22.77,-10.21 22.77,-22.78l45.56 0c0,12.58 10.21,22.78 22.78,22.78 12.58,0 22.77,-10.21 22.77,-22.78l46.87 -0.28 0 40.53c-12.59,0 -22.78,10.2 -22.78,22.78 0,12.57 10.2,22.77 22.78,22.77l0 45.56c-12.59,0 -22.78,10.21 -22.78,22.78 0,12.58 10.2,22.77 22.78,22.77l0 45.57c-12.59,0 -22.78,10.2 -22.78,22.77 0,12.59 10.2,22.78 22.78,22.78l0 45.56c-12.59,0 -22.78,10.2 -22.78,22.78 0,12.58 10.2,22.78 22.78,22.78l0 45.56c-12.59,0 -22.78,10.21 -22.78,22.78 0,12.58 10.2,22.77 22.78,22.77l0 45.56c-12.59,0 -22.78,10.21 -22.78,22.78 0,12.58 10.2,22.77 22.78,22.77l0.2 46.22 -46.14 0.11c0,-12.58 -10.2,-22.78 -22.77,-22.78 -12.59,0 -22.78,10.21 -22.78,22.78l-45.56 0c0,-12.58 -10.21,-22.78 -22.78,-22.78 -12.58,0 -22.77,10.21 -22.77,22.78l-45.57 0c0,-12.58 -10.2,-22.78 -22.77,-22.78 -12.58,0 -22.78,10.21 -22.78,22.78l-45.56 0c0,-12.58 -10.21,-22.78 -22.77,-22.78 -12.59,0 -22.78,10.21 -22.78,22.78l-45.57 0c0,-12.58 -10.2,-22.78 -22.78,-22.78 -12.58,0 -22.77,10.21 -22.77,22.78l-41.76 0z"/>
  </g>
  <g id="открытка_лицо">
   <rect class="fil0 str3" x="1179.86" y="1843.58" width="2485.83" height="1642.27"/>
   <polyline class="fil0 str3" points="1520.4,2711.78 1372.85,2711.78 1372.85,2016.28 2014.51,2016.28 2014.51,2615.77 "/>
   <rect class="fil0 str3" x="1521.54" y="2616.97" width="736" height="744.86"/>
   <rect class="fil0 str3" x="3098.74" y="1976.36" width="438.52" height="492.62"/>
   <rect class="fil0 str3" x="3162.29" y="2975.94" width="344.01" height="386.45"/>
   <path class="fil1 str3" d="M2257.54 3208.21c60.1,4.9 60.39,21.09 99.64,30.9 39.25,9.81 63.77,24.53 112.83,9.81 49.06,-14.71 98.11,38.03 137.37,15.94 39.25,-22.07 60.1,31.89 99.34,25.75 39.25,-6.13 100.56,-28.21 143.49,11.04 42.93,39.25 46.6,-25.75 38.03,-60.1 -8.59,-34.34 25.75,-78.49 51.51,-115.29 25.75,-36.79 100.57,-33.11 127.55,-35.56 26.99,-2.45 -23.91,-122.64 -22.07,-135.53 1.83,-12.87 -42.93,-68.06 -42.93,-109.77 0,-41.7 42.93,-45.99 80.95,-34.95 38.03,11.04 73.59,-3.67 73.59,-3.67 0,0 6.14,0 26.99,-24.53 20.85,-24.53 46.6,-57.64 13.49,-66.23 -33.11,-8.58 -7.36,-34.34 -46.6,-62.55 -39.25,-28.21 -72.37,-12.26 -74.82,-44.15 -2.45,-31.89 -74.81,-63.78 -82.18,-83.4 -7.36,-19.63 -31.27,-95.06 -55.18,-111 -23.92,-15.93 -42.93,-51.51 -28.22,-82.79 14.72,-31.27 -7.97,-58.25 -6.13,-98.72 1.84,-40.48 -5.53,-49.07 -43.54,-98.12 -38.02,-49.06 -94.44,-38.03 -120.19,-26.99 -25.75,11.04 -49.06,9.81 -61.33,-20.85 -12.26,-30.66 -94.44,-12.26 -123.86,-41.7 -29.44,-29.44 -107.93,-29.44 -126.33,14.71 -18.4,44.15 -45.38,57.64 -83.4,46.6 -38.03,-11.03 -149.63,90.76 -118.97,114.07 30.66,23.3 26.99,62.55 4.9,69.9 -22.08,7.36 -55.19,34.34 -93.21,52.74 -38.03,18.4 -24.53,52.13 -34.34,99.35 -9.82,47.21 35.56,20.85 19.62,69.29 -15.94,48.44 -45.99,14.71 -45.99,14.71 0,0 -1.84,-1.84 -19.01,-9.2 -10.05,-4.3 -28.76,4.04 -40.1,18.79 -3.92,5.11 -3.93,79.02 -3.93,79.02l243.03 1.2 0 591.24z"/>
   <path class="fil0 str1" d="M2200.79 2307.14c0,0 45.08,23.81 58.26,22.54 13.19,-1.27 27.46,-4.13 39.25,-2.45 24.63,3.51 54.42,8.33 72.36,18.4 24.3,13.63 67.45,78.49 98.12,73.59 30.66,-4.9 67.45,-18.4 101.79,-2.45 34.34,15.93 106.7,-20.85 112.83,7.36 6.14,28.21 -2.28,80.73 9.81,77.26 12.09,-3.47 51.52,-17.17 98.12,-19.62 46.6,-2.45 76.04,18.4 91.99,-7.36 15.94,-25.76 74.81,-33.12 79.71,-24.53"/>
   <path class="fil0 str1" d="M2385.38 3251.98c-1.71,-18.79 -2.68,-56.73 2.23,-100.88 4.9,-44.15 5.14,-80.64 -21.85,-107.61 -26.99,-26.97 -7.36,-56.42 7.36,-66.23 14.71,-9.82 34.34,1.22 71.14,6.13 36.79,4.91 67.74,-2.84 79.72,-26.97 11.99,-24.14 34.34,-47.83 58.86,-52.74 24.53,-4.9 76.16,-31.84 96.89,-50.29 20.73,-18.45 50.29,11.04 60.1,-15.94 9.82,-26.99 -4.9,-94.44 31.89,-94.44 36.79,0 52.38,29.23 90.76,13.49 38.38,-15.74 68.67,-12 90.5,19.14 17.43,24.86 43.11,24.17 73.23,34.21"/>
   <path class="fil0 str1" d="M2689.55 2501.38c0,0 3.67,29.44 -2.45,52.74 -6.14,23.3 33.11,42.92 17.17,60.1 -15.94,17.17 -39.25,23.3 -60.1,41.7 -20.85,18.4 -44.15,-8.59 -72.36,12.26 -28.21,20.85 -43.82,39.64 -43.82,56.81 0,17.17 -40.81,15.56 -34.69,35.18 6.13,19.62 58.87,14.72 58.87,36.79 0,22.08 -6.14,34.34 -20.85,60.11 -14.72,25.75 -11.04,49.06 12.26,62.55"/>
  </g>
  <path class="fil2" d="M1857.27 310.69l363.13 0 0 462.63 -61.38 0 0 -408.36 -240.36 0 0 408.36 -61.39 0 0 -462.63zm435.39 294.96c0,-61.93 17.23,-107.8 51.79,-137.63 28.76,-24.77 63.97,-37.15 105.43,-37.15 45.98,0 83.67,15.08 112.97,45.23 29.18,30.05 43.84,71.72 43.84,124.81 0,43.07 -6.46,76.9 -19.38,101.55 -12.92,24.67 -31.78,43.84 -56.54,57.51 -24.65,13.68 -51.69,20.46 -80.87,20.46 -46.95,0 -84.85,-14.98 -113.82,-45.02 -28.97,-30.05 -43.4,-73.34 -43.4,-129.77zm58.15 0.1c0,42.86 9.36,74.95 28.1,96.17 18.84,21.33 42.43,31.98 70.96,31.98 28.22,0 51.69,-10.65 70.54,-32.08 18.74,-21.43 28.11,-54.06 28.11,-97.9 0,-41.35 -9.48,-72.68 -28.33,-93.9 -18.84,-21.33 -42.32,-31.99 -70.32,-31.99 -28.53,0 -52.12,10.56 -70.96,31.78 -18.74,21.21 -28.1,53.2 -28.1,95.94zm287 -167.78l56.86 0 0 63.32c0,27.36 1.61,47.17 4.95,59.44 3.24,12.28 11.09,23.05 23.59,32.21 12.38,9.15 28,13.68 46.85,13.68 21.54,0 49.32,-5.71 83.57,-17.01l0 -151.63 56.86 0 0 335.35 -56.86 0 0 -135.36c-35,10.98 -67.74,16.47 -98.11,16.47 -25.52,0 -48.03,-6.46 -67.52,-19.38 -19.49,-12.92 -32.73,-28.76 -39.73,-47.49 -7,-18.74 -10.44,-39.31 -10.44,-61.82l0 -87.77zm328.24 0l271.38 0 0 47.17 -107.26 0 0 288.18 -56.86 0 0 -288.18 -107.26 0 0 -47.17zm297.12 167.68c0,-61.93 17.23,-107.8 51.79,-137.63 28.76,-24.77 63.97,-37.15 105.43,-37.15 45.98,0 83.67,15.08 112.97,45.23 29.18,30.05 43.84,71.72 43.84,124.81 0,43.07 -6.46,76.9 -19.38,101.55 -12.92,24.67 -31.78,43.84 -56.54,57.51 -24.65,13.68 -51.69,20.46 -80.87,20.46 -46.95,0 -84.85,-14.98 -113.82,-45.02 -28.97,-30.05 -43.4,-73.34 -43.4,-129.77zm58.15 0.1c0,42.86 9.36,74.95 28.1,96.17 18.84,21.33 42.43,31.98 70.96,31.98 28.22,0 51.69,-10.65 70.54,-32.08 18.74,-21.43 28.11,-54.06 28.11,-97.9 0,-41.35 -9.48,-72.68 -28.33,-93.9 -18.84,-21.33 -42.32,-31.99 -70.32,-31.99 -28.53,0 -52.12,10.56 -70.96,31.78 -18.74,21.21 -28.1,53.2 -28.1,95.94zm322.53 -167.78l130.85 0c32.09,0 56,2.7 71.72,8.08 15.62,5.38 29.08,15.18 40.27,29.51 11.32,14.43 16.91,31.55 16.91,51.58 0,16.05 -3.34,30.05 -9.91,41.89 -6.68,11.96 -16.58,21.97 -29.94,29.95 15.72,5.27 28.76,15.07 39.21,29.5 10.34,14.33 15.51,31.45 15.51,51.15 -2.06,31.78 -13.46,55.35 -34.04,70.65 -20.56,15.41 -50.5,23.05 -89.71,23.05l-150.87 0 0 -335.35zm56.86 141.51l60.31 0c24.01,0 40.6,-1.29 49.53,-3.76 9.05,-2.58 17.13,-7.65 24.23,-15.41 7.11,-7.64 10.66,-16.9 10.66,-27.68 0,-17.77 -6.25,-30.05 -18.63,-37.04 -12.5,-7 -33.81,-10.45 -63.96,-10.45l-62.14 0 0 94.34zm0 147.32l74.63 0c32.09,0 54.17,-3.76 66.12,-11.2 11.96,-7.54 18.2,-20.35 18.85,-38.77 0,-10.65 -3.45,-20.68 -10.34,-29.82 -7,-9.16 -16.05,-14.97 -27.14,-17.34 -11.1,-2.48 -28.97,-3.66 -53.52,-3.66l-68.6 0 0 100.8zm605.65 -288.83l56.86 0 0 335.35 -56.86 0 0 -335.35zm-317.25 0l56.86 0 0 131.17 71.72 0c46.85,0 82.82,9.05 108.12,27.25 25.31,18.19 37.9,43.29 37.9,75.27 0,28 -10.55,51.9 -31.66,71.83 -21.11,19.92 -54.81,29.83 -101.23,29.83l-141.71 0 0 -335.35zm56.86 288.83l59.66 0c35.86,0 61.59,-4.42 76.89,-13.25 15.41,-8.83 23.05,-22.61 23.05,-41.35 0,-14.54 -5.71,-27.46 -17.01,-38.87 -11.42,-11.32 -36.51,-17.02 -75.38,-17.02l-67.2 0 0 110.49zm634.39 -62.03l58.8 7.75c-9.16,34.14 -26.28,60.74 -51.26,79.58 -24.98,18.84 -56.86,28.33 -95.74,28.33 -48.89,0 -87.66,-15.08 -116.3,-45.24 -28.64,-30.04 -42.96,-72.37 -42.96,-126.74 0,-56.22 14.43,-99.93 43.4,-130.95 28.97,-31.13 66.55,-46.63 112.74,-46.63 44.69,0 81.2,15.18 109.53,45.66 28.32,30.48 42.53,73.34 42.53,128.59 0,3.34 -0.11,8.39 -0.33,15.07l-249.72 0c2.15,36.72 12.49,64.94 31.23,84.44 18.63,19.49 41.99,29.28 69.88,29.28 20.79,0 38.55,-5.48 53.2,-16.47 14.75,-10.98 26.38,-28.53 35,-52.66zm-186.09 -91.11l186.74 0c-2.48,-28.21 -9.7,-49.32 -21.44,-63.42 -17.98,-21.87 -41.45,-32.85 -70.21,-32.85 -26.06,0 -47.92,8.72 -65.69,26.17 -17.65,17.44 -27.45,40.81 -29.4,70.1zm-2528.93 753.83c0,-61.93 17.23,-107.8 51.79,-137.63 28.76,-24.77 63.97,-37.15 105.43,-37.15 45.98,0 83.67,15.08 112.97,45.23 29.18,30.05 43.84,71.72 43.84,124.81 0,43.07 -6.46,76.9 -19.38,101.55 -12.92,24.67 -31.78,43.84 -56.54,57.51 -24.65,13.68 -51.69,20.46 -80.87,20.46 -46.95,0 -84.85,-14.98 -113.82,-45.02 -28.97,-30.05 -43.4,-73.34 -43.4,-129.77zm58.15 0.1c0,42.86 9.36,74.95 28.1,96.17 18.84,21.33 42.43,31.98 70.96,31.98 28.22,0 51.69,-10.65 70.54,-32.08 18.74,-21.43 28.11,-54.06 28.11,-97.9 0,-41.35 -9.48,-72.68 -28.33,-93.9 -18.84,-21.33 -42.32,-31.99 -70.32,-31.99 -28.53,0 -52.12,10.56 -70.96,31.78 -18.74,21.21 -28.1,53.2 -28.1,95.94zm278.59 -167.78l271.38 0 0 47.17 -107.26 0 0 288.18 -56.86 0 0 -288.18 -107.26 0 0 -47.17zm325.01 0l56.86 0 0 144.73c18.09,0 30.79,-3.44 38.12,-10.44 7.21,-6.89 17.88,-27.04 32.09,-60.52 11.2,-26.49 20.25,-43.94 27.14,-52.33 7,-8.4 14.97,-14.11 24.01,-17.02 9.16,-2.9 23.69,-4.42 43.61,-4.42l11.42 0 0 46.85 -15.83 -0.33c-14.97,0 -24.55,2.27 -28.75,6.69 -4.42,4.63 -11.2,18.41 -20.25,41.35 -8.62,21.97 -16.47,37.15 -23.69,45.54 -7.11,8.4 -18.2,16.05 -33.17,23.05 24.44,6.57 48.57,29.29 72.26,68.28l62.35 103.92 -62.46 0 -61.49 -103.6c-12.38,-21 -23.16,-34.79 -32.31,-41.46 -9.27,-6.68 -20.25,-10.01 -33.06,-10.01l0 155.07 -56.86 0 0 -335.35zm283.32 463.94l0 -463.94 51.69 0 0 44.05c12.17,-17.01 25.96,-29.83 41.35,-38.34 15.29,-8.51 33.92,-12.81 55.78,-12.81 28.64,0 53.85,7.33 75.7,22.08 21.87,14.64 38.34,35.42 49.54,62.13 11.09,26.81 16.69,56.11 16.69,88.09 0,34.14 -6.14,64.94 -18.42,92.4 -12.27,27.35 -30.15,48.35 -53.62,63 -23.37,14.54 -48.03,21.87 -73.87,21.87 -18.96,0 -35.97,-3.99 -50.94,-11.96 -15.08,-7.97 -27.35,-17.99 -37.05,-30.16l0 163.59 -56.86 0zm51.69 -294.21c0,42.97 8.72,74.74 26.06,95.3 17.45,20.56 38.55,30.9 63.32,30.9 25.2,0 46.74,-10.65 64.61,-31.98 17.99,-21.32 26.92,-54.28 26.92,-98.97 0,-42.64 -8.72,-74.52 -26.27,-95.73 -17.55,-21.22 -38.45,-31.78 -62.78,-31.78 -24.13,0 -45.45,11.32 -63.97,33.82 -18.63,22.61 -27.89,55.34 -27.89,98.43zm626.86 -169.73l56.86 0 0 335.35 -56.86 0 0 -335.35zm-317.25 0l56.86 0 0 131.17 71.72 0c46.85,0 82.82,9.05 108.12,27.25 25.31,18.19 37.9,43.29 37.9,75.27 0,28 -10.55,51.9 -31.66,71.83 -21.11,19.92 -54.81,29.83 -101.23,29.83l-141.71 0 0 -335.35zm56.86 288.83l59.66 0c35.86,0 61.59,-4.42 76.89,-13.25 15.41,-8.83 23.05,-22.61 23.05,-41.35 0,-14.54 -5.71,-27.46 -17.01,-38.87 -11.42,-11.32 -36.51,-17.02 -75.38,-17.02l-67.2 0 0 110.49zm375.94 -288.83l271.38 0 0 47.17 -107.26 0 0 288.18 -56.86 0 0 -288.18 -107.26 0 0 -47.17zm325.01 0l56.86 0 0 144.73c18.09,0 30.79,-3.44 38.12,-10.44 7.21,-6.89 17.88,-27.04 32.09,-60.52 11.2,-26.49 20.25,-43.94 27.14,-52.33 7,-8.4 14.97,-14.11 24.01,-17.02 9.16,-2.9 23.69,-4.42 43.61,-4.42l11.42 0 0 46.85 -15.83 -0.33c-14.97,0 -24.55,2.27 -28.75,6.69 -4.42,4.63 -11.2,18.41 -20.25,41.35 -8.62,21.97 -16.47,37.15 -23.69,45.54 -7.11,8.4 -18.2,16.05 -33.17,23.05 24.44,6.57 48.57,29.29 72.26,68.28l62.35 103.92 -62.46 0 -61.49 -103.6c-12.38,-21 -23.16,-34.79 -32.31,-41.46 -9.27,-6.68 -20.25,-10.01 -33.06,-10.01l0 155.07 -56.86 0 0 -335.35zm283.32 0l56.86 0 0 255.77 157.98 -255.77 61.06 0 0 335.35 -56.86 0 0 -254.15 -157.77 254.15 -61.28 0 0 -335.35z"/>
 </g>
</svg>
