<?xml version="1.0" encoding="UTF-8"?>
<!DOCTYPE svg PUBLIC "-//W3C//DTD SVG 1.1//EN" "http://www.w3.org/Graphics/SVG/1.1/DTD/svg11.dtd">
<!-- Creator: CorelDRAW 2018 (64-Bit) -->
<svg xmlns="http://www.w3.org/2000/svg" xml:space="preserve" width="63.4418mm" height="43.0661mm" version="1.1" style="shape-rendering:geometricPrecision; text-rendering:geometricPrecision; image-rendering:optimizeQuality; fill-rule:evenodd; clip-rule:evenodd"
viewBox="0 0 5293.78 3593.57"
 xmlns:xlink="http://www.w3.org/1999/xlink">
 <defs>
  <style type="text/css">
   <![CDATA[
    .str0 {stroke:#806040;stroke-width:83.44;stroke-miterlimit:22.9256}
    .str1 {stroke:#806040;stroke-width:41.72;stroke-miterlimit:22.9256}
    .fil0 {fill:none}
    .fil1 {fill:#C5DEEB}
    .fil2 {fill:#806040;fill-rule:nonzero}
   ]]>
  </style>
 </defs>
 <g id="карточки_контур">
  <metadata id="CorelCorpID_0Corel-Layer"/>
  <polygon class="fil0 str0" points="4455.83,619.23 5252.06,619.23 5252.06,3551.85 41.72,3551.85 41.72,619.23 857.34,619.23 1250.09,41.77 2663.2,45.13 4076.3,48.49 "/>
 </g>
 <g id="карточки_x0020_-_x0020_наполнение">
  <metadata id="CorelCorpID_1Corel-Layer"/>
  <g id="форум">
   <g>
    <rect class="fil1 str1" x="1526.86" y="1291.87" width="250.21" height="250.21"/>
    <rect class="fil1 str1" x="1975.77" y="1291.87" width="1898.67" height="250.21"/>
   </g>
   <g>
    <rect class="fil1 str1" x="1526.86" y="2778.44" width="250.21" height="250.21"/>
    <rect class="fil1 str1" x="1975.77" y="2778.44" width="1898.67" height="250.21"/>
   </g>
   <g>
    <rect class="fil1 str1" x="1526.86" y="2282.91" width="250.21" height="250.21"/>
    <rect class="fil1 str1" x="1975.77" y="2282.91" width="1898.67" height="250.21"/>
   </g>
   <g>
    <rect class="fil1 str1" x="1526.86" y="1787.39" width="250.21" height="250.21"/>
    <rect class="fil1 str1" x="1975.77" y="1787.39" width="1898.67" height="250.21"/>
   </g>
  </g>
  <path class="fil2" d="M2030.74 352.83l0 -48.21 47.16 0 0 48.21c48.31,2.56 86.46,17.14 114.36,43.72 28,26.58 41.95,59.52 41.95,98.91 0,38.58 -13.51,71.35 -40.62,98.37 -27.11,26.94 -65.62,41.86 -115.69,44.6l0 48.75 -47.16 0 0 -48.75c-44.86,-1.77 -82.22,-15.45 -112.06,-41.15 -29.85,-25.61 -44.78,-59.61 -44.78,-101.82 0,-42.31 14.93,-76.22 44.68,-101.65 29.76,-25.43 67.12,-39.03 112.16,-40.98zm47.16 42.92l0 199.75c32.41,-1.59 57.84,-11.03 76.48,-28.35 18.63,-17.31 27.9,-41.15 27.9,-71.53 0,-29.85 -9.1,-53.43 -27.38,-70.92 -18.28,-17.4 -43.89,-27.02 -77,-28.96zm-47.16 0.53c-31.26,1.42 -56.52,10.6 -75.86,27.74 -19.34,17.13 -29.05,40.97 -29.05,71.62 0,30.29 9.54,54.05 28.61,71.35 19.08,17.31 44.51,26.58 76.3,28l0 -198.7zm242.33 153.4c0,-50.78 14.13,-88.4 42.47,-112.87 23.58,-20.31 52.46,-30.47 86.46,-30.47 37.71,0 68.62,12.37 92.64,37.09 23.93,24.64 35.95,58.81 35.95,102.35 0,35.32 -5.3,63.06 -15.9,83.28 -10.6,20.23 -26.06,35.95 -46.37,47.16 -20.22,11.21 -42.39,16.78 -66.32,16.78 -38.5,0 -69.58,-12.28 -93.34,-36.92 -23.76,-24.64 -35.59,-60.15 -35.59,-106.42zm47.69 0.08c0,35.15 7.68,61.46 23.05,78.86 15.45,17.49 34.8,26.23 58.19,26.23 23.14,0 42.39,-8.74 57.84,-26.31 15.37,-17.57 23.06,-44.33 23.06,-80.28 0,-33.91 -7.78,-59.6 -23.23,-77 -15.45,-17.49 -34.7,-26.23 -57.67,-26.23 -23.4,0 -42.74,8.66 -58.19,26.06 -15.37,17.39 -23.05,43.62 -23.05,78.68zm264.49 242.86l0 -380.45 42.39 0 0 36.12c9.98,-13.95 21.29,-24.47 33.91,-31.44 12.54,-6.98 27.82,-10.51 45.74,-10.51 23.49,0 44.16,6.01 62.08,18.11 17.93,12.01 31.44,29.05 40.63,50.95 9.1,21.99 13.68,46.01 13.68,72.24 0,28 -5.03,53.25 -15.1,75.77 -10.06,22.43 -24.72,39.65 -43.97,51.66 -19.17,11.92 -39.39,17.93 -60.58,17.93 -15.55,0 -29.5,-3.27 -41.77,-9.8 -12.37,-6.53 -22.43,-14.75 -30.38,-24.73l0 134.15 -46.63 0zm42.39 -241.27c0,35.24 7.15,61.29 21.37,78.15 14.31,16.86 31.62,25.34 51.93,25.34 20.67,0 38.33,-8.74 52.99,-26.23 14.75,-17.48 22.08,-44.51 22.08,-81.16 0,-34.97 -7.15,-61.11 -21.55,-78.5 -14.39,-17.4 -31.53,-26.06 -51.48,-26.06 -19.78,0 -37.27,9.28 -52.46,27.74 -15.28,18.54 -22.87,45.38 -22.87,80.71zm244.27 241.53l-5.3 -43.09c10.25,2.74 19.08,4.15 26.67,4.15 10.42,0 18.72,-1.77 24.91,-5.21 6.27,-3.45 11.39,-8.3 15.36,-14.49 2.91,-4.68 7.69,-16.25 14.22,-34.8 0.88,-2.56 2.21,-6.36 4.16,-11.39l-104.39 -275.89 49.81 0 57.4 158.78c7.51,20.05 14.14,41.25 20.05,63.5 5.38,-20.94 11.74,-41.6 19.16,-61.91l58.64 -160.38 46.54 0 -103.95 279.78c-11.21,30.11 -19.95,50.78 -26.23,62.17 -8.3,15.28 -17.84,26.49 -28.52,33.64 -10.77,7.16 -23.58,10.69 -38.42,10.69 -9.01,0 -19.08,-1.85 -30.11,-5.57zm262.73 -380.71l71.7 0 72.68 220.07 80.46 -220.07 66.59 0 0 275 -46.63 0 0 -221.39 -80.98 221.39 -41.69 0 -76.56 -231.99 0 231.99 -45.57 0 0 -275z"/>
 </g>
</svg>
