<?xml version="1.0" encoding="UTF-8"?>
<!DOCTYPE svg PUBLIC "-//W3C//DTD SVG 1.1//EN" "http://www.w3.org/Graphics/SVG/1.1/DTD/svg11.dtd">
<!-- Creator: CorelDRAW 2018 (64-Bit) -->
<svg xmlns="http://www.w3.org/2000/svg" xml:space="preserve" width="63.4418mm" height="42.9812mm" version="1.1" style="shape-rendering:geometricPrecision; text-rendering:geometricPrecision; image-rendering:optimizeQuality; fill-rule:evenodd; clip-rule:evenodd"
viewBox="0 0 1878.57 1272.71"
 xmlns:xlink="http://www.w3.org/1999/xlink">
 <defs>
  <style type="text/css">
   <![CDATA[
    .str0 {stroke:#806040;stroke-width:29.61;stroke-miterlimit:22.9256}
    .str1 {stroke:#806040;stroke-width:14.81;stroke-miterlimit:22.9256}
    .str2 {stroke:#806040;stroke-width:14.81;stroke-linecap:round;stroke-linejoin:round;stroke-miterlimit:22.9256}
    .fil0 {fill:none}
    .fil2 {fill:#806040}
    .fil1 {fill:#C5DEEB}
    .fil3 {fill:#806040;fill-rule:nonzero}
   ]]>
  </style>
 </defs>
 <g id="карточки_контур">
  <metadata id="CorelCorpID_0Corel-Layer"/>
  <polygon class="fil0 str0" points="1581.21,219.33 1863.77,219.33 1863.77,1257.91 14.81,1257.91 14.81,219.33 304.24,219.33 443.61,14.82 945.07,16.01 1446.53,17.2 "/>
 </g>
 <g id="карточки_x0020_-_x0020_наполнение">
  <metadata id="CorelCorpID_1Corel-Layer"/>
  <g id="гостевая_x0020_кн">
   <polygon class="fil1 str1" points="650.19,571.07 789.91,571.07 929.63,571.07 1069.34,571.07 1209.06,571.07 1209.06,693.81 1209.06,816.55 1209.06,1062.04 650.19,1062.04 "/>
   <polygon class="fil0 str2" points="1069.34,693.81 1069.34,571.07 1209.06,693.81 "/>
   <line class="fil0 str2" x1="766.73" y1="697.56" x2="1003.07" y2= "697.56" />
   <line class="fil0 str2" x1="766.73" y1="788.96" x2="1097.09" y2= "788.96" />
   <line class="fil0 str2" x1="766.73" y1="882.98" x2="1097.09" y2= "882.98" />
   <line class="fil0 str2" x1="766.73" y1="975.69" x2="879.02" y2= "975.69" />
   <line class="fil0 str2" x1="986.09" y1="975.69" x2="1097.09" y2= "975.69" />
   <rect class="fil2 str1" x="1069.34" y="693.81" width="135.39" height="26.53"/>
   <rect class="fil2 str1" transform="matrix(1.4624E-14 -1.10251 0.552171 2.91994E-14 1053.96 720.344)" width="135.39" height="26.53"/>
  </g>
  <path class="fil3" d="M541.48 92.59l87.06 0 0 15.79 -69.19 0 0 118.83 -17.86 0 0 -134.63zm80.6 85.84c0,-18.02 5.01,-31.37 15.07,-40.05 8.37,-7.21 18.62,-10.81 30.68,-10.81 13.38,0 24.35,4.39 32.87,13.16 8.49,8.74 12.76,20.87 12.76,36.32 0,12.53 -1.88,22.38 -5.64,29.55 -3.76,7.18 -9.25,12.76 -16.45,16.74 -7.17,3.98 -15.04,5.95 -23.53,5.95 -13.66,0 -24.69,-4.36 -33.12,-13.1 -8.43,-8.74 -12.63,-21.34 -12.63,-37.76zm16.92 0.03c0,12.47 2.72,21.81 8.18,27.99 5.48,6.21 12.35,9.31 20.65,9.31 8.21,0 15.04,-3.1 20.53,-9.34 5.45,-6.24 8.18,-15.73 8.18,-28.49 0,-12.03 -2.76,-21.15 -8.24,-27.32 -5.48,-6.21 -12.32,-9.31 -20.46,-9.31 -8.3,0 -15.17,3.07 -20.65,9.25 -5.45,6.17 -8.18,15.48 -8.18,27.92zm157.6 13.04l16.17 2.26c-1.79,11.12 -6.3,19.81 -13.6,26.11 -7.3,6.3 -16.29,9.43 -26.92,9.43 -13.32,0 -24.04,-4.36 -32.12,-13.07 -8.12,-8.71 -12.16,-21.18 -12.16,-37.42 0,-10.53 1.76,-19.71 5.23,-27.61 3.48,-7.87 8.78,-13.79 15.92,-17.71 7.11,-3.95 14.85,-5.92 23.25,-5.92 10.56,0 19.24,2.66 25.95,8.02 6.74,5.36 11.06,12.98 12.94,22.82l-15.98 2.44c-1.54,-6.55 -4.23,-11.47 -8.15,-14.79 -3.88,-3.29 -8.58,-4.95 -14.1,-4.95 -8.34,0 -15.1,2.98 -20.34,8.93 -5.2,5.99 -7.8,15.39 -7.8,28.3 0,13.1 2.51,22.6 7.52,28.52 5.05,5.92 11.6,8.9 19.65,8.9 6.52,0 11.94,-1.97 16.27,-5.95 4.36,-3.95 7.11,-10.06 8.27,-18.3zm21.62 -61.86l78.97 0 0 13.73 -31.21 0 0 83.86 -16.55 0 0 -83.86 -31.21 0 0 -13.73zm159.23 66l17.11 2.26c-2.66,9.93 -7.65,17.67 -14.92,23.16 -7.27,5.48 -16.55,8.24 -27.86,8.24 -14.23,0 -25.51,-4.39 -33.85,-13.17 -8.34,-8.74 -12.5,-21.06 -12.5,-36.88 0,-16.36 4.2,-29.08 12.63,-38.11 8.43,-9.06 19.37,-13.57 32.81,-13.57 13.01,0 23.63,4.42 31.87,13.29 8.24,8.87 12.38,21.34 12.38,37.42 0,0.97 -0.03,2.44 -0.09,4.39l-72.67 0c0.62,10.69 3.63,18.9 9.09,24.57 5.42,5.67 12.22,8.52 20.34,8.52 6.05,0 11.22,-1.6 15.48,-4.79 4.29,-3.2 7.68,-8.3 10.19,-15.32zm-54.15 -26.51l54.34 0c-0.72,-8.21 -2.82,-14.35 -6.24,-18.46 -5.23,-6.36 -12.06,-9.56 -20.43,-9.56 -7.58,0 -13.94,2.54 -19.12,7.62 -5.14,5.08 -7.99,11.88 -8.55,20.4zm92.17 -39.49l38.08 0c9.34,0 16.29,0.78 20.87,2.35 4.55,1.57 8.46,4.42 11.72,8.59 3.29,4.2 4.92,9.18 4.92,15.01 0,4.67 -0.97,8.74 -2.88,12.19 -1.94,3.48 -4.82,6.39 -8.71,8.71 4.57,1.53 8.37,4.39 11.41,8.58 3.01,4.17 4.51,9.15 4.51,14.89 -0.6,9.25 -3.92,16.11 -9.9,20.56 -5.98,4.48 -14.7,6.71 -26.11,6.71l-43.9 0 0 -97.59zm16.55 41.18l17.55 0c6.99,0 11.81,-0.38 14.41,-1.1 2.63,-0.75 4.98,-2.23 7.05,-4.48 2.07,-2.22 3.1,-4.92 3.1,-8.05 0,-5.17 -1.82,-8.74 -5.42,-10.78 -3.64,-2.04 -9.84,-3.04 -18.61,-3.04l-18.08 0 0 27.45zm0 42.87l21.72 0c9.34,0 15.76,-1.1 19.24,-3.26 3.48,-2.19 5.3,-5.92 5.49,-11.28 0,-3.1 -1,-6.02 -3.01,-8.68 -2.04,-2.66 -4.67,-4.36 -7.9,-5.05 -3.23,-0.72 -8.43,-1.07 -15.58,-1.07l-19.96 0 0 29.33zm145 1.31c-6.14,5.24 -12.07,8.9 -17.74,11.06 -5.67,2.16 -11.75,3.23 -18.27,3.23 -10.72,0 -18.96,-2.6 -24.73,-7.84 -5.77,-5.2 -8.65,-11.88 -8.65,-20 0,-4.76 1.1,-9.12 3.26,-13.07 2.19,-3.95 5.05,-7.08 8.55,-9.46 3.54,-2.38 7.49,-4.2 11.91,-5.42 3.26,-0.85 8.18,-1.66 14.73,-2.48 13.35,-1.57 23.22,-3.48 29.52,-5.67 0.06,-2.26 0.09,-3.7 0.09,-4.29 0,-6.71 -1.57,-11.44 -4.7,-14.2 -4.23,-3.73 -10.53,-5.58 -18.87,-5.58 -7.8,0 -13.57,1.38 -17.27,4.11 -3.73,2.73 -6.46,7.55 -8.24,14.51l-16.17 -2.26c1.47,-6.93 3.88,-12.53 7.27,-16.8 3.38,-4.26 8.27,-7.52 14.67,-9.84 6.36,-2.29 13.79,-3.45 22.19,-3.45 8.34,0 15.14,0.97 20.37,2.95 5.2,1.98 9.06,4.42 11.5,7.39 2.45,2.98 4.17,6.74 5.17,11.28 0.53,2.82 0.82,7.9 0.82,15.2l0 21.94c0,15.32 0.34,25.01 1.03,29.11 0.66,4.1 2.04,8.02 4.04,11.78l-17.3 0c-1.66,-3.48 -2.73,-7.55 -3.2,-12.22zm-1.32 -36.66c-6.02,2.44 -15.04,4.51 -27.08,6.2 -6.83,0.97 -11.66,2.07 -14.48,3.29 -2.82,1.22 -4.98,3.01 -6.52,5.33 -1.53,2.35 -2.32,4.95 -2.32,7.84 0,4.36 1.66,8.02 5.01,10.94 3.35,2.92 8.24,4.39 14.67,4.39 6.36,0 12.03,-1.38 17.02,-4.17 4.95,-2.76 8.62,-6.55 10.94,-11.34 1.79,-3.73 2.66,-9.21 2.66,-16.45l0.09 -6.02zm119.06 -48.7l0 97.59 -16.55 0 0 -37.98 -9.53 0c-5.8,0 -10.12,0.75 -12.97,2.29 -2.85,1.53 -7.02,6.33 -12.5,14.44l-14.54 21.25 -20.49 0 17.86 -26.2c5.45,-8.02 10.91,-12.53 16.33,-13.57 -9.43,-1.29 -16.45,-4.7 -21.03,-10.22 -4.57,-5.52 -6.86,-11.88 -6.86,-19.05 0,-8.49 2.98,-15.36 8.96,-20.62 5.98,-5.3 14.67,-7.93 26.01,-7.93l45.32 0zm-16.55 13.73l-23.51 0c-9.84,0 -16.2,1.54 -19.05,4.61 -2.85,3.07 -4.26,6.67 -4.26,10.78 0,5.83 2.1,10.12 6.3,12.85 4.17,2.72 11.6,4.1 22.25,4.1l18.27 0 0 -32.34zm-579.12 196.33l16.55 0 0 42.12c5.26,0 8.96,-1 11.09,-3.04 2.1,-2 5.2,-7.87 9.34,-17.61 3.26,-7.71 5.89,-12.79 7.9,-15.23 2.04,-2.45 4.36,-4.11 6.99,-4.95 2.66,-0.84 6.89,-1.29 12.69,-1.29l3.32 0 0 13.63 -4.61 -0.09c-4.36,0 -7.15,0.66 -8.37,1.95 -1.29,1.35 -3.26,5.36 -5.89,12.03 -2.51,6.39 -4.79,10.81 -6.89,13.25 -2.07,2.45 -5.3,4.67 -9.65,6.71 7.11,1.91 14.13,8.52 21.03,19.87l18.15 30.24 -18.18 0 -17.89 -30.15c-3.6,-6.11 -6.74,-10.12 -9.4,-12.07 -2.7,-1.94 -5.89,-2.91 -9.62,-2.91l0 45.13 -16.55 0 0 -97.59zm82.45 0l16.55 0 0 40.61 45.88 0 0 -40.61 16.55 0 0 97.59 -16.55 0 0 -43.25 -45.88 0 0 43.25 -16.55 0 0 -97.59zm103.82 0l16.55 0 0 74.43 45.97 -74.43 17.77 0 0 97.59 -16.55 0 0 -73.96 -45.91 73.96 -17.83 0 0 -97.59zm105.04 0l56.22 0 0 13.73 -39.68 0 0 83.86 -16.55 0 0 -97.59zm128.17 85.37c-6.14,5.24 -12.07,8.9 -17.74,11.06 -5.67,2.16 -11.75,3.23 -18.27,3.23 -10.72,0 -18.96,-2.6 -24.73,-7.84 -5.77,-5.2 -8.65,-11.88 -8.65,-20 0,-4.76 1.1,-9.12 3.26,-13.07 2.19,-3.95 5.05,-7.08 8.55,-9.46 3.54,-2.38 7.49,-4.2 11.91,-5.42 3.26,-0.85 8.18,-1.66 14.73,-2.48 13.35,-1.57 23.22,-3.48 29.52,-5.67 0.06,-2.26 0.09,-3.7 0.09,-4.29 0,-6.71 -1.57,-11.44 -4.7,-14.2 -4.23,-3.73 -10.53,-5.58 -18.87,-5.58 -7.8,0 -13.57,1.38 -17.27,4.11 -3.73,2.73 -6.46,7.55 -8.24,14.51l-16.17 -2.26c1.47,-6.93 3.88,-12.53 7.27,-16.8 3.38,-4.26 8.27,-7.52 14.67,-9.84 6.36,-2.29 13.79,-3.45 22.19,-3.45 8.34,0 15.14,0.97 20.37,2.95 5.2,1.98 9.06,4.42 11.5,7.39 2.45,2.98 4.17,6.74 5.17,11.28 0.53,2.82 0.82,7.9 0.82,15.2l0 21.94c0,15.32 0.34,25.01 1.03,29.11 0.66,4.1 2.04,8.02 4.04,11.78l-17.3 0c-1.66,-3.48 -2.73,-7.55 -3.2,-12.22zm-1.32 -36.66c-6.02,2.44 -15.04,4.51 -27.08,6.2 -6.83,0.97 -11.66,2.07 -14.48,3.29 -2.82,1.22 -4.98,3.01 -6.52,5.33 -1.53,2.35 -2.32,4.95 -2.32,7.84 0,4.36 1.66,8.02 5.01,10.94 3.35,2.92 8.24,4.39 14.67,4.39 6.36,0 12.03,-1.38 17.02,-4.17 4.95,-2.76 8.62,-6.55 10.94,-11.34 1.79,-3.73 2.66,-9.21 2.66,-16.45l0.09 -6.02z"/>
 </g>
</svg>
