<?xml version="1.0" encoding="UTF-8"?>
<!DOCTYPE svg PUBLIC "-//W3C//DTD SVG 1.1//EN" "http://www.w3.org/Graphics/SVG/1.1/DTD/svg11.dtd">
<!-- Creator: CorelDRAW 2018 (64-Bit) -->
<svg xmlns="http://www.w3.org/2000/svg" xml:space="preserve" width="63.4418mm" height="42.9812mm" version="1.1" style="shape-rendering:geometricPrecision; text-rendering:geometricPrecision; image-rendering:optimizeQuality; fill-rule:evenodd; clip-rule:evenodd"
viewBox="0 0 1996.4 1352.54"
 xmlns:xlink="http://www.w3.org/1999/xlink">
 <defs>
  <style type="text/css">
   <![CDATA[
    .str0 {stroke:#806040;stroke-width:31.47;stroke-miterlimit:22.9256}
    .str4 {stroke:#806040;stroke-width:15.73;stroke-miterlimit:22.9256}
    .str3 {stroke:#806040;stroke-width:9.44;stroke-miterlimit:22.9256}
    .str6 {stroke:#806040;stroke-width:15.73;stroke-linecap:round;stroke-linejoin:round;stroke-miterlimit:22.9256}
    .str2 {stroke:#6F97B3;stroke-width:9.44;stroke-linecap:round;stroke-linejoin:round;stroke-miterlimit:22.9256}
    .str1 {stroke:#806040;stroke-width:9.44;stroke-linecap:round;stroke-linejoin:round;stroke-miterlimit:22.9256}
    .str5 {stroke:#806040;stroke-width:6.29;stroke-linecap:round;stroke-linejoin:round;stroke-miterlimit:22.9256}
    .fil0 {fill:none}
    .fil1 {fill:#806040;fill-rule:nonzero}
   ]]>
  </style>
 </defs>
 <g id="карточки_контур">
  <metadata id="CorelCorpID_0Corel-Layer"/>
  <polygon class="fil0 str0" points="1680.39,233.08 1980.66,233.08 1980.66,1336.81 15.73,1336.81 15.73,233.08 323.32,233.08 471.43,15.75 1004.35,17.02 1537.26,18.28 "/>
 </g>
 <g id="карточки_x0020_-_x0020_наполнение">
  <metadata id="CorelCorpID_1Corel-Layer"/>
  <g id="календарь_оборот">
   <line class="fil0 str1" x1="1379.51" y1="805.21" x2="1459.99" y2= "805.21" />
   <line class="fil0 str1" x1="1379.51" y1="827.24" x2="1459.99" y2= "827.24" />
   <line class="fil0 str1" x1="1379.51" y1="849.27" x2="1459.99" y2= "849.27" />
   <line class="fil0 str1" x1="1379.51" y1="871.29" x2="1459.99" y2= "871.29" />
   <line class="fil0 str1" x1="1379.51" y1="893.32" x2="1459.99" y2= "893.32" />
   <line class="fil0 str2" x1="1379.51" y1="915.35" x2="1459.99" y2= "915.35" />
   <line class="fil0 str2" x1="1379.51" y1="937.38" x2="1459.99" y2= "937.38" />
   <line class="fil0 str1" x1="1379.51" y1="996.43" x2="1459.99" y2= "996.43" />
   <line class="fil0 str1" x1="1379.51" y1="1018.46" x2="1459.99" y2= "1018.46" />
   <line class="fil0 str1" x1="1379.51" y1="1040.49" x2="1459.99" y2= "1040.49" />
   <line class="fil0 str1" x1="1379.51" y1="1062.51" x2="1459.99" y2= "1062.51" />
   <line class="fil0 str1" x1="1379.51" y1="1084.54" x2="1459.99" y2= "1084.54" />
   <line class="fil0 str2" x1="1379.51" y1="1106.57" x2="1459.99" y2= "1106.57" />
   <line class="fil0 str2" x1="1379.51" y1="1128.6" x2="1459.99" y2= "1128.6" />
   <line class="fil0 str1" x1="1001.83" y1="1062.51" x2="1082.31" y2= "1062.51" />
   <line class="fil0 str1" x1="1001.83" y1="1084.54" x2="1082.31" y2= "1084.54" />
   <line class="fil0 str2" x1="1001.83" y1="1106.57" x2="1082.31" y2= "1106.57" />
   <line class="fil0 str2" x1="1001.83" y1="1128.6" x2="1082.31" y2= "1128.6" />
   <line class="fil0 str1" x1="1127.72" y1="996.43" x2="1208.21" y2= "996.43" />
   <line class="fil0 str1" x1="1127.72" y1="1018.46" x2="1208.21" y2= "1018.46" />
   <line class="fil0 str1" x1="1127.72" y1="1040.49" x2="1208.21" y2= "1040.49" />
   <line class="fil0 str1" x1="1127.72" y1="1062.51" x2="1208.21" y2= "1062.51" />
   <line class="fil0 str1" x1="1127.72" y1="1084.54" x2="1208.21" y2= "1084.54" />
   <line class="fil0 str2" x1="1127.72" y1="1106.57" x2="1208.21" y2= "1106.57" />
   <line class="fil0 str2" x1="1127.72" y1="1128.6" x2="1208.21" y2= "1128.6" />
   <line class="fil0 str1" x1="1253.61" y1="996.43" x2="1334.1" y2= "996.43" />
   <line class="fil0 str1" x1="1253.61" y1="1018.46" x2="1334.1" y2= "1018.46" />
   <line class="fil0 str1" x1="1253.61" y1="1040.49" x2="1334.1" y2= "1040.49" />
   <line class="fil0 str1" x1="1253.61" y1="1062.51" x2="1334.1" y2= "1062.51" />
   <line class="fil0 str1" x1="1253.61" y1="1084.54" x2="1334.1" y2= "1084.54" />
   <line class="fil0 str2" x1="1253.61" y1="1106.57" x2="1334.1" y2= "1106.57" />
   <line class="fil0 str2" x1="1253.61" y1="1128.6" x2="1334.1" y2= "1128.6" />
   <line class="fil0 str1" x1="1127.72" y1="805.21" x2="1208.21" y2= "805.21" />
   <line class="fil0 str1" x1="1127.72" y1="827.24" x2="1208.21" y2= "827.24" />
   <line class="fil0 str1" x1="1127.72" y1="849.27" x2="1208.21" y2= "849.27" />
   <line class="fil0 str1" x1="1127.72" y1="871.29" x2="1208.21" y2= "871.29" />
   <line class="fil0 str1" x1="1127.72" y1="893.32" x2="1208.21" y2= "893.32" />
   <line class="fil0 str2" x1="1127.72" y1="915.35" x2="1208.21" y2= "915.35" />
   <line class="fil0 str2" x1="1127.72" y1="937.38" x2="1208.21" y2= "937.38" />
   <line class="fil0 str1" x1="1253.61" y1="805.21" x2="1334.1" y2= "805.21" />
   <line class="fil0 str1" x1="1253.61" y1="827.24" x2="1334.1" y2= "827.24" />
   <line class="fil0 str1" x1="1253.61" y1="849.27" x2="1334.1" y2= "849.27" />
   <line class="fil0 str1" x1="1253.61" y1="871.29" x2="1334.1" y2= "871.29" />
   <line class="fil0 str1" x1="1253.61" y1="893.32" x2="1334.1" y2= "893.32" />
   <line class="fil0 str2" x1="1253.61" y1="915.35" x2="1334.1" y2= "915.35" />
   <line class="fil0 str2" x1="1253.61" y1="937.38" x2="1334.1" y2= "937.38" />
   <polyline class="fil0 str3" points="1042.44,763.04 1498.61,763.04 1498.61,1176.57 962.97,1176.57 962.97,1030.67 "/>
  </g>
  <g id="календарь_лицо">
   <rect class="fil0 str4" x="506.43" y="617.34" width="535.64" height="413.52"/>
   <path class="fil1" d="M682.2 983.21c-1.09,0 -2.62,-0.39 -4.6,-1.17 -1.98,-0.78 -3.49,-1.17 -4.51,-1.17 -2.22,0 -5.55,0.15 -9.98,0.44 -4.42,0.29 -7.75,0.44 -10.02,0.44 -1.69,0 -4.2,0.24 -7.51,0.73 -3.33,0.49 -5.84,0.73 -7.53,0.73 -0.47,0 -1.15,-0.1 -2.06,-0.31 -0.91,-0.21 -1.62,-0.28 -2.09,-0.28 -3,0 -4.96,-1.72 -5.87,-5.09 -0.51,-1.79 -0.78,-4.83 -0.78,-9.14 0,-11.79 2.76,-21.29 8.26,-28.49 2.51,-3.3 9.31,-9.37 20.37,-18.23 6.2,-4.99 10.33,-8.86 12.42,-11.63 3.73,-4.88 5.6,-10.57 5.6,-17.12 0,-3.25 -1.8,-6.13 -5.4,-8.65 -3.18,-2.28 -6.28,-3.43 -9.33,-3.43 -4,0 -7.8,1.35 -11.39,4.02l-9.33 8.52c-1.87,1.71 -3.36,2.57 -4.49,2.57 -4.47,0 -6.71,-2.08 -6.71,-6.23 0,-2.39 0.82,-4.44 2.46,-6.18 5.09,-5.59 9.49,-9.61 13.24,-12.1 5.24,-3.51 10.64,-5.25 16.19,-5.25 7.04,0 13.33,2.23 18.84,6.7 6.15,5.01 9.24,11.45 9.24,19.32 0,5.17 -0.62,9.92 -1.89,14.28 -1.27,4.36 -3.18,8.34 -5.73,11.95 -3.24,4.57 -8.75,9.66 -16.53,15.3 -8.15,5.97 -13.51,10.52 -16.08,13.61 -4.8,5.82 -7.18,12.91 -7.09,21.22l13.42 -1.43c9.2,-0.6 15.77,-0.91 19.73,-0.91 3.31,0 6.42,0.65 9.37,1.97 3.91,1.79 5.87,4.24 5.87,7.4 0,1.98 -0.58,3.74 -1.76,5.3 -1.18,1.53 -2.62,2.31 -4.36,2.31zm55.42 2.8c-13.19,0 -22.83,-7.04 -28.9,-21.14 -4.6,-10.85 -6.91,-24.98 -6.91,-42.36 0,-14.7 3,-27.53 8.97,-38.49 7.09,-12.83 16.7,-19.25 28.85,-19.25 11.4,0 20.3,5.69 26.68,17.04 5.51,9.84 8.26,21.81 8.26,35.97 0,22.72 -3.09,39.76 -9.24,51.16 -6.18,11.37 -15.42,17.06 -27.72,17.06zm1.93 -106.58c-8.06,0 -14.44,4.78 -19.17,14.36 -3.93,8.02 -5.91,17.17 -5.91,27.45 0,16.7 1.93,29.22 5.77,37.58 3.86,8.36 9.64,12.54 17.35,12.54 9.2,0 15.77,-6.13 19.77,-18.41 2.77,-8.52 4.15,-19.3 4.15,-32.38 0,-13.74 -1.82,-24.02 -5.48,-30.88 -3.67,-6.83 -9.15,-10.26 -16.48,-10.26zm105.34 103.78c-1.09,0 -2.62,-0.39 -4.6,-1.17 -1.98,-0.78 -3.49,-1.17 -4.51,-1.17 -2.22,0 -5.55,0.15 -9.98,0.44 -4.42,0.29 -7.75,0.44 -10.02,0.44 -1.69,0 -4.2,0.24 -7.51,0.73 -3.33,0.49 -5.84,0.73 -7.53,0.73 -0.46,0 -1.15,-0.1 -2.06,-0.31 -0.91,-0.21 -1.62,-0.28 -2.09,-0.28 -3,0 -4.96,-1.72 -5.87,-5.09 -0.51,-1.79 -0.78,-4.83 -0.78,-9.14 0,-11.79 2.76,-21.29 8.26,-28.49 2.51,-3.3 9.31,-9.37 20.37,-18.23 6.2,-4.99 10.33,-8.86 12.42,-11.63 3.73,-4.88 5.6,-10.57 5.6,-17.12 0,-3.25 -1.8,-6.13 -5.4,-8.65 -3.18,-2.28 -6.28,-3.43 -9.33,-3.43 -4,0 -7.79,1.35 -11.39,4.02l-9.33 8.52c-1.87,1.71 -3.36,2.57 -4.49,2.57 -4.47,0 -6.71,-2.08 -6.71,-6.23 0,-2.39 0.82,-4.44 2.46,-6.18 5.09,-5.59 9.48,-9.61 13.24,-12.1 5.24,-3.51 10.64,-5.25 16.19,-5.25 7.04,0 13.33,2.23 18.83,6.7 6.16,5.01 9.24,11.45 9.24,19.32 0,5.17 -0.62,9.92 -1.89,14.28 -1.27,4.36 -3.18,8.34 -5.73,11.95 -3.24,4.57 -8.75,9.66 -16.53,15.3 -8.15,5.97 -13.51,10.52 -16.08,13.61 -4.8,5.82 -7.17,12.91 -7.09,21.22l13.42 -1.43c9.2,-0.6 15.77,-0.91 19.72,-0.91 3.31,0 6.42,0.65 9.38,1.97 3.91,1.79 5.86,4.24 5.86,7.4 0,1.98 -0.58,3.74 -1.75,5.3 -1.18,1.53 -2.62,2.31 -4.36,2.31zm81.35 0c-1.09,0 -2.62,-0.39 -4.6,-1.17 -1.98,-0.78 -3.49,-1.17 -4.51,-1.17 -2.22,0 -5.56,0.15 -9.98,0.44 -4.42,0.29 -7.75,0.44 -10.02,0.44 -1.69,0 -4.2,0.24 -7.51,0.73 -3.33,0.49 -5.84,0.73 -7.53,0.73 -0.47,0 -1.15,-0.1 -2.06,-0.31 -0.91,-0.21 -1.62,-0.28 -2.09,-0.28 -3,0 -4.96,-1.72 -5.87,-5.09 -0.51,-1.79 -0.78,-4.83 -0.78,-9.14 0,-11.79 2.75,-21.29 8.26,-28.49 2.51,-3.3 9.31,-9.37 20.37,-18.23 6.2,-4.99 10.33,-8.86 12.42,-11.63 3.73,-4.88 5.6,-10.57 5.6,-17.12 0,-3.25 -1.8,-6.13 -5.4,-8.65 -3.18,-2.28 -6.28,-3.43 -9.33,-3.43 -4,0 -7.79,1.35 -11.39,4.02l-9.33 8.52c-1.87,1.71 -3.36,2.57 -4.49,2.57 -4.47,0 -6.71,-2.08 -6.71,-6.23 0,-2.39 0.82,-4.44 2.46,-6.18 5.09,-5.59 9.48,-9.61 13.24,-12.1 5.24,-3.51 10.64,-5.25 16.19,-5.25 7.04,0 13.33,2.23 18.84,6.7 6.16,5.01 9.24,11.45 9.24,19.32 0,5.17 -0.62,9.92 -1.89,14.28 -1.27,4.36 -3.18,8.34 -5.73,11.95 -3.24,4.57 -8.75,9.66 -16.53,15.3 -8.15,5.97 -13.51,10.52 -16.08,13.61 -4.8,5.82 -7.17,12.91 -7.09,21.22l13.42 -1.43c9.2,-0.6 15.77,-0.91 19.72,-0.91 3.31,0 6.42,0.65 9.37,1.97 3.91,1.79 5.87,4.24 5.87,7.4 0,1.98 -0.58,3.74 -1.75,5.3 -1.18,1.53 -2.62,2.31 -4.36,2.31z"/>
   <path class="fil0 str5" d="M557.89 861.23c92.46,-84.28 243.6,-159.33 401.97,-172.52"/>
   <g>
    <path class="fil1" d="M898.4 658c-8.2,-7.52 -15.52,-12.4 -25.85,-16.58 -9.93,-3.65 -17.97,-4.99 -28.54,-4.02 -10.77,1.42 -18.35,4.63 -26.87,11.36 -9.33,7.98 -14.29,15.95 -18.81,27.3 0.52,-1.36 1.11,-2.22 2.17,-3.23 1.1,-0.96 2.07,-1.47 3.48,-1.84 1.4,-0.3 2.53,-0.28 3.92,0.08 1.36,0.39 2.39,0.95 3.43,1.92 -7.81,-7.82 -14.01,-13.09 -24.22,-17.76 -6.5,-2.69 -11.56,-3.8 -18.6,-4.04 -8.19,-0.01 -14.21,1.34 -21.83,4.29 -6.74,2.82 -11.64,5.66 -17.01,10.66 -4.53,4.5 -7.23,8.45 -9.66,14.35 -3.56,9.79 -3.71,17.38 -2.73,27.58 -0.12,-1.65 0.14,-2.91 0.81,-4.42 0.73,-1.48 1.58,-2.48 2.92,-3.43 1.37,-0.9 2.59,-1.3 4.22,-1.46 1.63,-0.09 2.9,0.15 4.39,0.84 -9.49,-4.31 -17.77,-7.43 -28.04,-9.4 -8.07,-1.45 -14.62,-1.85 -22.72,-0.33 -6.88,1.44 -11.73,3.54 -17.28,7.87 -4.78,3.99 -7.65,7.7 -10.56,13.18 -7.61,16.54 -8.27,33.24 -5.81,51.02 0,0 0.22,-0.46 0.35,-0.68 0.14,-0.24 0.38,-0.31 0.56,-0.42 0.09,-0.06 0.51,-0.07 0.63,-0.08 0.1,-0.01 0.46,0.08 0.52,0.17 -9.98,-1.77 -17.85,-1.36 -27.11,2.96 -7.55,3.84 -12.19,8.35 -16.36,15.71 -3.64,7.2 -4.92,13.35 -4.7,21.4 0.66,8.05 2.65,13.98 6.97,20.8 -4.41,-6.76 -6.33,-12.7 -6.71,-20.76 0.06,-7.83 1.61,-13.77 5.62,-20.51 4.33,-6.55 8.93,-10.45 16.23,-13.41 8.6,-3.06 15.6,-2.75 24.33,-0.37 0.79,0.22 1.42,0.27 2.23,0.15 0.68,0.04 1.55,-0.66 2.06,-0.87 0.63,-0.26 1.12,-1.25 1.49,-1.66 0.48,-0.54 0.42,-1.73 0.59,-2.17 0.78,-16.32 1.26,-30.53 9.77,-45.09 2.38,-3.52 4.57,-5.89 8.1,-8.28 3.85,-2.38 7.03,-3.34 11.51,-3.89 6.03,-0.44 10.87,0.33 16.72,1.78 8.44,2.41 15.75,5.61 23.6,9.47 1.71,0.79 3.16,1.09 5.04,0.98 1.88,-0.17 3.31,-0.68 4.88,-1.72 1.52,-1.08 2.53,-2.25 3.35,-3.93 0.79,-1.76 1.03,-3.18 0.91,-5.1 -0.52,-6.82 -0.71,-12.46 1.42,-19.07 1.23,-3.35 2.56,-5.59 4.92,-8.28 0.25,-0.44 2.14,-2.21 2.6,-2.63 2.97,-1.8 5.46,-3.12 8.69,-4.47 5.16,-2.06 9.34,-3.17 14.93,-3.42 4.64,-0.03 7.97,0.56 12.35,2.07 8.18,3.21 13.59,7.52 20.21,13.13 0.97,0.85 1.76,1.29 3,1.63 1.21,0.27 2.17,0.27 3.37,-0.03 1.21,-0.33 1.99,-0.76 2.92,-1.59 0.64,-0.35 1.51,-2.07 1.76,-2.77 2.93,-9.25 6.27,-15.97 12.94,-23.09 6.24,-5.97 11.93,-9.07 20.29,-11.18 9.07,-1.95 16.22,-1.59 25.23,0.36 11.08,2.61 17.98,6.02 27.98,10.9z"/>
   </g>
   <path class="fil0" d="M891.91 664.96c-29.15,-27.17 -71.58,-25.4 -84.72,19.57 -10.94,-10.6 -28.02,-29.46 -55.98,-18.01 -25.78,10.55 -23.24,31.07 -21.59,46.14 -91.57,-47.36 -76.9,48.75 -80.06,53.51 -39.69,-14.59 -66.67,23.71 -54.86,59.38"/>
   <g>
    <path class="fil1" d="M675.73 843.51c19.59,0.44 34.91,-1.7 52.95,-9.8 9.35,-4.54 15.91,-9.12 23.07,-16.7 6.87,-7.88 10.69,-14.75 14.09,-24.63 0.29,-0.74 0.6,-1.22 1.16,-1.78 0.37,-0.55 1.45,-0.84 1.92,-1.11 0.6,-0.36 1.74,-0.13 2.31,-0.17 0.54,-0.04 2.17,0.93 2.22,0.92 15.29,8.48 30.58,12.42 48.11,11.87 8.56,-0.7 15.02,-2.28 22.52,-6.57 7.35,-4.75 11.37,-9.58 15.5,-17.26 1.67,-2.62 3.35,-4.29 5.99,-5.94 2.75,-1.57 5.02,-2.26 8.17,-2.49 3.13,-0.13 5.53,0.33 8.41,1.57 2.88,1.38 4.73,2.85 6.75,5.32 11.18,10.26 23.78,17.1 38.71,20.12 8.13,1.15 14.2,0.82 21.9,-2.17 9.83,-4.42 15.79,-10.79 22.07,-19.41 8.46,-12.35 13.86,-22.68 18.28,-36.98 3.03,-11.35 4.09,-20.3 3.49,-32.02 0.29,-2.4 -1.86,-12.44 -2.59,-15.2 -1.11,-3.96 -2.37,-7.56 -3.86,-11.39 -16.39,-33.72 -3.96,-33.86 21.34,-13.38 2.45,1.17 10.68,10.11 12.76,12.58 -3.66,1.48 -7.33,2.95 -10.99,4.43 -0.58,6.41 -0.26,13.58 -0.41,20.11 -0.96,14 -2.57,24.31 -6.81,37.83 -5.73,15.68 -12.05,26.95 -21.88,40.49 -8.01,10.41 -15.49,17.57 -27.82,22.49 -9.76,3.39 -17.42,3.65 -27.54,1.87 -16.91,-3.88 -31.3,-11.88 -43.67,-24.01 -1.01,-1.24 -2.03,-2.02 -3.48,-2.69 -1.47,-0.62 -2.71,-0.82 -4.3,-0.74 -1.56,0.14 -2.73,0.5 -4.08,1.3 -0.86,0.28 -2.49,2.21 -2.95,3.01 -3.28,5.59 -5.79,9.59 -10.52,14.14 -2.8,2.73 -5.38,4.74 -8.71,6.8 -8.93,5.06 -16.61,6.94 -26.79,7.65 -19.63,0.4 -36.62,-4.21 -53.36,-14.44 0.41,0.44 0.85,0.68 1.41,0.89 0.42,0.27 1.32,0.15 1.74,0.2 0.56,0.07 1.3,-0.48 1.72,-0.64 0.43,-0.15 1.32,-1.37 1.32,-1.37 -4.23,10.97 -8.87,18.53 -17.05,27 -8.27,7.96 -15.66,12.6 -26.21,17.03 -14.53,5.66 -26.55,7.49 -42.09,7.47 -4.65,-0.24 -38.05,-4.1 -12.76,-4.22z"/>
   </g>
   <path class="fil0" d="M672.11 825.41c37.62,11.23 80.4,3.31 96.77,-36.28 21.38,21.02 80.44,39.54 105.44,-7.41 9.66,18.49 71.93,64.85 113.53,4.86 42.18,-60.85 17.41,-116.49 -8.31,-132.5"/>
   <path class="fil0 str6" d="M566.44 886.86c87.72,-89.21 236.01,-176.32 393.42,-198.14"/>
  </g>
  <path class="fil1" d="M490.09 116.62l18.98 0 0 62.74c8.63,0 14.72,-1.7 18.22,-5.06 3.53,-3.36 7.99,-11.42 13.46,-24.21 3.96,-9.42 7.23,-16.05 9.82,-19.92 2.56,-3.9 6.23,-7.16 10.99,-9.79 4.73,-2.63 9.99,-3.96 15.72,-3.96 7.29,0 11.12,0.07 11.52,0.2l0 16.39c-0.67,0 -1.93,-0.03 -3.8,-0.1 -2.1,-0.07 -3.36,-0.1 -3.83,-0.1 -6.03,0 -10.52,1.47 -13.46,4.4 -3,2.93 -6.39,9.19 -10.26,18.75 -4.8,12.12 -8.86,19.78 -12.19,22.95 -3.3,3.13 -7.29,5.66 -11.89,7.56 9.22,2.53 18.35,11.09 27.34,25.61l29.47 47.62 -23.51 0 -24.01 -38.77c-6.56,-10.76 -12.06,-18.15 -16.45,-22.15 -4.43,-4.03 -10.12,-6.03 -17.15,-6.03l0 66.94 -18.98 0 0 -143.07zm181.54 130.08c-6.53,5.56 -12.82,9.46 -18.85,11.76 -6.03,2.3 -12.49,3.43 -19.42,3.43 -11.39,0 -20.15,-2.77 -26.28,-8.33 -6.13,-5.53 -9.19,-12.62 -9.19,-21.25 0,-5.06 1.16,-9.69 3.46,-13.89 2.33,-4.19 5.36,-7.53 9.09,-10.06 3.76,-2.53 7.96,-4.46 12.66,-5.76 3.46,-0.9 8.69,-1.77 15.65,-2.63 14.19,-1.66 24.68,-3.7 31.37,-6.03 0.07,-2.4 0.1,-3.93 0.1,-4.56 0,-7.13 -1.66,-12.16 -4.99,-15.09 -4.5,-3.96 -11.19,-5.93 -20.05,-5.93 -8.29,0 -14.42,1.47 -18.35,4.36 -3.96,2.9 -6.86,8.02 -8.76,15.42l-17.18 -2.4c1.56,-7.36 4.13,-13.32 7.73,-17.85 3.6,-4.53 8.79,-7.99 15.59,-10.46 6.76,-2.43 14.65,-3.66 23.58,-3.66 8.86,0 16.09,1.03 21.65,3.13 5.53,2.1 9.63,4.7 12.22,7.86 2.6,3.17 4.43,7.16 5.49,11.99 0.57,3 0.87,8.39 0.87,16.15l0 23.31c0,16.28 0.37,26.57 1.1,30.94 0.7,4.36 2.17,8.52 4.3,12.52l-18.38 0c-1.77,-3.7 -2.9,-8.03 -3.4,-12.99zm-1.4 -38.96c-6.39,2.6 -15.99,4.8 -28.77,6.59 -7.26,1.04 -12.39,2.2 -15.38,3.5 -3,1.3 -5.3,3.2 -6.93,5.66 -1.63,2.5 -2.46,5.26 -2.46,8.33 0,4.63 1.77,8.52 5.33,11.62 3.57,3.1 8.76,4.66 15.59,4.66 6.76,0 12.79,-1.47 18.08,-4.43 5.26,-2.93 9.16,-6.96 11.62,-12.06 1.9,-3.96 2.83,-9.79 2.83,-17.48l0.1 -6.39zm44.79 91.72l0 -143.48 15.99 0 0 13.62c3.76,-5.26 8.03,-9.23 12.79,-11.86 4.73,-2.63 10.49,-3.96 17.25,-3.96 8.86,0 16.65,2.27 23.41,6.83 6.76,4.53 11.86,10.95 15.32,19.21 3.43,8.29 5.16,17.35 5.16,27.24 0,10.56 -1.9,20.08 -5.7,28.58 -3.8,8.46 -9.32,14.95 -16.58,19.48 -7.23,4.5 -14.85,6.76 -22.85,6.76 -5.86,0 -11.12,-1.23 -15.75,-3.7 -4.66,-2.46 -8.46,-5.56 -11.46,-9.33l0 50.59 -17.58 0zm15.99 -90.99c0,13.29 2.7,23.11 8.06,29.47 5.4,6.36 11.92,9.56 19.58,9.56 7.79,0 14.45,-3.29 19.98,-9.89 5.56,-6.59 8.33,-16.79 8.33,-30.61 0,-13.19 -2.7,-23.05 -8.13,-29.61 -5.43,-6.56 -11.89,-9.83 -19.42,-9.83 -7.46,0 -14.06,3.5 -19.78,10.46 -5.76,6.99 -8.63,17.12 -8.63,30.44zm95.75 -52.49l27.04 0 27.41 82.99 30.34 -82.99 25.11 0 0 103.71 -17.58 0 0 -83.49 -30.54 83.49 -15.72 0 -28.87 -87.49 0 87.49 -17.18 0 0 -103.71zm204.52 90.72c-6.53,5.56 -12.82,9.46 -18.85,11.76 -6.03,2.3 -12.49,3.43 -19.42,3.43 -11.39,0 -20.15,-2.77 -26.28,-8.33 -6.13,-5.53 -9.19,-12.62 -9.19,-21.25 0,-5.06 1.16,-9.69 3.46,-13.89 2.33,-4.19 5.36,-7.53 9.09,-10.06 3.76,-2.53 7.96,-4.46 12.66,-5.76 3.46,-0.9 8.69,-1.77 15.65,-2.63 14.19,-1.66 24.68,-3.7 31.37,-6.03 0.07,-2.4 0.1,-3.93 0.1,-4.56 0,-7.13 -1.66,-12.16 -4.99,-15.09 -4.5,-3.96 -11.19,-5.93 -20.05,-5.93 -8.29,0 -14.42,1.47 -18.35,4.36 -3.96,2.9 -6.86,8.02 -8.76,15.42l-17.18 -2.4c1.56,-7.36 4.13,-13.32 7.73,-17.85 3.6,-4.53 8.79,-7.99 15.59,-10.46 6.76,-2.43 14.65,-3.66 23.58,-3.66 8.86,0 16.09,1.03 21.65,3.13 5.53,2.1 9.63,4.7 12.22,7.86 2.6,3.17 4.43,7.16 5.49,11.99 0.57,3 0.87,8.39 0.87,16.15l0 23.31c0,16.28 0.37,26.57 1.1,30.94 0.7,4.36 2.17,8.52 4.3,12.52l-18.38 0c-1.77,-3.7 -2.9,-8.03 -3.4,-12.99zm-1.4 -38.96c-6.39,2.6 -15.99,4.8 -28.77,6.59 -7.26,1.04 -12.39,2.2 -15.38,3.5 -3,1.3 -5.3,3.2 -6.93,5.66 -1.63,2.5 -2.46,5.26 -2.46,8.33 0,4.63 1.77,8.52 5.33,11.62 3.57,3.1 8.76,4.66 15.59,4.66 6.76,0 12.79,-1.47 18.08,-4.43 5.26,-2.93 9.16,-6.96 11.62,-12.06 1.9,-3.96 2.83,-9.79 2.83,-17.48l0.1 -6.39zm44.79 -51.76l17.58 0 0 43.16 48.76 0 0 -43.16 17.58 0 0 103.71 -17.58 0 0 -45.96 -48.76 0 0 45.96 -17.58 0 0 -103.71zm110.34 0l17.58 0 0 43.16 48.76 0 0 -43.16 17.58 0 0 103.71 -17.58 0 0 -45.96 -48.76 0 0 45.96 -17.58 0 0 -103.71zm209.05 0l17.58 0 0 103.71 -17.58 0 0 -103.71zm-98.11 0l17.58 0 0 40.57 22.18 0c14.49,0 25.61,2.8 33.44,8.43 7.83,5.63 11.72,13.39 11.72,23.28 0,8.66 -3.26,16.05 -9.79,22.21 -6.53,6.16 -16.95,9.23 -31.31,9.23l-43.83 0 0 -103.71zm17.58 89.32l18.45 0c11.09,0 19.05,-1.37 23.78,-4.1 4.76,-2.73 7.13,-6.99 7.13,-12.79 0,-4.5 -1.77,-8.49 -5.26,-12.02 -3.53,-3.5 -11.29,-5.26 -23.31,-5.26l-20.78 0 0 34.17zm196.19 -19.18l18.19 2.4c-2.83,10.56 -8.13,18.78 -15.85,24.61 -7.73,5.83 -17.58,8.76 -29.61,8.76 -15.12,0 -27.11,-4.66 -35.97,-13.99 -8.86,-9.29 -13.29,-22.38 -13.29,-39.2 0,-17.39 4.46,-30.9 13.42,-40.5 8.96,-9.63 20.58,-14.42 34.87,-14.42 13.82,0 25.11,4.7 33.87,14.12 8.76,9.42 13.15,22.68 13.15,39.77 0,1.03 -0.03,2.6 -0.1,4.66l-77.23 0c0.66,11.36 3.86,20.08 9.66,26.11 5.76,6.03 12.99,9.06 21.61,9.06 6.43,0 11.92,-1.7 16.45,-5.09 4.56,-3.4 8.16,-8.82 10.83,-16.28zm-57.55 -28.18l57.75 0c-0.77,-8.72 -3,-15.25 -6.63,-19.61 -5.56,-6.76 -12.82,-10.16 -21.71,-10.16 -8.06,0 -14.82,2.7 -20.32,8.09 -5.46,5.39 -8.49,12.62 -9.09,21.68zm-929.33 181.27l17.58 0 0 44.76c5.6,0 9.52,-1.06 11.79,-3.23 2.23,-2.13 5.53,-8.36 9.93,-18.72 3.46,-8.19 6.26,-13.59 8.39,-16.18 2.17,-2.6 4.63,-4.36 7.43,-5.26 2.83,-0.9 7.33,-1.37 13.49,-1.37l3.53 0 0 14.49 -4.9 -0.1c-4.63,0 -7.59,0.7 -8.89,2.07 -1.37,1.43 -3.46,5.69 -6.26,12.79 -2.67,6.79 -5.09,11.49 -7.33,14.09 -2.2,2.6 -5.63,4.96 -10.26,7.13 7.56,2.03 15.02,9.06 22.35,21.12l19.28 32.14 -19.32 0 -19.02 -32.04c-3.83,-6.5 -7.16,-10.76 -9.99,-12.82 -2.87,-2.06 -6.26,-3.1 -10.22,-3.1l0 47.96 -17.58 0 0 -103.71zm159.76 90.72c-6.53,5.56 -12.82,9.46 -18.85,11.76 -6.03,2.3 -12.49,3.43 -19.42,3.43 -11.39,0 -20.15,-2.77 -26.28,-8.33 -6.13,-5.53 -9.19,-12.62 -9.19,-21.25 0,-5.06 1.16,-9.69 3.46,-13.89 2.33,-4.19 5.36,-7.53 9.09,-10.06 3.76,-2.53 7.96,-4.46 12.66,-5.76 3.46,-0.9 8.69,-1.77 15.65,-2.63 14.19,-1.66 24.68,-3.7 31.37,-6.03 0.07,-2.4 0.1,-3.93 0.1,-4.56 0,-7.13 -1.66,-12.16 -4.99,-15.09 -4.5,-3.96 -11.19,-5.93 -20.05,-5.93 -8.29,0 -14.42,1.47 -18.35,4.36 -3.96,2.9 -6.86,8.02 -8.76,15.42l-17.18 -2.4c1.56,-7.36 4.13,-13.32 7.73,-17.85 3.6,-4.53 8.79,-7.99 15.59,-10.46 6.76,-2.43 14.65,-3.66 23.58,-3.66 8.86,0 16.09,1.03 21.65,3.13 5.53,2.1 9.63,4.7 12.22,7.86 2.6,3.17 4.43,7.16 5.49,11.99 0.57,3 0.87,8.39 0.87,16.15l0 23.31c0,16.28 0.37,26.57 1.1,30.94 0.7,4.36 2.17,8.52 4.3,12.52l-18.38 0c-1.77,-3.7 -2.9,-8.03 -3.4,-12.99zm-1.4 -38.96c-6.39,2.6 -15.99,4.8 -28.77,6.59 -7.26,1.04 -12.39,2.2 -15.38,3.5 -3,1.3 -5.3,3.2 -6.93,5.66 -1.63,2.5 -2.46,5.26 -2.46,8.33 0,4.63 1.77,8.52 5.33,11.62 3.57,3.1 8.76,4.66 15.59,4.66 6.76,0 12.79,-1.47 18.08,-4.43 5.26,-2.93 9.16,-6.96 11.62,-12.06 1.9,-3.96 2.83,-9.79 2.83,-17.48l0.1 -6.39zm53.39 -51.76l81.73 0 0 103.61 -17.58 0 0 -89.02 -46.56 0 0 51.59c0,12.02 -0.4,19.95 -1.17,23.81 -0.8,3.83 -2.93,7.16 -6.43,10.02 -3.53,2.86 -8.59,4.3 -15.22,4.3 -4.1,0 -8.83,-0.27 -14.15,-0.77l0 -14.62 7.69 0c3.63,0 6.23,-0.37 7.79,-1.13 1.57,-0.73 2.6,-1.93 3.13,-3.56 0.5,-1.63 0.77,-6.93 0.77,-15.89l0 -68.34zm178.74 70.14l18.19 2.4c-2.83,10.56 -8.13,18.78 -15.85,24.61 -7.73,5.83 -17.58,8.76 -29.61,8.76 -15.12,0 -27.11,-4.66 -35.97,-13.99 -8.86,-9.29 -13.29,-22.38 -13.29,-39.2 0,-17.39 4.46,-30.9 13.42,-40.5 8.96,-9.63 20.58,-14.42 34.87,-14.42 13.82,0 25.11,4.7 33.87,14.12 8.76,9.42 13.15,22.68 13.15,39.77 0,1.03 -0.03,2.6 -0.1,4.66l-77.23 0c0.66,11.36 3.86,20.08 9.66,26.11 5.76,6.03 12.99,9.06 21.61,9.06 6.43,0 11.92,-1.7 16.45,-5.09 4.56,-3.4 8.16,-8.82 10.83,-16.28zm-57.55 -28.18l57.75 0c-0.77,-8.72 -3,-15.25 -6.63,-19.61 -5.56,-6.76 -12.82,-10.16 -21.71,-10.16 -8.06,0 -14.82,2.7 -20.32,8.09 -5.46,5.39 -8.49,12.62 -9.09,21.68zm97.95 -41.96l17.58 0 0 43.16 48.76 0 0 -43.16 17.58 0 0 103.71 -17.58 0 0 -45.96 -48.76 0 0 45.96 -17.58 0 0 -103.71zm124.13 0l72.34 0 0 89.32 11.19 0 0 43.76 -14.39 0 0 -29.38 -81.73 0 0 29.38 -14.39 0 0 -43.76 9.19 0c12.39,-16.82 18.32,-46.59 17.79,-89.32zm14.59 14.59c-1.3,33.67 -6.5,58.58 -15.59,74.73l55.75 0 0 -74.73 -40.17 0zm155.96 76.13c-6.53,5.56 -12.82,9.46 -18.85,11.76 -6.03,2.3 -12.49,3.43 -19.42,3.43 -11.39,0 -20.15,-2.77 -26.28,-8.33 -6.13,-5.53 -9.19,-12.62 -9.19,-21.25 0,-5.06 1.16,-9.69 3.46,-13.89 2.33,-4.19 5.36,-7.53 9.09,-10.06 3.76,-2.53 7.96,-4.46 12.66,-5.76 3.46,-0.9 8.69,-1.77 15.65,-2.63 14.19,-1.66 24.68,-3.7 31.37,-6.03 0.07,-2.4 0.1,-3.93 0.1,-4.56 0,-7.13 -1.66,-12.16 -4.99,-15.09 -4.5,-3.96 -11.19,-5.93 -20.05,-5.93 -8.29,0 -14.42,1.47 -18.35,4.36 -3.96,2.9 -6.86,8.02 -8.76,15.42l-17.18 -2.4c1.56,-7.36 4.13,-13.32 7.73,-17.85 3.6,-4.53 8.79,-7.99 15.59,-10.46 6.76,-2.43 14.65,-3.66 23.58,-3.66 8.86,0 16.09,1.03 21.65,3.13 5.53,2.1 9.63,4.7 12.22,7.86 2.6,3.17 4.43,7.16 5.49,11.99 0.57,3 0.87,8.39 0.87,16.15l0 23.31c0,16.28 0.37,26.57 1.1,30.94 0.7,4.36 2.17,8.52 4.3,12.52l-18.38 0c-1.77,-3.7 -2.9,-8.03 -3.4,-12.99zm-1.4 -38.96c-6.39,2.6 -15.99,4.8 -28.77,6.59 -7.26,1.04 -12.39,2.2 -15.38,3.5 -3,1.3 -5.3,3.2 -6.93,5.66 -1.63,2.5 -2.46,5.26 -2.46,8.33 0,4.63 1.77,8.52 5.33,11.62 3.57,3.1 8.76,4.66 15.59,4.66 6.76,0 12.79,-1.47 18.08,-4.43 5.26,-2.93 9.16,-6.96 11.62,-12.06 1.9,-3.96 2.83,-9.79 2.83,-17.48l0.1 -6.39zm44.79 91.72l0 -143.48 15.99 0 0 13.62c3.76,-5.26 8.03,-9.23 12.79,-11.86 4.73,-2.63 10.49,-3.96 17.25,-3.96 8.86,0 16.65,2.27 23.41,6.83 6.76,4.53 11.86,10.95 15.32,19.21 3.43,8.29 5.16,17.35 5.16,27.24 0,10.56 -1.9,20.08 -5.7,28.58 -3.8,8.46 -9.32,14.95 -16.58,19.48 -7.23,4.5 -14.85,6.76 -22.85,6.76 -5.86,0 -11.12,-1.23 -15.75,-3.7 -4.66,-2.46 -8.46,-5.56 -11.46,-9.33l0 50.59 -17.58 0zm15.99 -90.99c0,13.29 2.7,23.11 8.06,29.47 5.4,6.36 11.92,9.56 19.58,9.56 7.79,0 14.45,-3.29 19.98,-9.89 5.56,-6.59 8.33,-16.79 8.33,-30.61 0,-13.19 -2.7,-23.05 -8.13,-29.61 -5.43,-6.56 -11.89,-9.83 -19.42,-9.83 -7.46,0 -14.06,3.5 -19.78,10.46 -5.76,6.99 -8.63,17.12 -8.63,30.44zm95.15 -52.49l17.58 0 0 79.1 48.86 -79.1 18.88 0 0 103.71 -17.58 0 0 -78.6 -48.79 78.6 -18.95 0 0 -103.71z"/>
 </g>
</svg>
