<svg width="30" height="30" viewBox="0 0 30 30" fill="none" xmlns="http://www.w3.org/2000/svg">
<path d="M15 2.8125C11.7677 2.8125 8.66774 4.09654 6.38214 6.38214C4.09654 8.66774 2.8125 11.7677 2.8125 15C2.8125 18.2323 4.09654 21.3323 6.38214 23.6179C8.66774 25.9035 11.7677 27.1875 15 27.1875C18.2323 27.1875 21.3323 25.9035 23.6179 23.6179C25.9035 21.3323 27.1875 18.2323 27.1875 15C27.1875 11.7677 25.9035 8.66774 23.6179 6.38214C21.3323 4.09654 18.2323 2.8125 15 2.8125ZM15 30C11.0218 30 7.20644 28.4196 4.3934 25.6066C1.58035 22.7936 0 18.9782 0 15C0 11.0218 1.58035 7.20644 4.3934 4.3934C7.20644 1.58035 11.0218 0 15 0C18.9782 0 22.7936 1.58035 25.6066 4.3934C28.4196 7.20644 30 11.0218 30 15C30 18.9782 28.4196 22.7936 25.6066 25.6066C22.7936 28.4196 18.9782 30 15 30ZM22.084 12.7383C22.3477 12.9844 22.5 13.3301 22.5 13.6934C22.5 14.4141 21.9141 15 21.1934 15H17.8125V20.625C17.8125 21.6621 16.9746 22.5 15.9375 22.5H14.0625C13.0254 22.5 12.1875 21.6621 12.1875 20.625V15H8.80664C8.08594 15 7.5 14.4141 7.5 13.6934C7.5 13.3301 7.65234 12.9844 7.91602 12.7383L14.1914 6.88477C14.4141 6.67969 14.7012 6.5625 15 6.5625C15.2988 6.5625 15.5918 6.67969 15.8086 6.88477L22.084 12.7383Z" fill="#C29B7F" fill-opacity="0.8"/>
</svg>
